G75*
%MOIN*%
%OFA0B0*%
%FSLAX25Y25*%
%IPPOS*%
%LPD*%
%AMOC8*
5,1,8,0,0,1.08239X$1,22.5*
%
%ADD10R,0.06000X0.01800*%
%ADD11R,0.06337X0.06337*%
%ADD12C,0.06337*%
%ADD13C,0.00000*%
%ADD14C,0.12900*%
%ADD15R,0.06200X0.06200*%
%ADD16C,0.06200*%
%ADD17R,0.09100X0.02800*%
%ADD18R,0.03550X0.05124*%
%ADD19R,0.05124X0.03550*%
%ADD20C,0.06400*%
%ADD21C,0.05600*%
%ADD22C,0.05400*%
%ADD23C,0.06896*%
%ADD24R,0.03943X0.03550*%
D10*
X0256300Y0046500D03*
X0256300Y0049000D03*
X0256300Y0051600D03*
X0256300Y0054200D03*
X0256300Y0056700D03*
X0256300Y0059300D03*
X0256300Y0061800D03*
X0256300Y0064400D03*
X0256300Y0067000D03*
X0256300Y0069500D03*
X0256300Y0072059D03*
X0256300Y0074618D03*
X0278700Y0074618D03*
X0278700Y0072059D03*
X0278700Y0069500D03*
X0278700Y0067000D03*
X0278700Y0064400D03*
X0278700Y0061800D03*
X0278700Y0059300D03*
X0278700Y0056700D03*
X0278700Y0054200D03*
X0278700Y0051600D03*
X0278700Y0049000D03*
X0278700Y0046500D03*
X0278700Y0090200D03*
X0278700Y0092700D03*
X0278700Y0095300D03*
X0278700Y0097900D03*
X0278700Y0100400D03*
X0278700Y0103000D03*
X0278700Y0105500D03*
X0278700Y0108100D03*
X0278700Y0110700D03*
X0278700Y0113200D03*
X0256300Y0113200D03*
X0256300Y0110700D03*
X0256300Y0108100D03*
X0256300Y0105500D03*
X0256300Y0103000D03*
X0256300Y0100400D03*
X0256300Y0097900D03*
X0256300Y0095300D03*
X0256300Y0092700D03*
X0256300Y0090200D03*
X0256300Y0130500D03*
X0256300Y0133000D03*
X0256300Y0135600D03*
X0256300Y0138200D03*
X0256300Y0140700D03*
X0256300Y0143300D03*
X0256300Y0145800D03*
X0256300Y0148400D03*
X0256300Y0151000D03*
X0256300Y0153500D03*
X0278700Y0153500D03*
X0278700Y0151000D03*
X0278700Y0148400D03*
X0278700Y0145800D03*
X0278700Y0143300D03*
X0278700Y0140700D03*
X0278700Y0138200D03*
X0278700Y0135600D03*
X0278700Y0133000D03*
X0278700Y0130500D03*
D11*
X0082500Y0202500D03*
X0082500Y0012500D03*
D12*
X0092500Y0012500D03*
X0102500Y0012500D03*
X0112500Y0012500D03*
X0122500Y0012500D03*
X0132500Y0012500D03*
X0142500Y0012500D03*
X0152500Y0012500D03*
X0162500Y0012500D03*
X0172500Y0012500D03*
X0182500Y0012500D03*
X0192500Y0012500D03*
X0202500Y0012500D03*
X0212500Y0012500D03*
X0222500Y0012500D03*
X0232500Y0012500D03*
X0242500Y0012500D03*
X0252500Y0012500D03*
X0262500Y0012500D03*
X0272500Y0012500D03*
X0282500Y0012500D03*
X0292500Y0012500D03*
X0302500Y0012500D03*
X0302500Y0022500D03*
X0292500Y0022500D03*
X0282500Y0022500D03*
X0272500Y0022500D03*
X0262500Y0022500D03*
X0252500Y0022500D03*
X0242500Y0022500D03*
X0232500Y0022500D03*
X0222500Y0022500D03*
X0212500Y0022500D03*
X0202500Y0022500D03*
X0192500Y0022500D03*
X0182500Y0022500D03*
X0172500Y0022500D03*
X0162500Y0022500D03*
X0152500Y0022500D03*
X0142500Y0022500D03*
X0132500Y0022500D03*
X0122500Y0022500D03*
X0112500Y0022500D03*
X0102500Y0022500D03*
X0092500Y0022500D03*
X0082500Y0022500D03*
X0092500Y0202500D03*
X0102500Y0202500D03*
X0112500Y0202500D03*
X0122500Y0202500D03*
X0132500Y0202500D03*
X0142500Y0202500D03*
X0152500Y0202500D03*
X0162500Y0202500D03*
X0172500Y0202500D03*
X0182500Y0202500D03*
X0192500Y0202500D03*
X0202500Y0202500D03*
X0212500Y0202500D03*
X0222500Y0202500D03*
X0232500Y0202500D03*
X0242500Y0202500D03*
X0252500Y0202500D03*
X0262500Y0202500D03*
X0272500Y0202500D03*
X0282500Y0202500D03*
X0292500Y0202500D03*
X0302500Y0202500D03*
X0302500Y0212500D03*
X0292500Y0212500D03*
X0282500Y0212500D03*
X0272500Y0212500D03*
X0262500Y0212500D03*
X0252500Y0212500D03*
X0242500Y0212500D03*
X0232500Y0212500D03*
X0222500Y0212500D03*
X0212500Y0212500D03*
X0202500Y0212500D03*
X0192500Y0212500D03*
X0182500Y0212500D03*
X0172500Y0212500D03*
X0162500Y0212500D03*
X0152500Y0212500D03*
X0142500Y0212500D03*
X0132500Y0212500D03*
X0122500Y0212500D03*
X0112500Y0212500D03*
X0102500Y0212500D03*
X0092500Y0212500D03*
X0082500Y0212500D03*
D13*
X0050000Y0085000D02*
X0050000Y0017500D01*
X0056250Y0017500D02*
X0056252Y0017658D01*
X0056258Y0017815D01*
X0056268Y0017973D01*
X0056282Y0018130D01*
X0056300Y0018286D01*
X0056321Y0018443D01*
X0056347Y0018598D01*
X0056377Y0018753D01*
X0056410Y0018907D01*
X0056448Y0019060D01*
X0056489Y0019213D01*
X0056534Y0019364D01*
X0056583Y0019514D01*
X0056636Y0019662D01*
X0056692Y0019810D01*
X0056753Y0019955D01*
X0056816Y0020100D01*
X0056884Y0020242D01*
X0056955Y0020383D01*
X0057029Y0020522D01*
X0057107Y0020659D01*
X0057189Y0020794D01*
X0057273Y0020927D01*
X0057362Y0021058D01*
X0057453Y0021186D01*
X0057548Y0021313D01*
X0057645Y0021436D01*
X0057746Y0021558D01*
X0057850Y0021676D01*
X0057957Y0021792D01*
X0058067Y0021905D01*
X0058179Y0022016D01*
X0058295Y0022123D01*
X0058413Y0022228D01*
X0058533Y0022330D01*
X0058656Y0022428D01*
X0058782Y0022524D01*
X0058910Y0022616D01*
X0059040Y0022705D01*
X0059172Y0022791D01*
X0059307Y0022873D01*
X0059444Y0022952D01*
X0059582Y0023027D01*
X0059722Y0023099D01*
X0059865Y0023167D01*
X0060008Y0023232D01*
X0060154Y0023293D01*
X0060301Y0023350D01*
X0060449Y0023404D01*
X0060599Y0023454D01*
X0060749Y0023500D01*
X0060901Y0023542D01*
X0061054Y0023581D01*
X0061208Y0023615D01*
X0061363Y0023646D01*
X0061518Y0023672D01*
X0061674Y0023695D01*
X0061831Y0023714D01*
X0061988Y0023729D01*
X0062145Y0023740D01*
X0062303Y0023747D01*
X0062461Y0023750D01*
X0062618Y0023749D01*
X0062776Y0023744D01*
X0062933Y0023735D01*
X0063091Y0023722D01*
X0063247Y0023705D01*
X0063404Y0023684D01*
X0063559Y0023660D01*
X0063714Y0023631D01*
X0063869Y0023598D01*
X0064022Y0023562D01*
X0064175Y0023521D01*
X0064326Y0023477D01*
X0064476Y0023429D01*
X0064625Y0023378D01*
X0064773Y0023322D01*
X0064919Y0023263D01*
X0065064Y0023200D01*
X0065207Y0023133D01*
X0065348Y0023063D01*
X0065487Y0022990D01*
X0065625Y0022913D01*
X0065761Y0022832D01*
X0065894Y0022748D01*
X0066025Y0022661D01*
X0066154Y0022570D01*
X0066281Y0022476D01*
X0066406Y0022379D01*
X0066527Y0022279D01*
X0066647Y0022176D01*
X0066763Y0022070D01*
X0066877Y0021961D01*
X0066989Y0021849D01*
X0067097Y0021735D01*
X0067202Y0021617D01*
X0067305Y0021497D01*
X0067404Y0021375D01*
X0067500Y0021250D01*
X0067593Y0021122D01*
X0067683Y0020993D01*
X0067769Y0020861D01*
X0067853Y0020727D01*
X0067932Y0020591D01*
X0068009Y0020453D01*
X0068081Y0020313D01*
X0068150Y0020171D01*
X0068216Y0020028D01*
X0068278Y0019883D01*
X0068336Y0019736D01*
X0068391Y0019588D01*
X0068442Y0019439D01*
X0068489Y0019288D01*
X0068532Y0019137D01*
X0068571Y0018984D01*
X0068607Y0018830D01*
X0068638Y0018676D01*
X0068666Y0018521D01*
X0068690Y0018365D01*
X0068710Y0018208D01*
X0068726Y0018051D01*
X0068738Y0017894D01*
X0068746Y0017737D01*
X0068750Y0017579D01*
X0068750Y0017421D01*
X0068746Y0017263D01*
X0068738Y0017106D01*
X0068726Y0016949D01*
X0068710Y0016792D01*
X0068690Y0016635D01*
X0068666Y0016479D01*
X0068638Y0016324D01*
X0068607Y0016170D01*
X0068571Y0016016D01*
X0068532Y0015863D01*
X0068489Y0015712D01*
X0068442Y0015561D01*
X0068391Y0015412D01*
X0068336Y0015264D01*
X0068278Y0015117D01*
X0068216Y0014972D01*
X0068150Y0014829D01*
X0068081Y0014687D01*
X0068009Y0014547D01*
X0067932Y0014409D01*
X0067853Y0014273D01*
X0067769Y0014139D01*
X0067683Y0014007D01*
X0067593Y0013878D01*
X0067500Y0013750D01*
X0067404Y0013625D01*
X0067305Y0013503D01*
X0067202Y0013383D01*
X0067097Y0013265D01*
X0066989Y0013151D01*
X0066877Y0013039D01*
X0066763Y0012930D01*
X0066647Y0012824D01*
X0066527Y0012721D01*
X0066406Y0012621D01*
X0066281Y0012524D01*
X0066154Y0012430D01*
X0066025Y0012339D01*
X0065894Y0012252D01*
X0065761Y0012168D01*
X0065625Y0012087D01*
X0065487Y0012010D01*
X0065348Y0011937D01*
X0065207Y0011867D01*
X0065064Y0011800D01*
X0064919Y0011737D01*
X0064773Y0011678D01*
X0064625Y0011622D01*
X0064476Y0011571D01*
X0064326Y0011523D01*
X0064175Y0011479D01*
X0064022Y0011438D01*
X0063869Y0011402D01*
X0063714Y0011369D01*
X0063559Y0011340D01*
X0063404Y0011316D01*
X0063247Y0011295D01*
X0063091Y0011278D01*
X0062933Y0011265D01*
X0062776Y0011256D01*
X0062618Y0011251D01*
X0062461Y0011250D01*
X0062303Y0011253D01*
X0062145Y0011260D01*
X0061988Y0011271D01*
X0061831Y0011286D01*
X0061674Y0011305D01*
X0061518Y0011328D01*
X0061363Y0011354D01*
X0061208Y0011385D01*
X0061054Y0011419D01*
X0060901Y0011458D01*
X0060749Y0011500D01*
X0060599Y0011546D01*
X0060449Y0011596D01*
X0060301Y0011650D01*
X0060154Y0011707D01*
X0060008Y0011768D01*
X0059865Y0011833D01*
X0059722Y0011901D01*
X0059582Y0011973D01*
X0059444Y0012048D01*
X0059307Y0012127D01*
X0059172Y0012209D01*
X0059040Y0012295D01*
X0058910Y0012384D01*
X0058782Y0012476D01*
X0058656Y0012572D01*
X0058533Y0012670D01*
X0058413Y0012772D01*
X0058295Y0012877D01*
X0058179Y0012984D01*
X0058067Y0013095D01*
X0057957Y0013208D01*
X0057850Y0013324D01*
X0057746Y0013442D01*
X0057645Y0013564D01*
X0057548Y0013687D01*
X0057453Y0013814D01*
X0057362Y0013942D01*
X0057273Y0014073D01*
X0057189Y0014206D01*
X0057107Y0014341D01*
X0057029Y0014478D01*
X0056955Y0014617D01*
X0056884Y0014758D01*
X0056816Y0014900D01*
X0056753Y0015045D01*
X0056692Y0015190D01*
X0056636Y0015338D01*
X0056583Y0015486D01*
X0056534Y0015636D01*
X0056489Y0015787D01*
X0056448Y0015940D01*
X0056410Y0016093D01*
X0056377Y0016247D01*
X0056347Y0016402D01*
X0056321Y0016557D01*
X0056300Y0016714D01*
X0056282Y0016870D01*
X0056268Y0017027D01*
X0056258Y0017185D01*
X0056252Y0017342D01*
X0056250Y0017500D01*
X0050000Y0017500D02*
X0050004Y0017198D01*
X0050015Y0016896D01*
X0050033Y0016595D01*
X0050058Y0016294D01*
X0050091Y0015993D01*
X0050131Y0015694D01*
X0050178Y0015396D01*
X0050233Y0015098D01*
X0050294Y0014803D01*
X0050363Y0014509D01*
X0050439Y0014216D01*
X0050522Y0013926D01*
X0050612Y0013637D01*
X0050709Y0013351D01*
X0050812Y0013067D01*
X0050923Y0012786D01*
X0051040Y0012508D01*
X0051164Y0012232D01*
X0051295Y0011960D01*
X0051432Y0011691D01*
X0051575Y0011425D01*
X0051725Y0011163D01*
X0051882Y0010904D01*
X0052044Y0010650D01*
X0052213Y0010399D01*
X0052387Y0010153D01*
X0052568Y0009910D01*
X0052754Y0009673D01*
X0052946Y0009439D01*
X0053144Y0009211D01*
X0053347Y0008987D01*
X0053555Y0008769D01*
X0053769Y0008555D01*
X0053987Y0008347D01*
X0054211Y0008144D01*
X0054439Y0007946D01*
X0054673Y0007754D01*
X0054910Y0007568D01*
X0055153Y0007387D01*
X0055399Y0007213D01*
X0055650Y0007044D01*
X0055904Y0006882D01*
X0056163Y0006725D01*
X0056425Y0006575D01*
X0056691Y0006432D01*
X0056960Y0006295D01*
X0057232Y0006164D01*
X0057508Y0006040D01*
X0057786Y0005923D01*
X0058067Y0005812D01*
X0058351Y0005709D01*
X0058637Y0005612D01*
X0058926Y0005522D01*
X0059216Y0005439D01*
X0059509Y0005363D01*
X0059803Y0005294D01*
X0060098Y0005233D01*
X0060396Y0005178D01*
X0060694Y0005131D01*
X0060993Y0005091D01*
X0061294Y0005058D01*
X0061595Y0005033D01*
X0061896Y0005015D01*
X0062198Y0005004D01*
X0062500Y0005000D01*
X0295000Y0005000D01*
X0296208Y0005015D01*
X0297416Y0005058D01*
X0298622Y0005131D01*
X0299826Y0005233D01*
X0301027Y0005365D01*
X0302224Y0005525D01*
X0303418Y0005714D01*
X0304606Y0005931D01*
X0305789Y0006178D01*
X0306966Y0006453D01*
X0308135Y0006756D01*
X0309297Y0007088D01*
X0310451Y0007447D01*
X0311595Y0007834D01*
X0312730Y0008249D01*
X0313855Y0008691D01*
X0314968Y0009160D01*
X0316070Y0009656D01*
X0317160Y0010179D01*
X0318236Y0010727D01*
X0319299Y0011302D01*
X0320348Y0011902D01*
X0321382Y0012527D01*
X0322401Y0013176D01*
X0323403Y0013851D01*
X0324389Y0014549D01*
X0325358Y0015271D01*
X0326309Y0016016D01*
X0327242Y0016784D01*
X0328156Y0017574D01*
X0329051Y0018387D01*
X0329926Y0019220D01*
X0330780Y0020074D01*
X0331613Y0020949D01*
X0332426Y0021844D01*
X0333216Y0022758D01*
X0333984Y0023691D01*
X0334729Y0024642D01*
X0335451Y0025611D01*
X0336149Y0026597D01*
X0336824Y0027599D01*
X0337473Y0028618D01*
X0338098Y0029652D01*
X0338698Y0030701D01*
X0339273Y0031764D01*
X0339821Y0032840D01*
X0340344Y0033930D01*
X0340840Y0035032D01*
X0341309Y0036145D01*
X0341751Y0037270D01*
X0342166Y0038405D01*
X0342553Y0039549D01*
X0342912Y0040703D01*
X0343244Y0041865D01*
X0343547Y0043034D01*
X0343822Y0044211D01*
X0344069Y0045394D01*
X0344286Y0046582D01*
X0344475Y0047776D01*
X0344635Y0048973D01*
X0344767Y0050174D01*
X0344869Y0051378D01*
X0344942Y0052584D01*
X0344985Y0053792D01*
X0345000Y0055000D01*
X0345000Y0170000D01*
X0344985Y0171208D01*
X0344942Y0172416D01*
X0344869Y0173622D01*
X0344767Y0174826D01*
X0344635Y0176027D01*
X0344475Y0177224D01*
X0344286Y0178418D01*
X0344069Y0179606D01*
X0343822Y0180789D01*
X0343547Y0181966D01*
X0343244Y0183135D01*
X0342912Y0184297D01*
X0342553Y0185451D01*
X0342166Y0186595D01*
X0341751Y0187730D01*
X0341309Y0188855D01*
X0340840Y0189968D01*
X0340344Y0191070D01*
X0339821Y0192160D01*
X0339273Y0193236D01*
X0338698Y0194299D01*
X0338098Y0195348D01*
X0337473Y0196382D01*
X0336824Y0197401D01*
X0336149Y0198403D01*
X0335451Y0199389D01*
X0334729Y0200358D01*
X0333984Y0201309D01*
X0333216Y0202242D01*
X0332426Y0203156D01*
X0331613Y0204051D01*
X0330780Y0204926D01*
X0329926Y0205780D01*
X0329051Y0206613D01*
X0328156Y0207426D01*
X0327242Y0208216D01*
X0326309Y0208984D01*
X0325358Y0209729D01*
X0324389Y0210451D01*
X0323403Y0211149D01*
X0322401Y0211824D01*
X0321382Y0212473D01*
X0320348Y0213098D01*
X0319299Y0213698D01*
X0318236Y0214273D01*
X0317160Y0214821D01*
X0316070Y0215344D01*
X0314968Y0215840D01*
X0313855Y0216309D01*
X0312730Y0216751D01*
X0311595Y0217166D01*
X0310451Y0217553D01*
X0309297Y0217912D01*
X0308135Y0218244D01*
X0306966Y0218547D01*
X0305789Y0218822D01*
X0304606Y0219069D01*
X0303418Y0219286D01*
X0302224Y0219475D01*
X0301027Y0219635D01*
X0299826Y0219767D01*
X0298622Y0219869D01*
X0297416Y0219942D01*
X0296208Y0219985D01*
X0295000Y0220000D01*
X0062500Y0220000D01*
X0056250Y0207500D02*
X0056252Y0207658D01*
X0056258Y0207815D01*
X0056268Y0207973D01*
X0056282Y0208130D01*
X0056300Y0208286D01*
X0056321Y0208443D01*
X0056347Y0208598D01*
X0056377Y0208753D01*
X0056410Y0208907D01*
X0056448Y0209060D01*
X0056489Y0209213D01*
X0056534Y0209364D01*
X0056583Y0209514D01*
X0056636Y0209662D01*
X0056692Y0209810D01*
X0056753Y0209955D01*
X0056816Y0210100D01*
X0056884Y0210242D01*
X0056955Y0210383D01*
X0057029Y0210522D01*
X0057107Y0210659D01*
X0057189Y0210794D01*
X0057273Y0210927D01*
X0057362Y0211058D01*
X0057453Y0211186D01*
X0057548Y0211313D01*
X0057645Y0211436D01*
X0057746Y0211558D01*
X0057850Y0211676D01*
X0057957Y0211792D01*
X0058067Y0211905D01*
X0058179Y0212016D01*
X0058295Y0212123D01*
X0058413Y0212228D01*
X0058533Y0212330D01*
X0058656Y0212428D01*
X0058782Y0212524D01*
X0058910Y0212616D01*
X0059040Y0212705D01*
X0059172Y0212791D01*
X0059307Y0212873D01*
X0059444Y0212952D01*
X0059582Y0213027D01*
X0059722Y0213099D01*
X0059865Y0213167D01*
X0060008Y0213232D01*
X0060154Y0213293D01*
X0060301Y0213350D01*
X0060449Y0213404D01*
X0060599Y0213454D01*
X0060749Y0213500D01*
X0060901Y0213542D01*
X0061054Y0213581D01*
X0061208Y0213615D01*
X0061363Y0213646D01*
X0061518Y0213672D01*
X0061674Y0213695D01*
X0061831Y0213714D01*
X0061988Y0213729D01*
X0062145Y0213740D01*
X0062303Y0213747D01*
X0062461Y0213750D01*
X0062618Y0213749D01*
X0062776Y0213744D01*
X0062933Y0213735D01*
X0063091Y0213722D01*
X0063247Y0213705D01*
X0063404Y0213684D01*
X0063559Y0213660D01*
X0063714Y0213631D01*
X0063869Y0213598D01*
X0064022Y0213562D01*
X0064175Y0213521D01*
X0064326Y0213477D01*
X0064476Y0213429D01*
X0064625Y0213378D01*
X0064773Y0213322D01*
X0064919Y0213263D01*
X0065064Y0213200D01*
X0065207Y0213133D01*
X0065348Y0213063D01*
X0065487Y0212990D01*
X0065625Y0212913D01*
X0065761Y0212832D01*
X0065894Y0212748D01*
X0066025Y0212661D01*
X0066154Y0212570D01*
X0066281Y0212476D01*
X0066406Y0212379D01*
X0066527Y0212279D01*
X0066647Y0212176D01*
X0066763Y0212070D01*
X0066877Y0211961D01*
X0066989Y0211849D01*
X0067097Y0211735D01*
X0067202Y0211617D01*
X0067305Y0211497D01*
X0067404Y0211375D01*
X0067500Y0211250D01*
X0067593Y0211122D01*
X0067683Y0210993D01*
X0067769Y0210861D01*
X0067853Y0210727D01*
X0067932Y0210591D01*
X0068009Y0210453D01*
X0068081Y0210313D01*
X0068150Y0210171D01*
X0068216Y0210028D01*
X0068278Y0209883D01*
X0068336Y0209736D01*
X0068391Y0209588D01*
X0068442Y0209439D01*
X0068489Y0209288D01*
X0068532Y0209137D01*
X0068571Y0208984D01*
X0068607Y0208830D01*
X0068638Y0208676D01*
X0068666Y0208521D01*
X0068690Y0208365D01*
X0068710Y0208208D01*
X0068726Y0208051D01*
X0068738Y0207894D01*
X0068746Y0207737D01*
X0068750Y0207579D01*
X0068750Y0207421D01*
X0068746Y0207263D01*
X0068738Y0207106D01*
X0068726Y0206949D01*
X0068710Y0206792D01*
X0068690Y0206635D01*
X0068666Y0206479D01*
X0068638Y0206324D01*
X0068607Y0206170D01*
X0068571Y0206016D01*
X0068532Y0205863D01*
X0068489Y0205712D01*
X0068442Y0205561D01*
X0068391Y0205412D01*
X0068336Y0205264D01*
X0068278Y0205117D01*
X0068216Y0204972D01*
X0068150Y0204829D01*
X0068081Y0204687D01*
X0068009Y0204547D01*
X0067932Y0204409D01*
X0067853Y0204273D01*
X0067769Y0204139D01*
X0067683Y0204007D01*
X0067593Y0203878D01*
X0067500Y0203750D01*
X0067404Y0203625D01*
X0067305Y0203503D01*
X0067202Y0203383D01*
X0067097Y0203265D01*
X0066989Y0203151D01*
X0066877Y0203039D01*
X0066763Y0202930D01*
X0066647Y0202824D01*
X0066527Y0202721D01*
X0066406Y0202621D01*
X0066281Y0202524D01*
X0066154Y0202430D01*
X0066025Y0202339D01*
X0065894Y0202252D01*
X0065761Y0202168D01*
X0065625Y0202087D01*
X0065487Y0202010D01*
X0065348Y0201937D01*
X0065207Y0201867D01*
X0065064Y0201800D01*
X0064919Y0201737D01*
X0064773Y0201678D01*
X0064625Y0201622D01*
X0064476Y0201571D01*
X0064326Y0201523D01*
X0064175Y0201479D01*
X0064022Y0201438D01*
X0063869Y0201402D01*
X0063714Y0201369D01*
X0063559Y0201340D01*
X0063404Y0201316D01*
X0063247Y0201295D01*
X0063091Y0201278D01*
X0062933Y0201265D01*
X0062776Y0201256D01*
X0062618Y0201251D01*
X0062461Y0201250D01*
X0062303Y0201253D01*
X0062145Y0201260D01*
X0061988Y0201271D01*
X0061831Y0201286D01*
X0061674Y0201305D01*
X0061518Y0201328D01*
X0061363Y0201354D01*
X0061208Y0201385D01*
X0061054Y0201419D01*
X0060901Y0201458D01*
X0060749Y0201500D01*
X0060599Y0201546D01*
X0060449Y0201596D01*
X0060301Y0201650D01*
X0060154Y0201707D01*
X0060008Y0201768D01*
X0059865Y0201833D01*
X0059722Y0201901D01*
X0059582Y0201973D01*
X0059444Y0202048D01*
X0059307Y0202127D01*
X0059172Y0202209D01*
X0059040Y0202295D01*
X0058910Y0202384D01*
X0058782Y0202476D01*
X0058656Y0202572D01*
X0058533Y0202670D01*
X0058413Y0202772D01*
X0058295Y0202877D01*
X0058179Y0202984D01*
X0058067Y0203095D01*
X0057957Y0203208D01*
X0057850Y0203324D01*
X0057746Y0203442D01*
X0057645Y0203564D01*
X0057548Y0203687D01*
X0057453Y0203814D01*
X0057362Y0203942D01*
X0057273Y0204073D01*
X0057189Y0204206D01*
X0057107Y0204341D01*
X0057029Y0204478D01*
X0056955Y0204617D01*
X0056884Y0204758D01*
X0056816Y0204900D01*
X0056753Y0205045D01*
X0056692Y0205190D01*
X0056636Y0205338D01*
X0056583Y0205486D01*
X0056534Y0205636D01*
X0056489Y0205787D01*
X0056448Y0205940D01*
X0056410Y0206093D01*
X0056377Y0206247D01*
X0056347Y0206402D01*
X0056321Y0206557D01*
X0056300Y0206714D01*
X0056282Y0206870D01*
X0056268Y0207027D01*
X0056258Y0207185D01*
X0056252Y0207342D01*
X0056250Y0207500D01*
X0050000Y0207500D02*
X0050000Y0160000D01*
X0050002Y0159902D01*
X0050008Y0159804D01*
X0050017Y0159706D01*
X0050031Y0159609D01*
X0050048Y0159512D01*
X0050069Y0159416D01*
X0050094Y0159321D01*
X0050122Y0159227D01*
X0050155Y0159135D01*
X0050190Y0159043D01*
X0050230Y0158953D01*
X0050272Y0158865D01*
X0050319Y0158778D01*
X0050368Y0158694D01*
X0050421Y0158611D01*
X0050477Y0158531D01*
X0050537Y0158452D01*
X0050599Y0158376D01*
X0050664Y0158303D01*
X0050732Y0158232D01*
X0050803Y0158164D01*
X0050876Y0158099D01*
X0050952Y0158037D01*
X0051031Y0157977D01*
X0051111Y0157921D01*
X0051194Y0157868D01*
X0051278Y0157819D01*
X0051365Y0157772D01*
X0051453Y0157730D01*
X0051543Y0157690D01*
X0051635Y0157655D01*
X0051727Y0157622D01*
X0051821Y0157594D01*
X0051916Y0157569D01*
X0052012Y0157548D01*
X0052109Y0157531D01*
X0052206Y0157517D01*
X0052304Y0157508D01*
X0052402Y0157502D01*
X0052500Y0157500D01*
X0084000Y0157500D01*
X0084060Y0157498D01*
X0084121Y0157493D01*
X0084180Y0157484D01*
X0084239Y0157471D01*
X0084298Y0157455D01*
X0084355Y0157435D01*
X0084410Y0157412D01*
X0084465Y0157385D01*
X0084517Y0157356D01*
X0084568Y0157323D01*
X0084617Y0157287D01*
X0084663Y0157249D01*
X0084707Y0157207D01*
X0084749Y0157163D01*
X0084787Y0157117D01*
X0084823Y0157068D01*
X0084856Y0157017D01*
X0084885Y0156965D01*
X0084912Y0156910D01*
X0084935Y0156855D01*
X0084955Y0156798D01*
X0084971Y0156739D01*
X0084984Y0156680D01*
X0084993Y0156621D01*
X0084998Y0156560D01*
X0085000Y0156500D01*
X0085000Y0088500D01*
X0084998Y0088440D01*
X0084993Y0088379D01*
X0084984Y0088320D01*
X0084971Y0088261D01*
X0084955Y0088202D01*
X0084935Y0088145D01*
X0084912Y0088090D01*
X0084885Y0088035D01*
X0084856Y0087983D01*
X0084823Y0087932D01*
X0084787Y0087883D01*
X0084749Y0087837D01*
X0084707Y0087793D01*
X0084663Y0087751D01*
X0084617Y0087713D01*
X0084568Y0087677D01*
X0084517Y0087644D01*
X0084465Y0087615D01*
X0084410Y0087588D01*
X0084355Y0087565D01*
X0084298Y0087545D01*
X0084239Y0087529D01*
X0084180Y0087516D01*
X0084121Y0087507D01*
X0084060Y0087502D01*
X0084000Y0087500D01*
X0052500Y0087500D01*
X0052402Y0087498D01*
X0052304Y0087492D01*
X0052206Y0087483D01*
X0052109Y0087469D01*
X0052012Y0087452D01*
X0051916Y0087431D01*
X0051821Y0087406D01*
X0051727Y0087378D01*
X0051635Y0087345D01*
X0051543Y0087310D01*
X0051453Y0087270D01*
X0051365Y0087228D01*
X0051278Y0087181D01*
X0051194Y0087132D01*
X0051111Y0087079D01*
X0051031Y0087023D01*
X0050952Y0086963D01*
X0050876Y0086901D01*
X0050803Y0086836D01*
X0050732Y0086768D01*
X0050664Y0086697D01*
X0050599Y0086624D01*
X0050537Y0086548D01*
X0050477Y0086469D01*
X0050421Y0086389D01*
X0050368Y0086306D01*
X0050319Y0086222D01*
X0050272Y0086135D01*
X0050230Y0086047D01*
X0050190Y0085957D01*
X0050155Y0085865D01*
X0050122Y0085773D01*
X0050094Y0085679D01*
X0050069Y0085584D01*
X0050048Y0085488D01*
X0050031Y0085391D01*
X0050017Y0085294D01*
X0050008Y0085196D01*
X0050002Y0085098D01*
X0050000Y0085000D01*
X0050000Y0207500D02*
X0050004Y0207802D01*
X0050015Y0208104D01*
X0050033Y0208405D01*
X0050058Y0208706D01*
X0050091Y0209007D01*
X0050131Y0209306D01*
X0050178Y0209604D01*
X0050233Y0209902D01*
X0050294Y0210197D01*
X0050363Y0210491D01*
X0050439Y0210784D01*
X0050522Y0211074D01*
X0050612Y0211363D01*
X0050709Y0211649D01*
X0050812Y0211933D01*
X0050923Y0212214D01*
X0051040Y0212492D01*
X0051164Y0212768D01*
X0051295Y0213040D01*
X0051432Y0213309D01*
X0051575Y0213575D01*
X0051725Y0213837D01*
X0051882Y0214096D01*
X0052044Y0214350D01*
X0052213Y0214601D01*
X0052387Y0214847D01*
X0052568Y0215090D01*
X0052754Y0215327D01*
X0052946Y0215561D01*
X0053144Y0215789D01*
X0053347Y0216013D01*
X0053555Y0216231D01*
X0053769Y0216445D01*
X0053987Y0216653D01*
X0054211Y0216856D01*
X0054439Y0217054D01*
X0054673Y0217246D01*
X0054910Y0217432D01*
X0055153Y0217613D01*
X0055399Y0217787D01*
X0055650Y0217956D01*
X0055904Y0218118D01*
X0056163Y0218275D01*
X0056425Y0218425D01*
X0056691Y0218568D01*
X0056960Y0218705D01*
X0057232Y0218836D01*
X0057508Y0218960D01*
X0057786Y0219077D01*
X0058067Y0219188D01*
X0058351Y0219291D01*
X0058637Y0219388D01*
X0058926Y0219478D01*
X0059216Y0219561D01*
X0059509Y0219637D01*
X0059803Y0219706D01*
X0060098Y0219767D01*
X0060396Y0219822D01*
X0060694Y0219869D01*
X0060993Y0219909D01*
X0061294Y0219942D01*
X0061595Y0219967D01*
X0061896Y0219985D01*
X0062198Y0219996D01*
X0062500Y0220000D01*
D14*
X0062500Y0207500D03*
X0062500Y0017500D03*
D15*
X0297500Y0172500D03*
X0230000Y0184500D03*
D16*
X0220000Y0184500D03*
X0210000Y0184500D03*
X0200000Y0184500D03*
X0190000Y0184500D03*
X0180000Y0184500D03*
X0170000Y0184500D03*
X0160000Y0184500D03*
X0150000Y0184500D03*
X0140000Y0184500D03*
X0130000Y0184500D03*
X0120000Y0184500D03*
X0110000Y0184500D03*
X0110000Y0174500D03*
X0120000Y0174500D03*
X0130000Y0174500D03*
X0140000Y0174500D03*
X0150000Y0174500D03*
X0160000Y0174500D03*
X0170000Y0174500D03*
X0180000Y0174500D03*
X0190000Y0174500D03*
X0200000Y0174500D03*
X0210000Y0174500D03*
X0220000Y0174500D03*
X0230000Y0174500D03*
X0297500Y0162500D03*
X0307500Y0162500D03*
X0307500Y0172500D03*
X0307500Y0152500D03*
X0297500Y0152500D03*
X0297500Y0142500D03*
X0307500Y0142500D03*
X0307500Y0132500D03*
X0297500Y0132500D03*
X0297500Y0122500D03*
X0307500Y0122500D03*
X0307500Y0112500D03*
X0297500Y0112500D03*
X0297500Y0102500D03*
X0307500Y0102500D03*
X0307500Y0092500D03*
X0297500Y0092500D03*
X0297500Y0082500D03*
X0307500Y0082500D03*
X0307500Y0072500D03*
X0297500Y0072500D03*
X0297500Y0062500D03*
X0307500Y0062500D03*
X0307500Y0052500D03*
X0297500Y0052500D03*
D17*
X0170300Y0054000D03*
X0170300Y0049000D03*
X0170300Y0059000D03*
X0170300Y0064000D03*
X0149700Y0064000D03*
X0149700Y0059000D03*
X0149700Y0054000D03*
X0149700Y0049000D03*
X0114300Y0049000D03*
X0114300Y0044000D03*
X0114300Y0039000D03*
X0114300Y0034000D03*
X0093700Y0034000D03*
X0093700Y0039000D03*
X0093700Y0044000D03*
X0093700Y0049000D03*
D18*
X0095957Y0058000D03*
X0103043Y0058000D03*
X0103043Y0067500D03*
X0095957Y0067500D03*
X0145957Y0042000D03*
X0153043Y0042000D03*
X0239457Y0044500D03*
X0246543Y0044500D03*
X0273957Y0122000D03*
X0281043Y0122000D03*
X0281043Y0162000D03*
X0273957Y0162000D03*
X0087543Y0183500D03*
X0080457Y0183500D03*
X0080457Y0191500D03*
X0074543Y0191500D03*
X0067457Y0191500D03*
X0061543Y0191500D03*
X0054457Y0191500D03*
X0087543Y0191500D03*
D19*
X0255000Y0169043D03*
X0255000Y0161957D03*
X0125000Y0052043D03*
X0125000Y0044957D03*
X0132500Y0041043D03*
X0125000Y0037543D03*
X0132500Y0033957D03*
X0125000Y0030457D03*
X0253500Y0030457D03*
X0260500Y0030457D03*
X0267500Y0030457D03*
X0274500Y0030457D03*
X0281500Y0030457D03*
X0281500Y0037543D03*
X0274500Y0037543D03*
X0267500Y0037543D03*
X0260500Y0037543D03*
X0253500Y0037543D03*
D20*
X0277500Y0172500D03*
X0277500Y0182500D03*
X0277500Y0192500D03*
D21*
X0141000Y0065000D03*
X0141000Y0058000D03*
D22*
X0133000Y0046500D03*
D23*
X0064000Y0050610D03*
X0064000Y0036831D03*
X0064000Y0064390D03*
X0064000Y0078169D03*
X0064000Y0166610D03*
X0064000Y0180390D03*
D24*
X0089937Y0063240D03*
X0082063Y0059500D03*
X0089937Y0055760D03*
M02*
