G75*
%MOIN*%
%OFA0B0*%
%FSLAX25Y25*%
%IPPOS*%
%LPD*%
%AMOC8*
5,1,8,0,0,1.08239X$1,22.5*
%
%ADD10C,0.00300*%
%ADD11C,0.00500*%
%ADD12C,0.00600*%
%ADD13C,0.00400*%
%ADD14C,0.00000*%
%ADD15C,0.00800*%
%ADD16C,0.00200*%
%ADD17C,0.01600*%
%ADD18R,0.02300X0.01600*%
%ADD19C,0.00591*%
D10*
X0079648Y0036284D02*
X0079648Y0037735D01*
X0080131Y0038219D01*
X0081099Y0038219D01*
X0081583Y0037735D01*
X0081583Y0036284D01*
X0082550Y0036284D02*
X0079648Y0036284D01*
X0080131Y0039230D02*
X0082066Y0039230D01*
X0082550Y0039714D01*
X0082550Y0040681D01*
X0082066Y0041165D01*
X0080131Y0041165D01*
X0079648Y0040681D01*
X0079648Y0039714D01*
X0080131Y0039230D01*
X0084448Y0039692D02*
X0086866Y0039692D01*
X0087350Y0039208D01*
X0087350Y0038241D01*
X0086866Y0037757D01*
X0084448Y0037757D01*
X0084931Y0036745D02*
X0085415Y0036745D01*
X0085899Y0036262D01*
X0085899Y0034810D01*
X0087350Y0034810D02*
X0084448Y0034810D01*
X0084448Y0036262D01*
X0084931Y0036745D01*
X0085899Y0036262D02*
X0086383Y0036745D01*
X0086866Y0036745D01*
X0087350Y0036262D01*
X0087350Y0034810D01*
X0084448Y0040703D02*
X0084448Y0042638D01*
X0084448Y0041671D02*
X0087350Y0041671D01*
X0084448Y0043650D02*
X0084448Y0045585D01*
X0084448Y0044617D02*
X0087350Y0044617D01*
X0086866Y0046597D02*
X0084931Y0046597D01*
X0084448Y0047080D01*
X0084448Y0048048D01*
X0084931Y0048531D01*
X0086866Y0048531D01*
X0087350Y0048048D01*
X0087350Y0047080D01*
X0086866Y0046597D01*
X0087350Y0049543D02*
X0084448Y0049543D01*
X0087350Y0051478D01*
X0084448Y0051478D01*
X0082550Y0050005D02*
X0081583Y0049037D01*
X0081583Y0049521D02*
X0081583Y0048070D01*
X0082550Y0048070D02*
X0079648Y0048070D01*
X0079648Y0049521D01*
X0080131Y0050005D01*
X0081099Y0050005D01*
X0081583Y0049521D01*
X0082550Y0047058D02*
X0082550Y0045123D01*
X0079648Y0045123D01*
X0079648Y0047058D01*
X0081099Y0046091D02*
X0081099Y0045123D01*
X0082550Y0044112D02*
X0079648Y0044112D01*
X0079648Y0042177D02*
X0082550Y0042177D01*
X0081583Y0043144D01*
X0082550Y0044112D01*
X0081099Y0068784D02*
X0081099Y0070719D01*
X0084448Y0071730D02*
X0087350Y0071730D01*
X0087350Y0073665D01*
X0087350Y0074677D02*
X0087350Y0076612D01*
X0087350Y0077623D02*
X0084448Y0077623D01*
X0084448Y0079074D01*
X0084931Y0079558D01*
X0086866Y0079558D01*
X0087350Y0079074D01*
X0087350Y0077623D01*
X0085899Y0075644D02*
X0085899Y0074677D01*
X0084448Y0074677D02*
X0087350Y0074677D01*
X0084448Y0074677D02*
X0084448Y0076612D01*
X0081099Y0080570D02*
X0081099Y0082505D01*
X0080131Y0081537D02*
X0082066Y0081537D01*
X0136650Y0048353D02*
X0136650Y0044650D01*
X0137884Y0045884D01*
X0139119Y0044650D01*
X0139119Y0048353D01*
X0140333Y0048353D02*
X0142185Y0048353D01*
X0142802Y0047736D01*
X0142802Y0046502D01*
X0142185Y0045884D01*
X0140333Y0045884D01*
X0140333Y0044650D02*
X0140333Y0048353D01*
X0081099Y0160230D02*
X0081099Y0162165D01*
X0081099Y0163177D02*
X0080615Y0164144D01*
X0080615Y0164628D01*
X0081099Y0165112D01*
X0082066Y0165112D01*
X0082550Y0164628D01*
X0082550Y0163660D01*
X0082066Y0163177D01*
X0081099Y0163177D02*
X0079648Y0163177D01*
X0079648Y0165112D01*
X0079648Y0166123D02*
X0081583Y0166123D01*
X0082550Y0167091D01*
X0081583Y0168058D01*
X0079648Y0168058D01*
X0080131Y0171230D02*
X0082066Y0171230D01*
X0082550Y0171714D01*
X0082550Y0172681D01*
X0082066Y0173165D01*
X0081099Y0173165D01*
X0081099Y0172198D01*
X0080131Y0173165D02*
X0079648Y0172681D01*
X0079648Y0171714D01*
X0080131Y0171230D01*
X0079648Y0174177D02*
X0082550Y0176112D01*
X0079648Y0176112D01*
X0079648Y0177123D02*
X0079648Y0178574D01*
X0080131Y0179058D01*
X0082066Y0179058D01*
X0082550Y0178574D01*
X0082550Y0177123D01*
X0079648Y0177123D01*
X0079648Y0174177D02*
X0082550Y0174177D01*
X0082066Y0161198D02*
X0080131Y0161198D01*
X0251024Y0181434D02*
X0251508Y0180950D01*
X0252476Y0180950D01*
X0252959Y0181434D01*
X0252959Y0183369D01*
X0252476Y0183852D01*
X0251508Y0183852D01*
X0251024Y0183369D01*
X0251024Y0181434D01*
X0253971Y0181434D02*
X0253971Y0183852D01*
X0255906Y0183852D02*
X0255906Y0181434D01*
X0255422Y0180950D01*
X0254455Y0180950D01*
X0253971Y0181434D01*
X0256917Y0183852D02*
X0258852Y0183852D01*
X0257885Y0183852D02*
X0257885Y0180950D01*
X0259864Y0180950D02*
X0259864Y0183852D01*
X0261315Y0183852D01*
X0261799Y0183369D01*
X0261799Y0182401D01*
X0261315Y0181917D01*
X0259864Y0181917D01*
X0262810Y0181434D02*
X0263294Y0180950D01*
X0264262Y0180950D01*
X0264745Y0181434D01*
X0264745Y0183852D01*
X0265757Y0183852D02*
X0267692Y0183852D01*
X0266724Y0183852D02*
X0266724Y0180950D01*
X0268703Y0180950D02*
X0270638Y0182885D01*
X0270638Y0183369D01*
X0270155Y0183852D01*
X0269187Y0183852D01*
X0268703Y0183369D01*
X0268703Y0180950D02*
X0270638Y0180950D01*
X0262810Y0181434D02*
X0262810Y0183852D01*
X0262310Y0190950D02*
X0264245Y0192885D01*
X0264245Y0193369D01*
X0263762Y0193852D01*
X0262794Y0193852D01*
X0262310Y0193369D01*
X0261299Y0193369D02*
X0260815Y0193852D01*
X0259848Y0193852D01*
X0259364Y0193369D01*
X0259364Y0191434D01*
X0259848Y0190950D01*
X0260815Y0190950D01*
X0261299Y0191434D01*
X0261299Y0193369D01*
X0262310Y0190950D02*
X0264245Y0190950D01*
X0265257Y0192401D02*
X0267192Y0192401D01*
X0268203Y0192885D02*
X0269171Y0193852D01*
X0269171Y0190950D01*
X0270138Y0190950D02*
X0268203Y0190950D01*
X0258367Y0190950D02*
X0257400Y0190950D01*
X0257883Y0190950D02*
X0257883Y0193852D01*
X0257400Y0193852D02*
X0258367Y0193852D01*
X0256388Y0193369D02*
X0256388Y0192401D01*
X0255904Y0191917D01*
X0254453Y0191917D01*
X0254453Y0190950D02*
X0254453Y0193852D01*
X0255904Y0193852D01*
X0256388Y0193369D01*
X0253442Y0193369D02*
X0252958Y0193852D01*
X0251990Y0193852D01*
X0251507Y0193369D01*
X0251507Y0191434D01*
X0251990Y0190950D01*
X0252958Y0190950D01*
X0253442Y0191434D01*
X0253442Y0192401D01*
X0252474Y0192401D01*
X0255767Y0174450D02*
X0270500Y0174450D01*
X0269638Y0173852D02*
X0267703Y0173852D01*
X0268671Y0173852D02*
X0268671Y0170950D01*
X0266692Y0170950D02*
X0264757Y0170950D01*
X0264757Y0173852D01*
X0263745Y0173852D02*
X0263745Y0171434D01*
X0263262Y0170950D01*
X0262294Y0170950D01*
X0261810Y0171434D01*
X0261810Y0173852D01*
X0260799Y0172885D02*
X0260799Y0170950D01*
X0260799Y0172401D02*
X0258864Y0172401D01*
X0258864Y0172885D02*
X0258864Y0170950D01*
X0258864Y0172885D02*
X0259831Y0173852D01*
X0260799Y0172885D01*
X0257852Y0173852D02*
X0255917Y0173852D01*
X0255917Y0170950D01*
X0255917Y0172401D02*
X0256885Y0172401D01*
D11*
X0309750Y0196268D02*
X0309750Y0200338D01*
X0310768Y0201355D01*
X0312803Y0201355D01*
X0313820Y0200338D01*
X0315827Y0201355D02*
X0319897Y0195250D01*
X0319897Y0201355D01*
X0321904Y0199320D02*
X0323939Y0201355D01*
X0323939Y0195250D01*
X0321904Y0195250D02*
X0325975Y0195250D01*
X0315827Y0195250D02*
X0315827Y0201355D01*
X0313820Y0196268D02*
X0312803Y0195250D01*
X0310768Y0195250D01*
X0309750Y0196268D01*
X0114743Y0133238D02*
X0114743Y0129168D01*
X0113725Y0128150D01*
X0111690Y0128150D01*
X0110673Y0129168D01*
X0114743Y0133238D01*
X0113725Y0134255D01*
X0111690Y0134255D01*
X0110673Y0133238D01*
X0110673Y0129168D01*
X0108666Y0128150D02*
X0104596Y0128150D01*
X0102589Y0128150D02*
X0102589Y0134255D01*
X0104596Y0132220D02*
X0106631Y0134255D01*
X0106631Y0128150D01*
X0102589Y0128150D02*
X0098518Y0134255D01*
X0098518Y0128150D01*
X0096511Y0129168D02*
X0095494Y0128150D01*
X0093459Y0128150D01*
X0092441Y0129168D01*
X0092441Y0133238D01*
X0093459Y0134255D01*
X0095494Y0134255D01*
X0096511Y0133238D01*
D12*
X0090000Y0137000D02*
X0090000Y0161500D01*
X0090000Y0165550D01*
X0090000Y0169487D02*
X0090000Y0173538D01*
X0090000Y0175800D02*
X0105900Y0175800D01*
X0114100Y0173200D02*
X0115900Y0173200D01*
X0124100Y0173200D02*
X0125900Y0173200D01*
X0134100Y0173200D02*
X0135900Y0173200D01*
X0144100Y0173200D02*
X0145900Y0173200D01*
X0154100Y0173200D02*
X0155900Y0173200D01*
X0164100Y0173200D02*
X0165900Y0173200D01*
X0174100Y0173200D02*
X0175900Y0173200D01*
X0184100Y0173200D02*
X0185900Y0173200D01*
X0194100Y0173200D02*
X0195900Y0173200D01*
X0204100Y0173200D02*
X0205900Y0173200D01*
X0214100Y0173200D02*
X0215900Y0173200D01*
X0224100Y0173200D02*
X0225900Y0173200D01*
X0234100Y0175800D02*
X0250000Y0175800D01*
X0250000Y0161500D01*
X0245740Y0161500D01*
X0241803Y0161500D02*
X0237543Y0161500D01*
X0233606Y0161500D02*
X0229346Y0161500D01*
X0225409Y0161500D02*
X0221150Y0161500D01*
X0217213Y0161500D02*
X0212953Y0161500D01*
X0209016Y0161500D02*
X0204756Y0161500D01*
X0200819Y0161500D02*
X0196559Y0161500D01*
X0192622Y0161500D02*
X0188362Y0161500D01*
X0184425Y0161500D02*
X0180165Y0161500D01*
X0176228Y0161500D02*
X0171969Y0161500D01*
X0168031Y0161500D02*
X0163772Y0161500D01*
X0159835Y0161500D02*
X0155575Y0161500D01*
X0151638Y0161500D02*
X0147378Y0161500D01*
X0143441Y0161500D02*
X0139181Y0161500D01*
X0135244Y0161500D02*
X0130984Y0161500D01*
X0127047Y0161500D02*
X0122787Y0161500D01*
X0118850Y0161500D02*
X0114591Y0161500D01*
X0110654Y0161500D02*
X0106394Y0161500D01*
X0102457Y0161500D02*
X0098197Y0161500D01*
X0094260Y0161500D02*
X0090000Y0161500D01*
X0090000Y0175800D01*
X0090000Y0177475D02*
X0090000Y0181525D01*
X0085181Y0181138D02*
X0082819Y0181138D01*
X0082819Y0185862D02*
X0085181Y0185862D01*
X0090000Y0185462D02*
X0090000Y0189513D01*
X0085181Y0189138D02*
X0082819Y0189138D01*
X0082819Y0193862D02*
X0085181Y0193862D01*
X0090000Y0193450D02*
X0090000Y0197500D01*
X0094260Y0197500D01*
X0098197Y0197500D02*
X0102457Y0197500D01*
X0106394Y0197500D02*
X0110654Y0197500D01*
X0114591Y0197500D02*
X0118850Y0197500D01*
X0122787Y0197500D02*
X0127047Y0197500D01*
X0130984Y0197500D02*
X0135244Y0197500D01*
X0139181Y0197500D02*
X0143441Y0197500D01*
X0147378Y0197500D02*
X0151638Y0197500D01*
X0155575Y0197500D02*
X0159835Y0197500D01*
X0163772Y0197500D02*
X0168031Y0197500D01*
X0171969Y0197500D02*
X0176228Y0197500D01*
X0180165Y0197500D02*
X0184425Y0197500D01*
X0188362Y0197500D02*
X0192622Y0197500D01*
X0196559Y0197500D02*
X0200819Y0197500D01*
X0204756Y0197500D02*
X0209016Y0197500D01*
X0212953Y0197500D02*
X0217213Y0197500D01*
X0221150Y0197500D02*
X0225409Y0197500D01*
X0229346Y0197500D02*
X0233606Y0197500D01*
X0237543Y0197500D02*
X0241803Y0197500D01*
X0245740Y0197500D02*
X0250000Y0197500D01*
X0250000Y0193450D01*
X0250000Y0189513D02*
X0250000Y0185462D01*
X0250000Y0181525D02*
X0250000Y0177475D01*
X0250000Y0173538D02*
X0250000Y0169487D01*
X0252638Y0166681D02*
X0252638Y0164319D01*
X0250000Y0165550D02*
X0250000Y0161500D01*
X0250000Y0137000D01*
X0090000Y0137000D01*
X0072181Y0189138D02*
X0069819Y0189138D01*
X0069819Y0193862D02*
X0072181Y0193862D01*
X0059181Y0193862D02*
X0056819Y0193862D01*
X0056819Y0189138D02*
X0059181Y0189138D01*
X0227500Y0193500D02*
X0229800Y0188800D01*
X0230200Y0188800D02*
X0232500Y0193500D01*
X0227500Y0193500D01*
X0272500Y0197500D02*
X0282500Y0197500D01*
X0282500Y0167500D01*
X0272500Y0167500D01*
X0272500Y0197500D01*
X0284500Y0192500D02*
X0288550Y0192500D01*
X0292487Y0192500D02*
X0296538Y0192500D01*
X0300475Y0192500D02*
X0304525Y0192500D01*
X0306200Y0192500D02*
X0306200Y0176600D01*
X0320500Y0176106D02*
X0320500Y0171846D01*
X0320500Y0167909D02*
X0320500Y0163650D01*
X0320500Y0159713D02*
X0320500Y0155453D01*
X0320500Y0151516D02*
X0320500Y0147256D01*
X0320500Y0143319D02*
X0320500Y0139059D01*
X0320500Y0135122D02*
X0320500Y0130862D01*
X0320500Y0126925D02*
X0320500Y0122665D01*
X0320500Y0118728D02*
X0320500Y0114469D01*
X0320500Y0110531D02*
X0320500Y0106272D01*
X0320500Y0102335D02*
X0320500Y0098075D01*
X0320500Y0094138D02*
X0320500Y0089878D01*
X0320500Y0085941D02*
X0320500Y0081681D01*
X0320500Y0077744D02*
X0320500Y0073484D01*
X0320500Y0069547D02*
X0320500Y0065287D01*
X0320500Y0061350D02*
X0320500Y0057091D01*
X0320500Y0053154D02*
X0320500Y0048894D01*
X0320500Y0044957D02*
X0320500Y0040697D01*
X0320500Y0036760D02*
X0320500Y0032500D01*
X0316450Y0032500D01*
X0312513Y0032500D02*
X0308462Y0032500D01*
X0306200Y0032500D02*
X0306200Y0048400D01*
X0308800Y0056600D02*
X0308800Y0058400D01*
X0308800Y0066600D02*
X0308800Y0068400D01*
X0308800Y0076600D02*
X0308800Y0078400D01*
X0308800Y0086600D02*
X0308800Y0088400D01*
X0308800Y0096600D02*
X0308800Y0098400D01*
X0308800Y0106600D02*
X0308800Y0108400D01*
X0308800Y0116600D02*
X0308800Y0118400D01*
X0308800Y0126600D02*
X0308800Y0128400D01*
X0308800Y0136600D02*
X0308800Y0138400D01*
X0308800Y0146600D02*
X0308800Y0148400D01*
X0308800Y0156600D02*
X0308800Y0158400D01*
X0308800Y0166600D02*
X0308800Y0168400D01*
X0293200Y0172300D02*
X0288500Y0170000D01*
X0288500Y0175000D01*
X0293200Y0172700D01*
X0284500Y0171846D02*
X0284500Y0176106D01*
X0284500Y0180043D02*
X0284500Y0184303D01*
X0284500Y0188240D02*
X0284500Y0192500D01*
X0306200Y0192500D02*
X0320500Y0192500D01*
X0320500Y0188240D01*
X0320500Y0184303D02*
X0320500Y0180043D01*
X0320500Y0192500D02*
X0316450Y0192500D01*
X0312513Y0192500D02*
X0308462Y0192500D01*
X0320500Y0192500D02*
X0345000Y0192500D01*
X0345000Y0032500D01*
X0320500Y0032500D01*
X0306200Y0032500D01*
X0304525Y0032500D02*
X0300475Y0032500D01*
X0296538Y0032500D02*
X0292487Y0032500D01*
X0288550Y0032500D02*
X0284500Y0032500D01*
X0284500Y0036760D01*
X0283862Y0035181D02*
X0283862Y0032819D01*
X0279138Y0032819D02*
X0279138Y0035181D01*
X0276862Y0035181D02*
X0276862Y0032819D01*
X0272138Y0032819D02*
X0272138Y0035181D01*
X0269862Y0035181D02*
X0269862Y0032819D01*
X0265138Y0032819D02*
X0265138Y0035181D01*
X0262862Y0035181D02*
X0262862Y0032819D01*
X0258138Y0032819D02*
X0258138Y0035181D01*
X0255862Y0035181D02*
X0255862Y0032819D01*
X0251138Y0032819D02*
X0251138Y0035181D01*
X0244181Y0042138D02*
X0241819Y0042138D01*
X0241819Y0046862D02*
X0244181Y0046862D01*
X0260200Y0045200D02*
X0274800Y0045200D01*
X0268700Y0045200D02*
X0268698Y0045269D01*
X0268692Y0045337D01*
X0268682Y0045405D01*
X0268669Y0045472D01*
X0268651Y0045538D01*
X0268630Y0045603D01*
X0268605Y0045667D01*
X0268577Y0045729D01*
X0268545Y0045790D01*
X0268510Y0045849D01*
X0268471Y0045905D01*
X0268429Y0045960D01*
X0268384Y0046011D01*
X0268336Y0046061D01*
X0268286Y0046107D01*
X0268233Y0046150D01*
X0268177Y0046191D01*
X0268120Y0046228D01*
X0268060Y0046261D01*
X0267998Y0046292D01*
X0267935Y0046318D01*
X0267871Y0046341D01*
X0267805Y0046361D01*
X0267738Y0046376D01*
X0267671Y0046388D01*
X0267603Y0046396D01*
X0267534Y0046400D01*
X0267466Y0046400D01*
X0267397Y0046396D01*
X0267329Y0046388D01*
X0267262Y0046376D01*
X0267195Y0046361D01*
X0267129Y0046341D01*
X0267065Y0046318D01*
X0267002Y0046292D01*
X0266940Y0046261D01*
X0266880Y0046228D01*
X0266823Y0046191D01*
X0266767Y0046150D01*
X0266714Y0046107D01*
X0266664Y0046061D01*
X0266616Y0046011D01*
X0266571Y0045960D01*
X0266529Y0045905D01*
X0266490Y0045849D01*
X0266455Y0045790D01*
X0266423Y0045729D01*
X0266395Y0045667D01*
X0266370Y0045603D01*
X0266349Y0045538D01*
X0266331Y0045472D01*
X0266318Y0045405D01*
X0266308Y0045337D01*
X0266302Y0045269D01*
X0266300Y0045200D01*
X0284500Y0044957D02*
X0284500Y0040697D01*
X0284500Y0048894D02*
X0284500Y0053154D01*
X0284500Y0057091D02*
X0284500Y0061350D01*
X0284500Y0065287D02*
X0284500Y0069547D01*
X0284500Y0073484D02*
X0284500Y0077744D01*
X0284500Y0081681D02*
X0284500Y0085941D01*
X0284500Y0089878D02*
X0284500Y0094138D01*
X0284500Y0098075D02*
X0284500Y0102335D01*
X0284500Y0106272D02*
X0284500Y0110531D01*
X0284500Y0114469D02*
X0284500Y0118728D01*
X0278681Y0119638D02*
X0276319Y0119638D01*
X0274800Y0114500D02*
X0260200Y0114500D01*
X0266300Y0114500D02*
X0266302Y0114431D01*
X0266308Y0114363D01*
X0266318Y0114295D01*
X0266331Y0114228D01*
X0266349Y0114162D01*
X0266370Y0114097D01*
X0266395Y0114033D01*
X0266423Y0113971D01*
X0266455Y0113910D01*
X0266490Y0113851D01*
X0266529Y0113795D01*
X0266571Y0113740D01*
X0266616Y0113689D01*
X0266664Y0113639D01*
X0266714Y0113593D01*
X0266767Y0113550D01*
X0266823Y0113509D01*
X0266880Y0113472D01*
X0266940Y0113439D01*
X0267002Y0113408D01*
X0267065Y0113382D01*
X0267129Y0113359D01*
X0267195Y0113339D01*
X0267262Y0113324D01*
X0267329Y0113312D01*
X0267397Y0113304D01*
X0267466Y0113300D01*
X0267534Y0113300D01*
X0267603Y0113304D01*
X0267671Y0113312D01*
X0267738Y0113324D01*
X0267805Y0113339D01*
X0267871Y0113359D01*
X0267935Y0113382D01*
X0267998Y0113408D01*
X0268060Y0113439D01*
X0268120Y0113472D01*
X0268177Y0113509D01*
X0268233Y0113550D01*
X0268286Y0113593D01*
X0268336Y0113639D01*
X0268384Y0113689D01*
X0268429Y0113740D01*
X0268471Y0113795D01*
X0268510Y0113851D01*
X0268545Y0113910D01*
X0268577Y0113971D01*
X0268605Y0114033D01*
X0268630Y0114097D01*
X0268651Y0114162D01*
X0268669Y0114228D01*
X0268682Y0114295D01*
X0268692Y0114363D01*
X0268698Y0114431D01*
X0268700Y0114500D01*
X0284500Y0122665D02*
X0284500Y0126925D01*
X0278681Y0124362D02*
X0276319Y0124362D01*
X0274800Y0129200D02*
X0260200Y0129200D01*
X0284500Y0130862D02*
X0284500Y0135122D01*
X0284500Y0139059D02*
X0284500Y0143319D01*
X0284500Y0147256D02*
X0284500Y0151516D01*
X0284500Y0155453D02*
X0284500Y0159713D01*
X0284500Y0163650D02*
X0284500Y0167909D01*
X0278681Y0164362D02*
X0276319Y0164362D01*
X0276319Y0159638D02*
X0278681Y0159638D01*
X0274800Y0154800D02*
X0260200Y0154800D01*
X0266300Y0154800D02*
X0266302Y0154731D01*
X0266308Y0154663D01*
X0266318Y0154595D01*
X0266331Y0154528D01*
X0266349Y0154462D01*
X0266370Y0154397D01*
X0266395Y0154333D01*
X0266423Y0154271D01*
X0266455Y0154210D01*
X0266490Y0154151D01*
X0266529Y0154095D01*
X0266571Y0154040D01*
X0266616Y0153989D01*
X0266664Y0153939D01*
X0266714Y0153893D01*
X0266767Y0153850D01*
X0266823Y0153809D01*
X0266880Y0153772D01*
X0266940Y0153739D01*
X0267002Y0153708D01*
X0267065Y0153682D01*
X0267129Y0153659D01*
X0267195Y0153639D01*
X0267262Y0153624D01*
X0267329Y0153612D01*
X0267397Y0153604D01*
X0267466Y0153600D01*
X0267534Y0153600D01*
X0267603Y0153604D01*
X0267671Y0153612D01*
X0267738Y0153624D01*
X0267805Y0153639D01*
X0267871Y0153659D01*
X0267935Y0153682D01*
X0267998Y0153708D01*
X0268060Y0153739D01*
X0268120Y0153772D01*
X0268177Y0153809D01*
X0268233Y0153850D01*
X0268286Y0153893D01*
X0268336Y0153939D01*
X0268384Y0153989D01*
X0268429Y0154040D01*
X0268471Y0154095D01*
X0268510Y0154151D01*
X0268545Y0154210D01*
X0268577Y0154271D01*
X0268605Y0154333D01*
X0268630Y0154397D01*
X0268651Y0154462D01*
X0268669Y0154528D01*
X0268682Y0154595D01*
X0268692Y0154663D01*
X0268698Y0154731D01*
X0268700Y0154800D01*
X0257362Y0164319D02*
X0257362Y0166681D01*
X0260200Y0088900D02*
X0274800Y0088900D01*
X0274800Y0075918D02*
X0260200Y0075918D01*
X0167098Y0065799D02*
X0152902Y0065799D01*
X0134500Y0065000D02*
X0134500Y0058000D01*
X0133000Y0058000D01*
X0133000Y0065000D01*
X0133000Y0065500D01*
X0111500Y0065500D01*
X0111440Y0065498D01*
X0111379Y0065493D01*
X0111320Y0065484D01*
X0111261Y0065471D01*
X0111202Y0065455D01*
X0111145Y0065435D01*
X0111090Y0065412D01*
X0111035Y0065385D01*
X0110983Y0065356D01*
X0110932Y0065323D01*
X0110883Y0065287D01*
X0110837Y0065249D01*
X0110793Y0065207D01*
X0110751Y0065163D01*
X0110713Y0065117D01*
X0110677Y0065068D01*
X0110644Y0065017D01*
X0110615Y0064965D01*
X0110588Y0064910D01*
X0110565Y0064855D01*
X0110545Y0064798D01*
X0110529Y0064739D01*
X0110516Y0064680D01*
X0110507Y0064621D01*
X0110502Y0064560D01*
X0110500Y0064500D01*
X0110500Y0058500D01*
X0110502Y0058440D01*
X0110507Y0058379D01*
X0110516Y0058320D01*
X0110529Y0058261D01*
X0110545Y0058202D01*
X0110565Y0058145D01*
X0110588Y0058090D01*
X0110615Y0058035D01*
X0110644Y0057983D01*
X0110677Y0057932D01*
X0110713Y0057883D01*
X0110751Y0057837D01*
X0110793Y0057793D01*
X0110837Y0057751D01*
X0110883Y0057713D01*
X0110932Y0057677D01*
X0110983Y0057644D01*
X0111035Y0057615D01*
X0111090Y0057588D01*
X0111145Y0057565D01*
X0111202Y0057545D01*
X0111261Y0057529D01*
X0111320Y0057516D01*
X0111379Y0057507D01*
X0111440Y0057502D01*
X0111500Y0057500D01*
X0133000Y0057500D01*
X0133000Y0058000D01*
X0133000Y0065000D02*
X0134500Y0065000D01*
X0127362Y0049681D02*
X0127362Y0047319D01*
X0122638Y0047319D02*
X0122638Y0049681D01*
X0111098Y0050799D02*
X0096902Y0050799D01*
X0098319Y0055638D02*
X0100681Y0055638D01*
X0100681Y0060362D02*
X0098319Y0060362D01*
X0098319Y0065138D02*
X0100681Y0065138D01*
X0100681Y0069862D02*
X0098319Y0069862D01*
X0148319Y0044362D02*
X0150681Y0044362D01*
X0152902Y0047201D02*
X0167098Y0047201D01*
X0150681Y0039638D02*
X0148319Y0039638D01*
X0134862Y0038681D02*
X0134862Y0036319D01*
X0130138Y0036319D02*
X0130138Y0038681D01*
X0127362Y0035181D02*
X0127362Y0032819D01*
X0122638Y0032819D02*
X0122638Y0035181D01*
X0111098Y0032201D02*
X0096902Y0032201D01*
D13*
X0100834Y0030303D02*
X0100834Y0027301D01*
X0101434Y0026700D01*
X0102635Y0026700D01*
X0103236Y0027301D01*
X0103236Y0030303D01*
X0104517Y0030303D02*
X0104517Y0028502D01*
X0105718Y0029102D01*
X0106318Y0029102D01*
X0106919Y0028502D01*
X0106919Y0027301D01*
X0106318Y0026700D01*
X0105117Y0026700D01*
X0104517Y0027301D01*
X0104517Y0030303D02*
X0106919Y0030303D01*
X0157700Y0068301D02*
X0158301Y0067700D01*
X0159502Y0067700D01*
X0160102Y0068301D01*
X0160102Y0071303D01*
X0161383Y0069502D02*
X0163785Y0069502D01*
X0163185Y0071303D02*
X0161383Y0069502D01*
X0163185Y0071303D02*
X0163185Y0067700D01*
X0157700Y0068301D02*
X0157700Y0071303D01*
X0264600Y0078801D02*
X0265201Y0078200D01*
X0266402Y0078200D01*
X0267002Y0078801D01*
X0267002Y0081803D01*
X0268283Y0081203D02*
X0268884Y0081803D01*
X0270085Y0081803D01*
X0270685Y0081203D01*
X0270685Y0080602D01*
X0270085Y0080002D01*
X0270685Y0079401D01*
X0270685Y0078801D01*
X0270085Y0078200D01*
X0268884Y0078200D01*
X0268283Y0078801D01*
X0269484Y0080002D02*
X0270085Y0080002D01*
X0264600Y0078801D02*
X0264600Y0081803D01*
X0265201Y0116650D02*
X0266402Y0116650D01*
X0267002Y0117251D01*
X0267002Y0120253D01*
X0268283Y0119653D02*
X0268884Y0120253D01*
X0270085Y0120253D01*
X0270685Y0119653D01*
X0270685Y0119052D01*
X0268283Y0116650D01*
X0270685Y0116650D01*
X0265201Y0116650D02*
X0264600Y0117251D01*
X0264600Y0120253D01*
X0265201Y0157200D02*
X0266402Y0157200D01*
X0267002Y0157801D01*
X0267002Y0160803D01*
X0268283Y0159602D02*
X0269484Y0160803D01*
X0269484Y0157200D01*
X0268283Y0157200D02*
X0270685Y0157200D01*
X0265201Y0157200D02*
X0264600Y0157801D01*
X0264600Y0160803D01*
D14*
X0050000Y0085000D02*
X0050000Y0017500D01*
X0056250Y0017500D02*
X0056252Y0017658D01*
X0056258Y0017815D01*
X0056268Y0017973D01*
X0056282Y0018130D01*
X0056300Y0018286D01*
X0056321Y0018443D01*
X0056347Y0018598D01*
X0056377Y0018753D01*
X0056410Y0018907D01*
X0056448Y0019060D01*
X0056489Y0019213D01*
X0056534Y0019364D01*
X0056583Y0019514D01*
X0056636Y0019662D01*
X0056692Y0019810D01*
X0056753Y0019955D01*
X0056816Y0020100D01*
X0056884Y0020242D01*
X0056955Y0020383D01*
X0057029Y0020522D01*
X0057107Y0020659D01*
X0057189Y0020794D01*
X0057273Y0020927D01*
X0057362Y0021058D01*
X0057453Y0021186D01*
X0057548Y0021313D01*
X0057645Y0021436D01*
X0057746Y0021558D01*
X0057850Y0021676D01*
X0057957Y0021792D01*
X0058067Y0021905D01*
X0058179Y0022016D01*
X0058295Y0022123D01*
X0058413Y0022228D01*
X0058533Y0022330D01*
X0058656Y0022428D01*
X0058782Y0022524D01*
X0058910Y0022616D01*
X0059040Y0022705D01*
X0059172Y0022791D01*
X0059307Y0022873D01*
X0059444Y0022952D01*
X0059582Y0023027D01*
X0059722Y0023099D01*
X0059865Y0023167D01*
X0060008Y0023232D01*
X0060154Y0023293D01*
X0060301Y0023350D01*
X0060449Y0023404D01*
X0060599Y0023454D01*
X0060749Y0023500D01*
X0060901Y0023542D01*
X0061054Y0023581D01*
X0061208Y0023615D01*
X0061363Y0023646D01*
X0061518Y0023672D01*
X0061674Y0023695D01*
X0061831Y0023714D01*
X0061988Y0023729D01*
X0062145Y0023740D01*
X0062303Y0023747D01*
X0062461Y0023750D01*
X0062618Y0023749D01*
X0062776Y0023744D01*
X0062933Y0023735D01*
X0063091Y0023722D01*
X0063247Y0023705D01*
X0063404Y0023684D01*
X0063559Y0023660D01*
X0063714Y0023631D01*
X0063869Y0023598D01*
X0064022Y0023562D01*
X0064175Y0023521D01*
X0064326Y0023477D01*
X0064476Y0023429D01*
X0064625Y0023378D01*
X0064773Y0023322D01*
X0064919Y0023263D01*
X0065064Y0023200D01*
X0065207Y0023133D01*
X0065348Y0023063D01*
X0065487Y0022990D01*
X0065625Y0022913D01*
X0065761Y0022832D01*
X0065894Y0022748D01*
X0066025Y0022661D01*
X0066154Y0022570D01*
X0066281Y0022476D01*
X0066406Y0022379D01*
X0066527Y0022279D01*
X0066647Y0022176D01*
X0066763Y0022070D01*
X0066877Y0021961D01*
X0066989Y0021849D01*
X0067097Y0021735D01*
X0067202Y0021617D01*
X0067305Y0021497D01*
X0067404Y0021375D01*
X0067500Y0021250D01*
X0067593Y0021122D01*
X0067683Y0020993D01*
X0067769Y0020861D01*
X0067853Y0020727D01*
X0067932Y0020591D01*
X0068009Y0020453D01*
X0068081Y0020313D01*
X0068150Y0020171D01*
X0068216Y0020028D01*
X0068278Y0019883D01*
X0068336Y0019736D01*
X0068391Y0019588D01*
X0068442Y0019439D01*
X0068489Y0019288D01*
X0068532Y0019137D01*
X0068571Y0018984D01*
X0068607Y0018830D01*
X0068638Y0018676D01*
X0068666Y0018521D01*
X0068690Y0018365D01*
X0068710Y0018208D01*
X0068726Y0018051D01*
X0068738Y0017894D01*
X0068746Y0017737D01*
X0068750Y0017579D01*
X0068750Y0017421D01*
X0068746Y0017263D01*
X0068738Y0017106D01*
X0068726Y0016949D01*
X0068710Y0016792D01*
X0068690Y0016635D01*
X0068666Y0016479D01*
X0068638Y0016324D01*
X0068607Y0016170D01*
X0068571Y0016016D01*
X0068532Y0015863D01*
X0068489Y0015712D01*
X0068442Y0015561D01*
X0068391Y0015412D01*
X0068336Y0015264D01*
X0068278Y0015117D01*
X0068216Y0014972D01*
X0068150Y0014829D01*
X0068081Y0014687D01*
X0068009Y0014547D01*
X0067932Y0014409D01*
X0067853Y0014273D01*
X0067769Y0014139D01*
X0067683Y0014007D01*
X0067593Y0013878D01*
X0067500Y0013750D01*
X0067404Y0013625D01*
X0067305Y0013503D01*
X0067202Y0013383D01*
X0067097Y0013265D01*
X0066989Y0013151D01*
X0066877Y0013039D01*
X0066763Y0012930D01*
X0066647Y0012824D01*
X0066527Y0012721D01*
X0066406Y0012621D01*
X0066281Y0012524D01*
X0066154Y0012430D01*
X0066025Y0012339D01*
X0065894Y0012252D01*
X0065761Y0012168D01*
X0065625Y0012087D01*
X0065487Y0012010D01*
X0065348Y0011937D01*
X0065207Y0011867D01*
X0065064Y0011800D01*
X0064919Y0011737D01*
X0064773Y0011678D01*
X0064625Y0011622D01*
X0064476Y0011571D01*
X0064326Y0011523D01*
X0064175Y0011479D01*
X0064022Y0011438D01*
X0063869Y0011402D01*
X0063714Y0011369D01*
X0063559Y0011340D01*
X0063404Y0011316D01*
X0063247Y0011295D01*
X0063091Y0011278D01*
X0062933Y0011265D01*
X0062776Y0011256D01*
X0062618Y0011251D01*
X0062461Y0011250D01*
X0062303Y0011253D01*
X0062145Y0011260D01*
X0061988Y0011271D01*
X0061831Y0011286D01*
X0061674Y0011305D01*
X0061518Y0011328D01*
X0061363Y0011354D01*
X0061208Y0011385D01*
X0061054Y0011419D01*
X0060901Y0011458D01*
X0060749Y0011500D01*
X0060599Y0011546D01*
X0060449Y0011596D01*
X0060301Y0011650D01*
X0060154Y0011707D01*
X0060008Y0011768D01*
X0059865Y0011833D01*
X0059722Y0011901D01*
X0059582Y0011973D01*
X0059444Y0012048D01*
X0059307Y0012127D01*
X0059172Y0012209D01*
X0059040Y0012295D01*
X0058910Y0012384D01*
X0058782Y0012476D01*
X0058656Y0012572D01*
X0058533Y0012670D01*
X0058413Y0012772D01*
X0058295Y0012877D01*
X0058179Y0012984D01*
X0058067Y0013095D01*
X0057957Y0013208D01*
X0057850Y0013324D01*
X0057746Y0013442D01*
X0057645Y0013564D01*
X0057548Y0013687D01*
X0057453Y0013814D01*
X0057362Y0013942D01*
X0057273Y0014073D01*
X0057189Y0014206D01*
X0057107Y0014341D01*
X0057029Y0014478D01*
X0056955Y0014617D01*
X0056884Y0014758D01*
X0056816Y0014900D01*
X0056753Y0015045D01*
X0056692Y0015190D01*
X0056636Y0015338D01*
X0056583Y0015486D01*
X0056534Y0015636D01*
X0056489Y0015787D01*
X0056448Y0015940D01*
X0056410Y0016093D01*
X0056377Y0016247D01*
X0056347Y0016402D01*
X0056321Y0016557D01*
X0056300Y0016714D01*
X0056282Y0016870D01*
X0056268Y0017027D01*
X0056258Y0017185D01*
X0056252Y0017342D01*
X0056250Y0017500D01*
X0050000Y0017500D02*
X0050004Y0017198D01*
X0050015Y0016896D01*
X0050033Y0016595D01*
X0050058Y0016294D01*
X0050091Y0015993D01*
X0050131Y0015694D01*
X0050178Y0015396D01*
X0050233Y0015098D01*
X0050294Y0014803D01*
X0050363Y0014509D01*
X0050439Y0014216D01*
X0050522Y0013926D01*
X0050612Y0013637D01*
X0050709Y0013351D01*
X0050812Y0013067D01*
X0050923Y0012786D01*
X0051040Y0012508D01*
X0051164Y0012232D01*
X0051295Y0011960D01*
X0051432Y0011691D01*
X0051575Y0011425D01*
X0051725Y0011163D01*
X0051882Y0010904D01*
X0052044Y0010650D01*
X0052213Y0010399D01*
X0052387Y0010153D01*
X0052568Y0009910D01*
X0052754Y0009673D01*
X0052946Y0009439D01*
X0053144Y0009211D01*
X0053347Y0008987D01*
X0053555Y0008769D01*
X0053769Y0008555D01*
X0053987Y0008347D01*
X0054211Y0008144D01*
X0054439Y0007946D01*
X0054673Y0007754D01*
X0054910Y0007568D01*
X0055153Y0007387D01*
X0055399Y0007213D01*
X0055650Y0007044D01*
X0055904Y0006882D01*
X0056163Y0006725D01*
X0056425Y0006575D01*
X0056691Y0006432D01*
X0056960Y0006295D01*
X0057232Y0006164D01*
X0057508Y0006040D01*
X0057786Y0005923D01*
X0058067Y0005812D01*
X0058351Y0005709D01*
X0058637Y0005612D01*
X0058926Y0005522D01*
X0059216Y0005439D01*
X0059509Y0005363D01*
X0059803Y0005294D01*
X0060098Y0005233D01*
X0060396Y0005178D01*
X0060694Y0005131D01*
X0060993Y0005091D01*
X0061294Y0005058D01*
X0061595Y0005033D01*
X0061896Y0005015D01*
X0062198Y0005004D01*
X0062500Y0005000D01*
X0295000Y0005000D01*
X0296208Y0005015D01*
X0297416Y0005058D01*
X0298622Y0005131D01*
X0299826Y0005233D01*
X0301027Y0005365D01*
X0302224Y0005525D01*
X0303418Y0005714D01*
X0304606Y0005931D01*
X0305789Y0006178D01*
X0306966Y0006453D01*
X0308135Y0006756D01*
X0309297Y0007088D01*
X0310451Y0007447D01*
X0311595Y0007834D01*
X0312730Y0008249D01*
X0313855Y0008691D01*
X0314968Y0009160D01*
X0316070Y0009656D01*
X0317160Y0010179D01*
X0318236Y0010727D01*
X0319299Y0011302D01*
X0320348Y0011902D01*
X0321382Y0012527D01*
X0322401Y0013176D01*
X0323403Y0013851D01*
X0324389Y0014549D01*
X0325358Y0015271D01*
X0326309Y0016016D01*
X0327242Y0016784D01*
X0328156Y0017574D01*
X0329051Y0018387D01*
X0329926Y0019220D01*
X0330780Y0020074D01*
X0331613Y0020949D01*
X0332426Y0021844D01*
X0333216Y0022758D01*
X0333984Y0023691D01*
X0334729Y0024642D01*
X0335451Y0025611D01*
X0336149Y0026597D01*
X0336824Y0027599D01*
X0337473Y0028618D01*
X0338098Y0029652D01*
X0338698Y0030701D01*
X0339273Y0031764D01*
X0339821Y0032840D01*
X0340344Y0033930D01*
X0340840Y0035032D01*
X0341309Y0036145D01*
X0341751Y0037270D01*
X0342166Y0038405D01*
X0342553Y0039549D01*
X0342912Y0040703D01*
X0343244Y0041865D01*
X0343547Y0043034D01*
X0343822Y0044211D01*
X0344069Y0045394D01*
X0344286Y0046582D01*
X0344475Y0047776D01*
X0344635Y0048973D01*
X0344767Y0050174D01*
X0344869Y0051378D01*
X0344942Y0052584D01*
X0344985Y0053792D01*
X0345000Y0055000D01*
X0345000Y0170000D01*
X0344985Y0171208D01*
X0344942Y0172416D01*
X0344869Y0173622D01*
X0344767Y0174826D01*
X0344635Y0176027D01*
X0344475Y0177224D01*
X0344286Y0178418D01*
X0344069Y0179606D01*
X0343822Y0180789D01*
X0343547Y0181966D01*
X0343244Y0183135D01*
X0342912Y0184297D01*
X0342553Y0185451D01*
X0342166Y0186595D01*
X0341751Y0187730D01*
X0341309Y0188855D01*
X0340840Y0189968D01*
X0340344Y0191070D01*
X0339821Y0192160D01*
X0339273Y0193236D01*
X0338698Y0194299D01*
X0338098Y0195348D01*
X0337473Y0196382D01*
X0336824Y0197401D01*
X0336149Y0198403D01*
X0335451Y0199389D01*
X0334729Y0200358D01*
X0333984Y0201309D01*
X0333216Y0202242D01*
X0332426Y0203156D01*
X0331613Y0204051D01*
X0330780Y0204926D01*
X0329926Y0205780D01*
X0329051Y0206613D01*
X0328156Y0207426D01*
X0327242Y0208216D01*
X0326309Y0208984D01*
X0325358Y0209729D01*
X0324389Y0210451D01*
X0323403Y0211149D01*
X0322401Y0211824D01*
X0321382Y0212473D01*
X0320348Y0213098D01*
X0319299Y0213698D01*
X0318236Y0214273D01*
X0317160Y0214821D01*
X0316070Y0215344D01*
X0314968Y0215840D01*
X0313855Y0216309D01*
X0312730Y0216751D01*
X0311595Y0217166D01*
X0310451Y0217553D01*
X0309297Y0217912D01*
X0308135Y0218244D01*
X0306966Y0218547D01*
X0305789Y0218822D01*
X0304606Y0219069D01*
X0303418Y0219286D01*
X0302224Y0219475D01*
X0301027Y0219635D01*
X0299826Y0219767D01*
X0298622Y0219869D01*
X0297416Y0219942D01*
X0296208Y0219985D01*
X0295000Y0220000D01*
X0062500Y0220000D01*
X0056250Y0207500D02*
X0056252Y0207658D01*
X0056258Y0207815D01*
X0056268Y0207973D01*
X0056282Y0208130D01*
X0056300Y0208286D01*
X0056321Y0208443D01*
X0056347Y0208598D01*
X0056377Y0208753D01*
X0056410Y0208907D01*
X0056448Y0209060D01*
X0056489Y0209213D01*
X0056534Y0209364D01*
X0056583Y0209514D01*
X0056636Y0209662D01*
X0056692Y0209810D01*
X0056753Y0209955D01*
X0056816Y0210100D01*
X0056884Y0210242D01*
X0056955Y0210383D01*
X0057029Y0210522D01*
X0057107Y0210659D01*
X0057189Y0210794D01*
X0057273Y0210927D01*
X0057362Y0211058D01*
X0057453Y0211186D01*
X0057548Y0211313D01*
X0057645Y0211436D01*
X0057746Y0211558D01*
X0057850Y0211676D01*
X0057957Y0211792D01*
X0058067Y0211905D01*
X0058179Y0212016D01*
X0058295Y0212123D01*
X0058413Y0212228D01*
X0058533Y0212330D01*
X0058656Y0212428D01*
X0058782Y0212524D01*
X0058910Y0212616D01*
X0059040Y0212705D01*
X0059172Y0212791D01*
X0059307Y0212873D01*
X0059444Y0212952D01*
X0059582Y0213027D01*
X0059722Y0213099D01*
X0059865Y0213167D01*
X0060008Y0213232D01*
X0060154Y0213293D01*
X0060301Y0213350D01*
X0060449Y0213404D01*
X0060599Y0213454D01*
X0060749Y0213500D01*
X0060901Y0213542D01*
X0061054Y0213581D01*
X0061208Y0213615D01*
X0061363Y0213646D01*
X0061518Y0213672D01*
X0061674Y0213695D01*
X0061831Y0213714D01*
X0061988Y0213729D01*
X0062145Y0213740D01*
X0062303Y0213747D01*
X0062461Y0213750D01*
X0062618Y0213749D01*
X0062776Y0213744D01*
X0062933Y0213735D01*
X0063091Y0213722D01*
X0063247Y0213705D01*
X0063404Y0213684D01*
X0063559Y0213660D01*
X0063714Y0213631D01*
X0063869Y0213598D01*
X0064022Y0213562D01*
X0064175Y0213521D01*
X0064326Y0213477D01*
X0064476Y0213429D01*
X0064625Y0213378D01*
X0064773Y0213322D01*
X0064919Y0213263D01*
X0065064Y0213200D01*
X0065207Y0213133D01*
X0065348Y0213063D01*
X0065487Y0212990D01*
X0065625Y0212913D01*
X0065761Y0212832D01*
X0065894Y0212748D01*
X0066025Y0212661D01*
X0066154Y0212570D01*
X0066281Y0212476D01*
X0066406Y0212379D01*
X0066527Y0212279D01*
X0066647Y0212176D01*
X0066763Y0212070D01*
X0066877Y0211961D01*
X0066989Y0211849D01*
X0067097Y0211735D01*
X0067202Y0211617D01*
X0067305Y0211497D01*
X0067404Y0211375D01*
X0067500Y0211250D01*
X0067593Y0211122D01*
X0067683Y0210993D01*
X0067769Y0210861D01*
X0067853Y0210727D01*
X0067932Y0210591D01*
X0068009Y0210453D01*
X0068081Y0210313D01*
X0068150Y0210171D01*
X0068216Y0210028D01*
X0068278Y0209883D01*
X0068336Y0209736D01*
X0068391Y0209588D01*
X0068442Y0209439D01*
X0068489Y0209288D01*
X0068532Y0209137D01*
X0068571Y0208984D01*
X0068607Y0208830D01*
X0068638Y0208676D01*
X0068666Y0208521D01*
X0068690Y0208365D01*
X0068710Y0208208D01*
X0068726Y0208051D01*
X0068738Y0207894D01*
X0068746Y0207737D01*
X0068750Y0207579D01*
X0068750Y0207421D01*
X0068746Y0207263D01*
X0068738Y0207106D01*
X0068726Y0206949D01*
X0068710Y0206792D01*
X0068690Y0206635D01*
X0068666Y0206479D01*
X0068638Y0206324D01*
X0068607Y0206170D01*
X0068571Y0206016D01*
X0068532Y0205863D01*
X0068489Y0205712D01*
X0068442Y0205561D01*
X0068391Y0205412D01*
X0068336Y0205264D01*
X0068278Y0205117D01*
X0068216Y0204972D01*
X0068150Y0204829D01*
X0068081Y0204687D01*
X0068009Y0204547D01*
X0067932Y0204409D01*
X0067853Y0204273D01*
X0067769Y0204139D01*
X0067683Y0204007D01*
X0067593Y0203878D01*
X0067500Y0203750D01*
X0067404Y0203625D01*
X0067305Y0203503D01*
X0067202Y0203383D01*
X0067097Y0203265D01*
X0066989Y0203151D01*
X0066877Y0203039D01*
X0066763Y0202930D01*
X0066647Y0202824D01*
X0066527Y0202721D01*
X0066406Y0202621D01*
X0066281Y0202524D01*
X0066154Y0202430D01*
X0066025Y0202339D01*
X0065894Y0202252D01*
X0065761Y0202168D01*
X0065625Y0202087D01*
X0065487Y0202010D01*
X0065348Y0201937D01*
X0065207Y0201867D01*
X0065064Y0201800D01*
X0064919Y0201737D01*
X0064773Y0201678D01*
X0064625Y0201622D01*
X0064476Y0201571D01*
X0064326Y0201523D01*
X0064175Y0201479D01*
X0064022Y0201438D01*
X0063869Y0201402D01*
X0063714Y0201369D01*
X0063559Y0201340D01*
X0063404Y0201316D01*
X0063247Y0201295D01*
X0063091Y0201278D01*
X0062933Y0201265D01*
X0062776Y0201256D01*
X0062618Y0201251D01*
X0062461Y0201250D01*
X0062303Y0201253D01*
X0062145Y0201260D01*
X0061988Y0201271D01*
X0061831Y0201286D01*
X0061674Y0201305D01*
X0061518Y0201328D01*
X0061363Y0201354D01*
X0061208Y0201385D01*
X0061054Y0201419D01*
X0060901Y0201458D01*
X0060749Y0201500D01*
X0060599Y0201546D01*
X0060449Y0201596D01*
X0060301Y0201650D01*
X0060154Y0201707D01*
X0060008Y0201768D01*
X0059865Y0201833D01*
X0059722Y0201901D01*
X0059582Y0201973D01*
X0059444Y0202048D01*
X0059307Y0202127D01*
X0059172Y0202209D01*
X0059040Y0202295D01*
X0058910Y0202384D01*
X0058782Y0202476D01*
X0058656Y0202572D01*
X0058533Y0202670D01*
X0058413Y0202772D01*
X0058295Y0202877D01*
X0058179Y0202984D01*
X0058067Y0203095D01*
X0057957Y0203208D01*
X0057850Y0203324D01*
X0057746Y0203442D01*
X0057645Y0203564D01*
X0057548Y0203687D01*
X0057453Y0203814D01*
X0057362Y0203942D01*
X0057273Y0204073D01*
X0057189Y0204206D01*
X0057107Y0204341D01*
X0057029Y0204478D01*
X0056955Y0204617D01*
X0056884Y0204758D01*
X0056816Y0204900D01*
X0056753Y0205045D01*
X0056692Y0205190D01*
X0056636Y0205338D01*
X0056583Y0205486D01*
X0056534Y0205636D01*
X0056489Y0205787D01*
X0056448Y0205940D01*
X0056410Y0206093D01*
X0056377Y0206247D01*
X0056347Y0206402D01*
X0056321Y0206557D01*
X0056300Y0206714D01*
X0056282Y0206870D01*
X0056268Y0207027D01*
X0056258Y0207185D01*
X0056252Y0207342D01*
X0056250Y0207500D01*
X0050000Y0207500D02*
X0050000Y0160000D01*
X0050002Y0159902D01*
X0050008Y0159804D01*
X0050017Y0159706D01*
X0050031Y0159609D01*
X0050048Y0159512D01*
X0050069Y0159416D01*
X0050094Y0159321D01*
X0050122Y0159227D01*
X0050155Y0159135D01*
X0050190Y0159043D01*
X0050230Y0158953D01*
X0050272Y0158865D01*
X0050319Y0158778D01*
X0050368Y0158694D01*
X0050421Y0158611D01*
X0050477Y0158531D01*
X0050537Y0158452D01*
X0050599Y0158376D01*
X0050664Y0158303D01*
X0050732Y0158232D01*
X0050803Y0158164D01*
X0050876Y0158099D01*
X0050952Y0158037D01*
X0051031Y0157977D01*
X0051111Y0157921D01*
X0051194Y0157868D01*
X0051278Y0157819D01*
X0051365Y0157772D01*
X0051453Y0157730D01*
X0051543Y0157690D01*
X0051635Y0157655D01*
X0051727Y0157622D01*
X0051821Y0157594D01*
X0051916Y0157569D01*
X0052012Y0157548D01*
X0052109Y0157531D01*
X0052206Y0157517D01*
X0052304Y0157508D01*
X0052402Y0157502D01*
X0052500Y0157500D01*
X0084000Y0157500D01*
X0084060Y0157498D01*
X0084121Y0157493D01*
X0084180Y0157484D01*
X0084239Y0157471D01*
X0084298Y0157455D01*
X0084355Y0157435D01*
X0084410Y0157412D01*
X0084465Y0157385D01*
X0084517Y0157356D01*
X0084568Y0157323D01*
X0084617Y0157287D01*
X0084663Y0157249D01*
X0084707Y0157207D01*
X0084749Y0157163D01*
X0084787Y0157117D01*
X0084823Y0157068D01*
X0084856Y0157017D01*
X0084885Y0156965D01*
X0084912Y0156910D01*
X0084935Y0156855D01*
X0084955Y0156798D01*
X0084971Y0156739D01*
X0084984Y0156680D01*
X0084993Y0156621D01*
X0084998Y0156560D01*
X0085000Y0156500D01*
X0085000Y0088500D01*
X0084998Y0088440D01*
X0084993Y0088379D01*
X0084984Y0088320D01*
X0084971Y0088261D01*
X0084955Y0088202D01*
X0084935Y0088145D01*
X0084912Y0088090D01*
X0084885Y0088035D01*
X0084856Y0087983D01*
X0084823Y0087932D01*
X0084787Y0087883D01*
X0084749Y0087837D01*
X0084707Y0087793D01*
X0084663Y0087751D01*
X0084617Y0087713D01*
X0084568Y0087677D01*
X0084517Y0087644D01*
X0084465Y0087615D01*
X0084410Y0087588D01*
X0084355Y0087565D01*
X0084298Y0087545D01*
X0084239Y0087529D01*
X0084180Y0087516D01*
X0084121Y0087507D01*
X0084060Y0087502D01*
X0084000Y0087500D01*
X0052500Y0087500D01*
X0052402Y0087498D01*
X0052304Y0087492D01*
X0052206Y0087483D01*
X0052109Y0087469D01*
X0052012Y0087452D01*
X0051916Y0087431D01*
X0051821Y0087406D01*
X0051727Y0087378D01*
X0051635Y0087345D01*
X0051543Y0087310D01*
X0051453Y0087270D01*
X0051365Y0087228D01*
X0051278Y0087181D01*
X0051194Y0087132D01*
X0051111Y0087079D01*
X0051031Y0087023D01*
X0050952Y0086963D01*
X0050876Y0086901D01*
X0050803Y0086836D01*
X0050732Y0086768D01*
X0050664Y0086697D01*
X0050599Y0086624D01*
X0050537Y0086548D01*
X0050477Y0086469D01*
X0050421Y0086389D01*
X0050368Y0086306D01*
X0050319Y0086222D01*
X0050272Y0086135D01*
X0050230Y0086047D01*
X0050190Y0085957D01*
X0050155Y0085865D01*
X0050122Y0085773D01*
X0050094Y0085679D01*
X0050069Y0085584D01*
X0050048Y0085488D01*
X0050031Y0085391D01*
X0050017Y0085294D01*
X0050008Y0085196D01*
X0050002Y0085098D01*
X0050000Y0085000D01*
X0050000Y0207500D02*
X0050004Y0207802D01*
X0050015Y0208104D01*
X0050033Y0208405D01*
X0050058Y0208706D01*
X0050091Y0209007D01*
X0050131Y0209306D01*
X0050178Y0209604D01*
X0050233Y0209902D01*
X0050294Y0210197D01*
X0050363Y0210491D01*
X0050439Y0210784D01*
X0050522Y0211074D01*
X0050612Y0211363D01*
X0050709Y0211649D01*
X0050812Y0211933D01*
X0050923Y0212214D01*
X0051040Y0212492D01*
X0051164Y0212768D01*
X0051295Y0213040D01*
X0051432Y0213309D01*
X0051575Y0213575D01*
X0051725Y0213837D01*
X0051882Y0214096D01*
X0052044Y0214350D01*
X0052213Y0214601D01*
X0052387Y0214847D01*
X0052568Y0215090D01*
X0052754Y0215327D01*
X0052946Y0215561D01*
X0053144Y0215789D01*
X0053347Y0216013D01*
X0053555Y0216231D01*
X0053769Y0216445D01*
X0053987Y0216653D01*
X0054211Y0216856D01*
X0054439Y0217054D01*
X0054673Y0217246D01*
X0054910Y0217432D01*
X0055153Y0217613D01*
X0055399Y0217787D01*
X0055650Y0217956D01*
X0055904Y0218118D01*
X0056163Y0218275D01*
X0056425Y0218425D01*
X0056691Y0218568D01*
X0056960Y0218705D01*
X0057232Y0218836D01*
X0057508Y0218960D01*
X0057786Y0219077D01*
X0058067Y0219188D01*
X0058351Y0219291D01*
X0058637Y0219388D01*
X0058926Y0219478D01*
X0059216Y0219561D01*
X0059509Y0219637D01*
X0059803Y0219706D01*
X0060098Y0219767D01*
X0060396Y0219822D01*
X0060694Y0219869D01*
X0060993Y0219909D01*
X0061294Y0219942D01*
X0061595Y0219967D01*
X0061896Y0219985D01*
X0062198Y0219996D01*
X0062500Y0220000D01*
D15*
X0050220Y0187280D02*
X0077780Y0187280D01*
X0077780Y0159720D01*
X0050220Y0159720D01*
X0050220Y0187280D01*
X0050220Y0085059D02*
X0077780Y0085059D01*
X0077780Y0029941D01*
X0050220Y0029941D01*
X0050220Y0085059D01*
X0099535Y0048600D02*
X0099537Y0048647D01*
X0099543Y0048694D01*
X0099553Y0048741D01*
X0099566Y0048786D01*
X0099584Y0048830D01*
X0099605Y0048872D01*
X0099629Y0048913D01*
X0099657Y0048951D01*
X0099688Y0048987D01*
X0099722Y0049020D01*
X0099758Y0049050D01*
X0099797Y0049077D01*
X0099838Y0049101D01*
X0099881Y0049121D01*
X0099925Y0049137D01*
X0099971Y0049150D01*
X0100017Y0049159D01*
X0100065Y0049164D01*
X0100112Y0049165D01*
X0100159Y0049162D01*
X0100206Y0049155D01*
X0100252Y0049144D01*
X0100297Y0049130D01*
X0100341Y0049111D01*
X0100382Y0049089D01*
X0100422Y0049064D01*
X0100460Y0049035D01*
X0100495Y0049004D01*
X0100528Y0048969D01*
X0100557Y0048932D01*
X0100583Y0048893D01*
X0100606Y0048851D01*
X0100625Y0048808D01*
X0100641Y0048763D01*
X0100653Y0048717D01*
X0100661Y0048671D01*
X0100665Y0048624D01*
X0100665Y0048576D01*
X0100661Y0048529D01*
X0100653Y0048483D01*
X0100641Y0048437D01*
X0100625Y0048392D01*
X0100606Y0048349D01*
X0100583Y0048307D01*
X0100557Y0048268D01*
X0100528Y0048231D01*
X0100495Y0048196D01*
X0100460Y0048165D01*
X0100422Y0048136D01*
X0100383Y0048111D01*
X0100341Y0048089D01*
X0100297Y0048070D01*
X0100252Y0048056D01*
X0100206Y0048045D01*
X0100159Y0048038D01*
X0100112Y0048035D01*
X0100065Y0048036D01*
X0100017Y0048041D01*
X0099971Y0048050D01*
X0099925Y0048063D01*
X0099881Y0048079D01*
X0099838Y0048099D01*
X0099797Y0048123D01*
X0099758Y0048150D01*
X0099722Y0048180D01*
X0099688Y0048213D01*
X0099657Y0048249D01*
X0099629Y0048287D01*
X0099605Y0048328D01*
X0099584Y0048370D01*
X0099566Y0048414D01*
X0099553Y0048459D01*
X0099543Y0048506D01*
X0099537Y0048553D01*
X0099535Y0048600D01*
X0155535Y0063600D02*
X0155537Y0063647D01*
X0155543Y0063694D01*
X0155553Y0063741D01*
X0155566Y0063786D01*
X0155584Y0063830D01*
X0155605Y0063872D01*
X0155629Y0063913D01*
X0155657Y0063951D01*
X0155688Y0063987D01*
X0155722Y0064020D01*
X0155758Y0064050D01*
X0155797Y0064077D01*
X0155838Y0064101D01*
X0155881Y0064121D01*
X0155925Y0064137D01*
X0155971Y0064150D01*
X0156017Y0064159D01*
X0156065Y0064164D01*
X0156112Y0064165D01*
X0156159Y0064162D01*
X0156206Y0064155D01*
X0156252Y0064144D01*
X0156297Y0064130D01*
X0156341Y0064111D01*
X0156382Y0064089D01*
X0156422Y0064064D01*
X0156460Y0064035D01*
X0156495Y0064004D01*
X0156528Y0063969D01*
X0156557Y0063932D01*
X0156583Y0063893D01*
X0156606Y0063851D01*
X0156625Y0063808D01*
X0156641Y0063763D01*
X0156653Y0063717D01*
X0156661Y0063671D01*
X0156665Y0063624D01*
X0156665Y0063576D01*
X0156661Y0063529D01*
X0156653Y0063483D01*
X0156641Y0063437D01*
X0156625Y0063392D01*
X0156606Y0063349D01*
X0156583Y0063307D01*
X0156557Y0063268D01*
X0156528Y0063231D01*
X0156495Y0063196D01*
X0156460Y0063165D01*
X0156422Y0063136D01*
X0156383Y0063111D01*
X0156341Y0063089D01*
X0156297Y0063070D01*
X0156252Y0063056D01*
X0156206Y0063045D01*
X0156159Y0063038D01*
X0156112Y0063035D01*
X0156065Y0063036D01*
X0156017Y0063041D01*
X0155971Y0063050D01*
X0155925Y0063063D01*
X0155881Y0063079D01*
X0155838Y0063099D01*
X0155797Y0063123D01*
X0155758Y0063150D01*
X0155722Y0063180D01*
X0155688Y0063213D01*
X0155657Y0063249D01*
X0155629Y0063287D01*
X0155605Y0063328D01*
X0155584Y0063370D01*
X0155566Y0063414D01*
X0155553Y0063459D01*
X0155543Y0063506D01*
X0155537Y0063553D01*
X0155535Y0063600D01*
D16*
X0132778Y0052685D02*
X0132778Y0052318D01*
X0132411Y0051951D01*
X0132778Y0051584D01*
X0132778Y0051217D01*
X0132411Y0050850D01*
X0131677Y0050850D01*
X0131310Y0051217D01*
X0130568Y0050850D02*
X0129834Y0051584D01*
X0130201Y0051584D02*
X0129100Y0051584D01*
X0129100Y0050850D02*
X0129100Y0053052D01*
X0130201Y0053052D01*
X0130568Y0052685D01*
X0130568Y0051951D01*
X0130201Y0051584D01*
X0131310Y0052685D02*
X0131677Y0053052D01*
X0132411Y0053052D01*
X0132778Y0052685D01*
X0132411Y0051951D02*
X0132044Y0051951D01*
X0139547Y0043152D02*
X0139180Y0042785D01*
X0139180Y0041317D01*
X0139547Y0040950D01*
X0140281Y0040950D01*
X0140648Y0041317D01*
X0141390Y0040950D02*
X0142858Y0040950D01*
X0142124Y0040950D02*
X0142124Y0043152D01*
X0141390Y0042418D01*
X0140648Y0042785D02*
X0140281Y0043152D01*
X0139547Y0043152D01*
X0133991Y0031152D02*
X0133257Y0031152D01*
X0132890Y0030785D01*
X0132148Y0030785D02*
X0131781Y0031152D01*
X0130680Y0031152D01*
X0130680Y0028950D01*
X0130680Y0029684D02*
X0131781Y0029684D01*
X0132148Y0030051D01*
X0132148Y0030785D01*
X0131414Y0029684D02*
X0132148Y0028950D01*
X0132890Y0028950D02*
X0134358Y0030418D01*
X0134358Y0030785D01*
X0133991Y0031152D01*
X0134358Y0028950D02*
X0132890Y0028950D01*
X0121358Y0029450D02*
X0119890Y0029450D01*
X0120624Y0029450D02*
X0120624Y0031652D01*
X0119890Y0030918D01*
X0119148Y0031285D02*
X0119148Y0030551D01*
X0118781Y0030184D01*
X0117680Y0030184D01*
X0117680Y0029450D02*
X0117680Y0031652D01*
X0118781Y0031652D01*
X0119148Y0031285D01*
X0118414Y0030184D02*
X0119148Y0029450D01*
X0093283Y0056600D02*
X0093650Y0056967D01*
X0093650Y0057701D01*
X0093283Y0058068D01*
X0093283Y0058810D02*
X0093650Y0059177D01*
X0093650Y0059911D01*
X0093283Y0060278D01*
X0092549Y0060278D01*
X0092182Y0059911D01*
X0092182Y0059544D01*
X0092549Y0058810D01*
X0091448Y0058810D01*
X0091448Y0060278D01*
X0091815Y0058068D02*
X0091448Y0057701D01*
X0091448Y0056967D01*
X0091815Y0056600D01*
X0093283Y0056600D01*
X0092916Y0064600D02*
X0092916Y0065701D01*
X0092549Y0066068D01*
X0091815Y0066068D01*
X0091448Y0065701D01*
X0091448Y0064600D01*
X0093650Y0064600D01*
X0092916Y0065334D02*
X0093650Y0066068D01*
X0093650Y0066810D02*
X0093650Y0068278D01*
X0093650Y0067544D02*
X0091448Y0067544D01*
X0092182Y0066810D01*
X0091815Y0069020D02*
X0091448Y0069387D01*
X0091448Y0070121D01*
X0091815Y0070488D01*
X0092182Y0070488D01*
X0092549Y0070121D01*
X0092916Y0070488D01*
X0093283Y0070488D01*
X0093650Y0070121D01*
X0093650Y0069387D01*
X0093283Y0069020D01*
X0092549Y0069754D02*
X0092549Y0070121D01*
X0245100Y0049685D02*
X0245100Y0048217D01*
X0245467Y0047850D01*
X0246201Y0047850D01*
X0246568Y0048217D01*
X0247310Y0047850D02*
X0248778Y0049318D01*
X0248778Y0049685D01*
X0248411Y0050052D01*
X0247677Y0050052D01*
X0247310Y0049685D01*
X0246568Y0049685D02*
X0246201Y0050052D01*
X0245467Y0050052D01*
X0245100Y0049685D01*
X0247310Y0047850D02*
X0248778Y0047850D01*
X0251600Y0042552D02*
X0252701Y0042552D01*
X0253068Y0042185D01*
X0253068Y0041451D01*
X0252701Y0041084D01*
X0251600Y0041084D01*
X0252334Y0041084D02*
X0253068Y0040350D01*
X0253810Y0040717D02*
X0253810Y0041084D01*
X0254177Y0041451D01*
X0254911Y0041451D01*
X0255278Y0041084D01*
X0255278Y0040717D01*
X0254911Y0040350D01*
X0254177Y0040350D01*
X0253810Y0040717D01*
X0254177Y0041451D02*
X0253810Y0041818D01*
X0253810Y0042185D01*
X0254177Y0042552D01*
X0254911Y0042552D01*
X0255278Y0042185D01*
X0255278Y0041818D01*
X0254911Y0041451D01*
X0251600Y0040350D02*
X0251600Y0042552D01*
X0258600Y0042552D02*
X0258600Y0040350D01*
X0258600Y0041084D02*
X0259701Y0041084D01*
X0260068Y0041451D01*
X0260068Y0042185D01*
X0259701Y0042552D01*
X0258600Y0042552D01*
X0259334Y0041084D02*
X0260068Y0040350D01*
X0260810Y0040350D02*
X0260810Y0040717D01*
X0262278Y0042185D01*
X0262278Y0042552D01*
X0260810Y0042552D01*
X0265600Y0042552D02*
X0265600Y0040350D01*
X0265600Y0041084D02*
X0266701Y0041084D01*
X0267068Y0041451D01*
X0267068Y0042185D01*
X0266701Y0042552D01*
X0265600Y0042552D01*
X0266334Y0041084D02*
X0267068Y0040350D01*
X0267810Y0040717D02*
X0268177Y0040350D01*
X0268911Y0040350D01*
X0269278Y0040717D01*
X0269278Y0041084D01*
X0268911Y0041451D01*
X0267810Y0041451D01*
X0267810Y0040717D01*
X0267810Y0041451D02*
X0268544Y0042185D01*
X0269278Y0042552D01*
X0272600Y0042552D02*
X0272600Y0040350D01*
X0272600Y0041084D02*
X0273701Y0041084D01*
X0274068Y0041451D01*
X0274068Y0042185D01*
X0273701Y0042552D01*
X0272600Y0042552D01*
X0273334Y0041084D02*
X0274068Y0040350D01*
X0274810Y0040717D02*
X0275177Y0040350D01*
X0275911Y0040350D01*
X0276278Y0040717D01*
X0276278Y0041451D01*
X0275911Y0041818D01*
X0275544Y0041818D01*
X0274810Y0041451D01*
X0274810Y0042552D01*
X0276278Y0042552D01*
X0279600Y0042552D02*
X0279600Y0040350D01*
X0279600Y0041084D02*
X0280701Y0041084D01*
X0281068Y0041451D01*
X0281068Y0042185D01*
X0280701Y0042552D01*
X0279600Y0042552D01*
X0280334Y0041084D02*
X0281068Y0040350D01*
X0281810Y0041451D02*
X0283278Y0041451D01*
X0282911Y0042552D02*
X0281810Y0041451D01*
X0282911Y0040350D02*
X0282911Y0042552D01*
X0278911Y0125350D02*
X0278177Y0125350D01*
X0277810Y0125717D01*
X0277068Y0125717D02*
X0276701Y0125350D01*
X0275967Y0125350D01*
X0275600Y0125717D01*
X0275600Y0127185D01*
X0275967Y0127552D01*
X0276701Y0127552D01*
X0277068Y0127185D01*
X0277810Y0127185D02*
X0278177Y0127552D01*
X0278911Y0127552D01*
X0279278Y0127185D01*
X0279278Y0126818D01*
X0278911Y0126451D01*
X0279278Y0126084D01*
X0279278Y0125717D01*
X0278911Y0125350D01*
X0278911Y0126451D02*
X0278544Y0126451D01*
X0280547Y0155950D02*
X0281281Y0155950D01*
X0281648Y0156317D01*
X0282390Y0157051D02*
X0283858Y0157051D01*
X0283491Y0158152D02*
X0282390Y0157051D01*
X0281648Y0157785D02*
X0281281Y0158152D01*
X0280547Y0158152D01*
X0280180Y0157785D01*
X0280180Y0156317D01*
X0280547Y0155950D01*
X0283491Y0155950D02*
X0283491Y0158152D01*
X0261050Y0162470D02*
X0258848Y0162470D01*
X0258848Y0163571D01*
X0259215Y0163938D01*
X0259949Y0163938D01*
X0260316Y0163571D01*
X0260316Y0162470D01*
X0260316Y0163204D02*
X0261050Y0163938D01*
X0261050Y0164680D02*
X0261050Y0166148D01*
X0261050Y0165414D02*
X0258848Y0165414D01*
X0259582Y0164680D01*
X0259949Y0166890D02*
X0259949Y0168358D01*
X0258848Y0167991D02*
X0259949Y0166890D01*
X0261050Y0167991D02*
X0258848Y0167991D01*
X0088358Y0178317D02*
X0088358Y0179785D01*
X0087991Y0180152D01*
X0087257Y0180152D01*
X0086890Y0179785D01*
X0086890Y0179418D01*
X0087257Y0179051D01*
X0088358Y0179051D01*
X0088358Y0178317D02*
X0087991Y0177950D01*
X0087257Y0177950D01*
X0086890Y0178317D01*
X0086148Y0177950D02*
X0085414Y0178684D01*
X0085781Y0178684D02*
X0084680Y0178684D01*
X0084680Y0177950D02*
X0084680Y0180152D01*
X0085781Y0180152D01*
X0086148Y0179785D01*
X0086148Y0179051D01*
X0085781Y0178684D01*
X0085887Y0194850D02*
X0085520Y0195217D01*
X0086988Y0196685D01*
X0086988Y0195217D01*
X0086621Y0194850D01*
X0085887Y0194850D01*
X0085520Y0195217D02*
X0085520Y0196685D01*
X0085887Y0197052D01*
X0086621Y0197052D01*
X0086988Y0196685D01*
X0084778Y0194850D02*
X0083310Y0194850D01*
X0084044Y0194850D02*
X0084044Y0197052D01*
X0083310Y0196318D01*
X0082568Y0196685D02*
X0082568Y0195951D01*
X0082201Y0195584D01*
X0081100Y0195584D01*
X0081834Y0195584D02*
X0082568Y0194850D01*
X0081100Y0194850D02*
X0081100Y0197052D01*
X0082201Y0197052D01*
X0082568Y0196685D01*
X0075488Y0196685D02*
X0075121Y0197052D01*
X0074387Y0197052D01*
X0074020Y0196685D01*
X0075488Y0196685D02*
X0075488Y0196318D01*
X0074020Y0194850D01*
X0075488Y0194850D01*
X0073278Y0194850D02*
X0071810Y0194850D01*
X0072544Y0194850D02*
X0072544Y0197052D01*
X0071810Y0196318D01*
X0071068Y0196685D02*
X0071068Y0195951D01*
X0070701Y0195584D01*
X0069600Y0195584D01*
X0070334Y0195584D02*
X0071068Y0194850D01*
X0069600Y0194850D02*
X0069600Y0197052D01*
X0070701Y0197052D01*
X0071068Y0196685D01*
X0057988Y0194850D02*
X0056520Y0194850D01*
X0057254Y0194850D02*
X0057254Y0197052D01*
X0056520Y0196318D01*
X0055778Y0194850D02*
X0054310Y0194850D01*
X0055044Y0194850D02*
X0055044Y0197052D01*
X0054310Y0196318D01*
X0053568Y0196685D02*
X0053568Y0195951D01*
X0053201Y0195584D01*
X0052100Y0195584D01*
X0052834Y0195584D02*
X0053568Y0194850D01*
X0052100Y0194850D02*
X0052100Y0197052D01*
X0053201Y0197052D01*
X0053568Y0196685D01*
D17*
X0136500Y0063500D02*
X0138000Y0063500D01*
X0138000Y0059500D02*
X0136000Y0059500D01*
D18*
X0135850Y0059500D03*
X0135850Y0063500D03*
D19*
X0088559Y0065209D02*
X0083441Y0065209D01*
X0083441Y0061469D01*
X0088559Y0061272D02*
X0088559Y0057728D01*
X0083441Y0057531D02*
X0083441Y0053791D01*
X0088559Y0053791D01*
M02*
