%
M48
M72
T01C0.02362
T02C0.03200
T03C0.03800
T04C0.03937
T05C0.04000
T06C0.04331
T07C0.12500
%
T01
X230500Y35000
X269500Y151500
X252500Y152000
X269500Y111500
X245000Y109500
X257500Y66000
X245500Y86000
X273500Y73000
X252000Y121500
X272500Y38000
X85500Y25000
X152500Y38000
X94500Y57500
X152000Y44500
X245000Y164000
X85000Y62500
X306000Y112500
X267500Y181000
X250500Y180500
X267500Y174000
X250500Y172000
X221500Y51000
X221500Y89000
X228500Y51000
X228500Y89000
X225000Y47500
X225000Y85500
X235500Y51000
X235500Y89000
X232000Y47500
X232000Y85500
X239000Y47500
X239000Y85500
X218000Y85500
X205000Y64500
X160000Y32000
X105000Y64000
X306000Y102500
X252500Y176250
X272500Y204000
X252500Y184500
X182500Y194000
X155500Y34000
X96000Y46000
X96000Y37000
X242500Y11000
X96000Y41500
X77000Y59000
T02
X136000Y53000
X136000Y60000
T03
X292500Y167500
X302500Y167500
X292500Y157500
X302500Y157500
X292500Y147500
X302500Y147500
X292500Y137500
X302500Y137500
X292500Y127500
X302500Y127500
X292500Y117500
X302500Y117500
X292500Y107500
X302500Y107500
X292500Y97500
X302500Y97500
X292500Y87500
X302500Y87500
X292500Y77500
X302500Y77500
X292500Y67500
X302500Y67500
X292500Y57500
X302500Y57500
X292500Y47500
X302500Y47500
X225000Y179500
X225000Y169500
X215000Y179500
X215000Y169500
X205000Y179500
X205000Y169500
X195000Y179500
X195000Y169500
X185000Y179500
X185000Y169500
X175000Y179500
X175000Y169500
X165000Y179500
X165000Y169500
X155000Y179500
X155000Y169500
X145000Y179500
X145000Y169500
X135000Y179500
X135000Y169500
X125000Y179500
X125000Y169500
X115000Y179500
X115000Y169500
X105000Y179500
X105000Y169500
T04
X77500Y197500
X77500Y207500
X87500Y197500
X87500Y207500
X97500Y197500
X97500Y207500
X107500Y197500
X107500Y207500
X117500Y197500
X117500Y207500
X127500Y197500
X127500Y207500
X137500Y197500
X137500Y207500
X147500Y197500
X147500Y207500
X157500Y197500
X157500Y207500
X167500Y197500
X167500Y207500
X177500Y197500
X177500Y207500
X187500Y197500
X187500Y207500
X197500Y197500
X197500Y207500
X207500Y197500
X207500Y207500
X217500Y197500
X217500Y207500
X227500Y197500
X227500Y207500
X237500Y197500
X237500Y207500
X247500Y197500
X247500Y207500
X257500Y197500
X257500Y207500
X267500Y197500
X267500Y207500
X277500Y197500
X277500Y207500
X287500Y197500
X287500Y207500
X297500Y197500
X297500Y207500
X77500Y7500
X77500Y17500
X87500Y7500
X87500Y17500
X97500Y7500
X97500Y17500
X107500Y7500
X107500Y17500
X117500Y7500
X117500Y17500
X127500Y7500
X127500Y17500
X137500Y7500
X137500Y17500
X147500Y7500
X147500Y17500
X157500Y7500
X157500Y17500
X167500Y7500
X167500Y17500
X177500Y7500
X177500Y17500
X187500Y7500
X187500Y17500
X197500Y7500
X197500Y17500
X207500Y7500
X207500Y17500
X217500Y7500
X217500Y17500
X227500Y7500
X227500Y17500
X237500Y7500
X237500Y17500
X247500Y7500
X247500Y17500
X257500Y7500
X257500Y17500
X267500Y7500
X267500Y17500
X277500Y7500
X277500Y17500
X287500Y7500
X287500Y17500
X297500Y7500
X297500Y17500
T05
X272500Y167500
X272500Y177500
X272500Y187500
T06
X59000Y31831
X59000Y45610
X59000Y59390
X59000Y73169
X59000Y175390
X59000Y161610
T07
X57500Y202500
X57500Y12500
M30
