G75*
%MOIN*%
%OFA0B0*%
%FSLAX25Y25*%
%IPPOS*%
%LPD*%
%AMOC8*
5,1,8,0,0,1.08239X$1,22.5*
%
%ADD10R,0.05600X0.01400*%
%ADD11R,0.05937X0.05937*%
%ADD12C,0.05937*%
%ADD13C,0.00000*%
%ADD14R,0.05800X0.05800*%
%ADD15C,0.05800*%
%ADD16R,0.08700X0.02400*%
%ADD17R,0.03150X0.04724*%
%ADD18R,0.04724X0.03150*%
%ADD19C,0.06000*%
%ADD20C,0.05200*%
%ADD21C,0.05000*%
%ADD22C,0.06496*%
%ADD23R,0.03543X0.03150*%
%ADD24C,0.03562*%
%ADD25C,0.00800*%
%ADD26C,0.01200*%
D10*
X0256300Y0046500D03*
X0256300Y0049000D03*
X0256300Y0051600D03*
X0256300Y0054200D03*
X0256300Y0056700D03*
X0256300Y0059300D03*
X0256300Y0061800D03*
X0256300Y0064400D03*
X0256300Y0067000D03*
X0256300Y0069500D03*
X0256300Y0072059D03*
X0256300Y0074618D03*
X0278700Y0074618D03*
X0278700Y0072059D03*
X0278700Y0069500D03*
X0278700Y0067000D03*
X0278700Y0064400D03*
X0278700Y0061800D03*
X0278700Y0059300D03*
X0278700Y0056700D03*
X0278700Y0054200D03*
X0278700Y0051600D03*
X0278700Y0049000D03*
X0278700Y0046500D03*
X0278700Y0090200D03*
X0278700Y0092700D03*
X0278700Y0095300D03*
X0278700Y0097900D03*
X0278700Y0100400D03*
X0278700Y0103000D03*
X0278700Y0105500D03*
X0278700Y0108100D03*
X0278700Y0110700D03*
X0278700Y0113200D03*
X0256300Y0113200D03*
X0256300Y0110700D03*
X0256300Y0108100D03*
X0256300Y0105500D03*
X0256300Y0103000D03*
X0256300Y0100400D03*
X0256300Y0097900D03*
X0256300Y0095300D03*
X0256300Y0092700D03*
X0256300Y0090200D03*
X0256300Y0130500D03*
X0256300Y0133000D03*
X0256300Y0135600D03*
X0256300Y0138200D03*
X0256300Y0140700D03*
X0256300Y0143300D03*
X0256300Y0145800D03*
X0256300Y0148400D03*
X0256300Y0151000D03*
X0256300Y0153500D03*
X0278700Y0153500D03*
X0278700Y0151000D03*
X0278700Y0148400D03*
X0278700Y0145800D03*
X0278700Y0143300D03*
X0278700Y0140700D03*
X0278700Y0138200D03*
X0278700Y0135600D03*
X0278700Y0133000D03*
X0278700Y0130500D03*
D11*
X0082500Y0202500D03*
X0082500Y0012500D03*
D12*
X0092500Y0012500D03*
X0102500Y0012500D03*
X0112500Y0012500D03*
X0122500Y0012500D03*
X0132500Y0012500D03*
X0142500Y0012500D03*
X0152500Y0012500D03*
X0162500Y0012500D03*
X0172500Y0012500D03*
X0182500Y0012500D03*
X0192500Y0012500D03*
X0202500Y0012500D03*
X0212500Y0012500D03*
X0222500Y0012500D03*
X0232500Y0012500D03*
X0242500Y0012500D03*
X0252500Y0012500D03*
X0262500Y0012500D03*
X0272500Y0012500D03*
X0282500Y0012500D03*
X0292500Y0012500D03*
X0302500Y0012500D03*
X0302500Y0022500D03*
X0292500Y0022500D03*
X0282500Y0022500D03*
X0272500Y0022500D03*
X0262500Y0022500D03*
X0252500Y0022500D03*
X0242500Y0022500D03*
X0232500Y0022500D03*
X0222500Y0022500D03*
X0212500Y0022500D03*
X0202500Y0022500D03*
X0192500Y0022500D03*
X0182500Y0022500D03*
X0172500Y0022500D03*
X0162500Y0022500D03*
X0152500Y0022500D03*
X0142500Y0022500D03*
X0132500Y0022500D03*
X0122500Y0022500D03*
X0112500Y0022500D03*
X0102500Y0022500D03*
X0092500Y0022500D03*
X0082500Y0022500D03*
X0092500Y0202500D03*
X0102500Y0202500D03*
X0112500Y0202500D03*
X0122500Y0202500D03*
X0132500Y0202500D03*
X0142500Y0202500D03*
X0152500Y0202500D03*
X0162500Y0202500D03*
X0172500Y0202500D03*
X0182500Y0202500D03*
X0192500Y0202500D03*
X0202500Y0202500D03*
X0212500Y0202500D03*
X0222500Y0202500D03*
X0232500Y0202500D03*
X0242500Y0202500D03*
X0252500Y0202500D03*
X0262500Y0202500D03*
X0272500Y0202500D03*
X0282500Y0202500D03*
X0292500Y0202500D03*
X0302500Y0202500D03*
X0302500Y0212500D03*
X0292500Y0212500D03*
X0282500Y0212500D03*
X0272500Y0212500D03*
X0262500Y0212500D03*
X0252500Y0212500D03*
X0242500Y0212500D03*
X0232500Y0212500D03*
X0222500Y0212500D03*
X0212500Y0212500D03*
X0202500Y0212500D03*
X0192500Y0212500D03*
X0182500Y0212500D03*
X0172500Y0212500D03*
X0162500Y0212500D03*
X0152500Y0212500D03*
X0142500Y0212500D03*
X0132500Y0212500D03*
X0122500Y0212500D03*
X0112500Y0212500D03*
X0102500Y0212500D03*
X0092500Y0212500D03*
X0082500Y0212500D03*
D13*
X0050000Y0085000D02*
X0050000Y0017500D01*
X0056250Y0017500D02*
X0056252Y0017658D01*
X0056258Y0017815D01*
X0056268Y0017973D01*
X0056282Y0018130D01*
X0056300Y0018286D01*
X0056321Y0018443D01*
X0056347Y0018598D01*
X0056377Y0018753D01*
X0056410Y0018907D01*
X0056448Y0019060D01*
X0056489Y0019213D01*
X0056534Y0019364D01*
X0056583Y0019514D01*
X0056636Y0019662D01*
X0056692Y0019810D01*
X0056753Y0019955D01*
X0056816Y0020100D01*
X0056884Y0020242D01*
X0056955Y0020383D01*
X0057029Y0020522D01*
X0057107Y0020659D01*
X0057189Y0020794D01*
X0057273Y0020927D01*
X0057362Y0021058D01*
X0057453Y0021186D01*
X0057548Y0021313D01*
X0057645Y0021436D01*
X0057746Y0021558D01*
X0057850Y0021676D01*
X0057957Y0021792D01*
X0058067Y0021905D01*
X0058179Y0022016D01*
X0058295Y0022123D01*
X0058413Y0022228D01*
X0058533Y0022330D01*
X0058656Y0022428D01*
X0058782Y0022524D01*
X0058910Y0022616D01*
X0059040Y0022705D01*
X0059172Y0022791D01*
X0059307Y0022873D01*
X0059444Y0022952D01*
X0059582Y0023027D01*
X0059722Y0023099D01*
X0059865Y0023167D01*
X0060008Y0023232D01*
X0060154Y0023293D01*
X0060301Y0023350D01*
X0060449Y0023404D01*
X0060599Y0023454D01*
X0060749Y0023500D01*
X0060901Y0023542D01*
X0061054Y0023581D01*
X0061208Y0023615D01*
X0061363Y0023646D01*
X0061518Y0023672D01*
X0061674Y0023695D01*
X0061831Y0023714D01*
X0061988Y0023729D01*
X0062145Y0023740D01*
X0062303Y0023747D01*
X0062461Y0023750D01*
X0062618Y0023749D01*
X0062776Y0023744D01*
X0062933Y0023735D01*
X0063091Y0023722D01*
X0063247Y0023705D01*
X0063404Y0023684D01*
X0063559Y0023660D01*
X0063714Y0023631D01*
X0063869Y0023598D01*
X0064022Y0023562D01*
X0064175Y0023521D01*
X0064326Y0023477D01*
X0064476Y0023429D01*
X0064625Y0023378D01*
X0064773Y0023322D01*
X0064919Y0023263D01*
X0065064Y0023200D01*
X0065207Y0023133D01*
X0065348Y0023063D01*
X0065487Y0022990D01*
X0065625Y0022913D01*
X0065761Y0022832D01*
X0065894Y0022748D01*
X0066025Y0022661D01*
X0066154Y0022570D01*
X0066281Y0022476D01*
X0066406Y0022379D01*
X0066527Y0022279D01*
X0066647Y0022176D01*
X0066763Y0022070D01*
X0066877Y0021961D01*
X0066989Y0021849D01*
X0067097Y0021735D01*
X0067202Y0021617D01*
X0067305Y0021497D01*
X0067404Y0021375D01*
X0067500Y0021250D01*
X0067593Y0021122D01*
X0067683Y0020993D01*
X0067769Y0020861D01*
X0067853Y0020727D01*
X0067932Y0020591D01*
X0068009Y0020453D01*
X0068081Y0020313D01*
X0068150Y0020171D01*
X0068216Y0020028D01*
X0068278Y0019883D01*
X0068336Y0019736D01*
X0068391Y0019588D01*
X0068442Y0019439D01*
X0068489Y0019288D01*
X0068532Y0019137D01*
X0068571Y0018984D01*
X0068607Y0018830D01*
X0068638Y0018676D01*
X0068666Y0018521D01*
X0068690Y0018365D01*
X0068710Y0018208D01*
X0068726Y0018051D01*
X0068738Y0017894D01*
X0068746Y0017737D01*
X0068750Y0017579D01*
X0068750Y0017421D01*
X0068746Y0017263D01*
X0068738Y0017106D01*
X0068726Y0016949D01*
X0068710Y0016792D01*
X0068690Y0016635D01*
X0068666Y0016479D01*
X0068638Y0016324D01*
X0068607Y0016170D01*
X0068571Y0016016D01*
X0068532Y0015863D01*
X0068489Y0015712D01*
X0068442Y0015561D01*
X0068391Y0015412D01*
X0068336Y0015264D01*
X0068278Y0015117D01*
X0068216Y0014972D01*
X0068150Y0014829D01*
X0068081Y0014687D01*
X0068009Y0014547D01*
X0067932Y0014409D01*
X0067853Y0014273D01*
X0067769Y0014139D01*
X0067683Y0014007D01*
X0067593Y0013878D01*
X0067500Y0013750D01*
X0067404Y0013625D01*
X0067305Y0013503D01*
X0067202Y0013383D01*
X0067097Y0013265D01*
X0066989Y0013151D01*
X0066877Y0013039D01*
X0066763Y0012930D01*
X0066647Y0012824D01*
X0066527Y0012721D01*
X0066406Y0012621D01*
X0066281Y0012524D01*
X0066154Y0012430D01*
X0066025Y0012339D01*
X0065894Y0012252D01*
X0065761Y0012168D01*
X0065625Y0012087D01*
X0065487Y0012010D01*
X0065348Y0011937D01*
X0065207Y0011867D01*
X0065064Y0011800D01*
X0064919Y0011737D01*
X0064773Y0011678D01*
X0064625Y0011622D01*
X0064476Y0011571D01*
X0064326Y0011523D01*
X0064175Y0011479D01*
X0064022Y0011438D01*
X0063869Y0011402D01*
X0063714Y0011369D01*
X0063559Y0011340D01*
X0063404Y0011316D01*
X0063247Y0011295D01*
X0063091Y0011278D01*
X0062933Y0011265D01*
X0062776Y0011256D01*
X0062618Y0011251D01*
X0062461Y0011250D01*
X0062303Y0011253D01*
X0062145Y0011260D01*
X0061988Y0011271D01*
X0061831Y0011286D01*
X0061674Y0011305D01*
X0061518Y0011328D01*
X0061363Y0011354D01*
X0061208Y0011385D01*
X0061054Y0011419D01*
X0060901Y0011458D01*
X0060749Y0011500D01*
X0060599Y0011546D01*
X0060449Y0011596D01*
X0060301Y0011650D01*
X0060154Y0011707D01*
X0060008Y0011768D01*
X0059865Y0011833D01*
X0059722Y0011901D01*
X0059582Y0011973D01*
X0059444Y0012048D01*
X0059307Y0012127D01*
X0059172Y0012209D01*
X0059040Y0012295D01*
X0058910Y0012384D01*
X0058782Y0012476D01*
X0058656Y0012572D01*
X0058533Y0012670D01*
X0058413Y0012772D01*
X0058295Y0012877D01*
X0058179Y0012984D01*
X0058067Y0013095D01*
X0057957Y0013208D01*
X0057850Y0013324D01*
X0057746Y0013442D01*
X0057645Y0013564D01*
X0057548Y0013687D01*
X0057453Y0013814D01*
X0057362Y0013942D01*
X0057273Y0014073D01*
X0057189Y0014206D01*
X0057107Y0014341D01*
X0057029Y0014478D01*
X0056955Y0014617D01*
X0056884Y0014758D01*
X0056816Y0014900D01*
X0056753Y0015045D01*
X0056692Y0015190D01*
X0056636Y0015338D01*
X0056583Y0015486D01*
X0056534Y0015636D01*
X0056489Y0015787D01*
X0056448Y0015940D01*
X0056410Y0016093D01*
X0056377Y0016247D01*
X0056347Y0016402D01*
X0056321Y0016557D01*
X0056300Y0016714D01*
X0056282Y0016870D01*
X0056268Y0017027D01*
X0056258Y0017185D01*
X0056252Y0017342D01*
X0056250Y0017500D01*
X0050000Y0017500D02*
X0050004Y0017198D01*
X0050015Y0016896D01*
X0050033Y0016595D01*
X0050058Y0016294D01*
X0050091Y0015993D01*
X0050131Y0015694D01*
X0050178Y0015396D01*
X0050233Y0015098D01*
X0050294Y0014803D01*
X0050363Y0014509D01*
X0050439Y0014216D01*
X0050522Y0013926D01*
X0050612Y0013637D01*
X0050709Y0013351D01*
X0050812Y0013067D01*
X0050923Y0012786D01*
X0051040Y0012508D01*
X0051164Y0012232D01*
X0051295Y0011960D01*
X0051432Y0011691D01*
X0051575Y0011425D01*
X0051725Y0011163D01*
X0051882Y0010904D01*
X0052044Y0010650D01*
X0052213Y0010399D01*
X0052387Y0010153D01*
X0052568Y0009910D01*
X0052754Y0009673D01*
X0052946Y0009439D01*
X0053144Y0009211D01*
X0053347Y0008987D01*
X0053555Y0008769D01*
X0053769Y0008555D01*
X0053987Y0008347D01*
X0054211Y0008144D01*
X0054439Y0007946D01*
X0054673Y0007754D01*
X0054910Y0007568D01*
X0055153Y0007387D01*
X0055399Y0007213D01*
X0055650Y0007044D01*
X0055904Y0006882D01*
X0056163Y0006725D01*
X0056425Y0006575D01*
X0056691Y0006432D01*
X0056960Y0006295D01*
X0057232Y0006164D01*
X0057508Y0006040D01*
X0057786Y0005923D01*
X0058067Y0005812D01*
X0058351Y0005709D01*
X0058637Y0005612D01*
X0058926Y0005522D01*
X0059216Y0005439D01*
X0059509Y0005363D01*
X0059803Y0005294D01*
X0060098Y0005233D01*
X0060396Y0005178D01*
X0060694Y0005131D01*
X0060993Y0005091D01*
X0061294Y0005058D01*
X0061595Y0005033D01*
X0061896Y0005015D01*
X0062198Y0005004D01*
X0062500Y0005000D01*
X0295000Y0005000D01*
X0296208Y0005015D01*
X0297416Y0005058D01*
X0298622Y0005131D01*
X0299826Y0005233D01*
X0301027Y0005365D01*
X0302224Y0005525D01*
X0303418Y0005714D01*
X0304606Y0005931D01*
X0305789Y0006178D01*
X0306966Y0006453D01*
X0308135Y0006756D01*
X0309297Y0007088D01*
X0310451Y0007447D01*
X0311595Y0007834D01*
X0312730Y0008249D01*
X0313855Y0008691D01*
X0314968Y0009160D01*
X0316070Y0009656D01*
X0317160Y0010179D01*
X0318236Y0010727D01*
X0319299Y0011302D01*
X0320348Y0011902D01*
X0321382Y0012527D01*
X0322401Y0013176D01*
X0323403Y0013851D01*
X0324389Y0014549D01*
X0325358Y0015271D01*
X0326309Y0016016D01*
X0327242Y0016784D01*
X0328156Y0017574D01*
X0329051Y0018387D01*
X0329926Y0019220D01*
X0330780Y0020074D01*
X0331613Y0020949D01*
X0332426Y0021844D01*
X0333216Y0022758D01*
X0333984Y0023691D01*
X0334729Y0024642D01*
X0335451Y0025611D01*
X0336149Y0026597D01*
X0336824Y0027599D01*
X0337473Y0028618D01*
X0338098Y0029652D01*
X0338698Y0030701D01*
X0339273Y0031764D01*
X0339821Y0032840D01*
X0340344Y0033930D01*
X0340840Y0035032D01*
X0341309Y0036145D01*
X0341751Y0037270D01*
X0342166Y0038405D01*
X0342553Y0039549D01*
X0342912Y0040703D01*
X0343244Y0041865D01*
X0343547Y0043034D01*
X0343822Y0044211D01*
X0344069Y0045394D01*
X0344286Y0046582D01*
X0344475Y0047776D01*
X0344635Y0048973D01*
X0344767Y0050174D01*
X0344869Y0051378D01*
X0344942Y0052584D01*
X0344985Y0053792D01*
X0345000Y0055000D01*
X0345000Y0170000D01*
X0344985Y0171208D01*
X0344942Y0172416D01*
X0344869Y0173622D01*
X0344767Y0174826D01*
X0344635Y0176027D01*
X0344475Y0177224D01*
X0344286Y0178418D01*
X0344069Y0179606D01*
X0343822Y0180789D01*
X0343547Y0181966D01*
X0343244Y0183135D01*
X0342912Y0184297D01*
X0342553Y0185451D01*
X0342166Y0186595D01*
X0341751Y0187730D01*
X0341309Y0188855D01*
X0340840Y0189968D01*
X0340344Y0191070D01*
X0339821Y0192160D01*
X0339273Y0193236D01*
X0338698Y0194299D01*
X0338098Y0195348D01*
X0337473Y0196382D01*
X0336824Y0197401D01*
X0336149Y0198403D01*
X0335451Y0199389D01*
X0334729Y0200358D01*
X0333984Y0201309D01*
X0333216Y0202242D01*
X0332426Y0203156D01*
X0331613Y0204051D01*
X0330780Y0204926D01*
X0329926Y0205780D01*
X0329051Y0206613D01*
X0328156Y0207426D01*
X0327242Y0208216D01*
X0326309Y0208984D01*
X0325358Y0209729D01*
X0324389Y0210451D01*
X0323403Y0211149D01*
X0322401Y0211824D01*
X0321382Y0212473D01*
X0320348Y0213098D01*
X0319299Y0213698D01*
X0318236Y0214273D01*
X0317160Y0214821D01*
X0316070Y0215344D01*
X0314968Y0215840D01*
X0313855Y0216309D01*
X0312730Y0216751D01*
X0311595Y0217166D01*
X0310451Y0217553D01*
X0309297Y0217912D01*
X0308135Y0218244D01*
X0306966Y0218547D01*
X0305789Y0218822D01*
X0304606Y0219069D01*
X0303418Y0219286D01*
X0302224Y0219475D01*
X0301027Y0219635D01*
X0299826Y0219767D01*
X0298622Y0219869D01*
X0297416Y0219942D01*
X0296208Y0219985D01*
X0295000Y0220000D01*
X0062500Y0220000D01*
X0056250Y0207500D02*
X0056252Y0207658D01*
X0056258Y0207815D01*
X0056268Y0207973D01*
X0056282Y0208130D01*
X0056300Y0208286D01*
X0056321Y0208443D01*
X0056347Y0208598D01*
X0056377Y0208753D01*
X0056410Y0208907D01*
X0056448Y0209060D01*
X0056489Y0209213D01*
X0056534Y0209364D01*
X0056583Y0209514D01*
X0056636Y0209662D01*
X0056692Y0209810D01*
X0056753Y0209955D01*
X0056816Y0210100D01*
X0056884Y0210242D01*
X0056955Y0210383D01*
X0057029Y0210522D01*
X0057107Y0210659D01*
X0057189Y0210794D01*
X0057273Y0210927D01*
X0057362Y0211058D01*
X0057453Y0211186D01*
X0057548Y0211313D01*
X0057645Y0211436D01*
X0057746Y0211558D01*
X0057850Y0211676D01*
X0057957Y0211792D01*
X0058067Y0211905D01*
X0058179Y0212016D01*
X0058295Y0212123D01*
X0058413Y0212228D01*
X0058533Y0212330D01*
X0058656Y0212428D01*
X0058782Y0212524D01*
X0058910Y0212616D01*
X0059040Y0212705D01*
X0059172Y0212791D01*
X0059307Y0212873D01*
X0059444Y0212952D01*
X0059582Y0213027D01*
X0059722Y0213099D01*
X0059865Y0213167D01*
X0060008Y0213232D01*
X0060154Y0213293D01*
X0060301Y0213350D01*
X0060449Y0213404D01*
X0060599Y0213454D01*
X0060749Y0213500D01*
X0060901Y0213542D01*
X0061054Y0213581D01*
X0061208Y0213615D01*
X0061363Y0213646D01*
X0061518Y0213672D01*
X0061674Y0213695D01*
X0061831Y0213714D01*
X0061988Y0213729D01*
X0062145Y0213740D01*
X0062303Y0213747D01*
X0062461Y0213750D01*
X0062618Y0213749D01*
X0062776Y0213744D01*
X0062933Y0213735D01*
X0063091Y0213722D01*
X0063247Y0213705D01*
X0063404Y0213684D01*
X0063559Y0213660D01*
X0063714Y0213631D01*
X0063869Y0213598D01*
X0064022Y0213562D01*
X0064175Y0213521D01*
X0064326Y0213477D01*
X0064476Y0213429D01*
X0064625Y0213378D01*
X0064773Y0213322D01*
X0064919Y0213263D01*
X0065064Y0213200D01*
X0065207Y0213133D01*
X0065348Y0213063D01*
X0065487Y0212990D01*
X0065625Y0212913D01*
X0065761Y0212832D01*
X0065894Y0212748D01*
X0066025Y0212661D01*
X0066154Y0212570D01*
X0066281Y0212476D01*
X0066406Y0212379D01*
X0066527Y0212279D01*
X0066647Y0212176D01*
X0066763Y0212070D01*
X0066877Y0211961D01*
X0066989Y0211849D01*
X0067097Y0211735D01*
X0067202Y0211617D01*
X0067305Y0211497D01*
X0067404Y0211375D01*
X0067500Y0211250D01*
X0067593Y0211122D01*
X0067683Y0210993D01*
X0067769Y0210861D01*
X0067853Y0210727D01*
X0067932Y0210591D01*
X0068009Y0210453D01*
X0068081Y0210313D01*
X0068150Y0210171D01*
X0068216Y0210028D01*
X0068278Y0209883D01*
X0068336Y0209736D01*
X0068391Y0209588D01*
X0068442Y0209439D01*
X0068489Y0209288D01*
X0068532Y0209137D01*
X0068571Y0208984D01*
X0068607Y0208830D01*
X0068638Y0208676D01*
X0068666Y0208521D01*
X0068690Y0208365D01*
X0068710Y0208208D01*
X0068726Y0208051D01*
X0068738Y0207894D01*
X0068746Y0207737D01*
X0068750Y0207579D01*
X0068750Y0207421D01*
X0068746Y0207263D01*
X0068738Y0207106D01*
X0068726Y0206949D01*
X0068710Y0206792D01*
X0068690Y0206635D01*
X0068666Y0206479D01*
X0068638Y0206324D01*
X0068607Y0206170D01*
X0068571Y0206016D01*
X0068532Y0205863D01*
X0068489Y0205712D01*
X0068442Y0205561D01*
X0068391Y0205412D01*
X0068336Y0205264D01*
X0068278Y0205117D01*
X0068216Y0204972D01*
X0068150Y0204829D01*
X0068081Y0204687D01*
X0068009Y0204547D01*
X0067932Y0204409D01*
X0067853Y0204273D01*
X0067769Y0204139D01*
X0067683Y0204007D01*
X0067593Y0203878D01*
X0067500Y0203750D01*
X0067404Y0203625D01*
X0067305Y0203503D01*
X0067202Y0203383D01*
X0067097Y0203265D01*
X0066989Y0203151D01*
X0066877Y0203039D01*
X0066763Y0202930D01*
X0066647Y0202824D01*
X0066527Y0202721D01*
X0066406Y0202621D01*
X0066281Y0202524D01*
X0066154Y0202430D01*
X0066025Y0202339D01*
X0065894Y0202252D01*
X0065761Y0202168D01*
X0065625Y0202087D01*
X0065487Y0202010D01*
X0065348Y0201937D01*
X0065207Y0201867D01*
X0065064Y0201800D01*
X0064919Y0201737D01*
X0064773Y0201678D01*
X0064625Y0201622D01*
X0064476Y0201571D01*
X0064326Y0201523D01*
X0064175Y0201479D01*
X0064022Y0201438D01*
X0063869Y0201402D01*
X0063714Y0201369D01*
X0063559Y0201340D01*
X0063404Y0201316D01*
X0063247Y0201295D01*
X0063091Y0201278D01*
X0062933Y0201265D01*
X0062776Y0201256D01*
X0062618Y0201251D01*
X0062461Y0201250D01*
X0062303Y0201253D01*
X0062145Y0201260D01*
X0061988Y0201271D01*
X0061831Y0201286D01*
X0061674Y0201305D01*
X0061518Y0201328D01*
X0061363Y0201354D01*
X0061208Y0201385D01*
X0061054Y0201419D01*
X0060901Y0201458D01*
X0060749Y0201500D01*
X0060599Y0201546D01*
X0060449Y0201596D01*
X0060301Y0201650D01*
X0060154Y0201707D01*
X0060008Y0201768D01*
X0059865Y0201833D01*
X0059722Y0201901D01*
X0059582Y0201973D01*
X0059444Y0202048D01*
X0059307Y0202127D01*
X0059172Y0202209D01*
X0059040Y0202295D01*
X0058910Y0202384D01*
X0058782Y0202476D01*
X0058656Y0202572D01*
X0058533Y0202670D01*
X0058413Y0202772D01*
X0058295Y0202877D01*
X0058179Y0202984D01*
X0058067Y0203095D01*
X0057957Y0203208D01*
X0057850Y0203324D01*
X0057746Y0203442D01*
X0057645Y0203564D01*
X0057548Y0203687D01*
X0057453Y0203814D01*
X0057362Y0203942D01*
X0057273Y0204073D01*
X0057189Y0204206D01*
X0057107Y0204341D01*
X0057029Y0204478D01*
X0056955Y0204617D01*
X0056884Y0204758D01*
X0056816Y0204900D01*
X0056753Y0205045D01*
X0056692Y0205190D01*
X0056636Y0205338D01*
X0056583Y0205486D01*
X0056534Y0205636D01*
X0056489Y0205787D01*
X0056448Y0205940D01*
X0056410Y0206093D01*
X0056377Y0206247D01*
X0056347Y0206402D01*
X0056321Y0206557D01*
X0056300Y0206714D01*
X0056282Y0206870D01*
X0056268Y0207027D01*
X0056258Y0207185D01*
X0056252Y0207342D01*
X0056250Y0207500D01*
X0050000Y0207500D02*
X0050000Y0160000D01*
X0050002Y0159902D01*
X0050008Y0159804D01*
X0050017Y0159706D01*
X0050031Y0159609D01*
X0050048Y0159512D01*
X0050069Y0159416D01*
X0050094Y0159321D01*
X0050122Y0159227D01*
X0050155Y0159135D01*
X0050190Y0159043D01*
X0050230Y0158953D01*
X0050272Y0158865D01*
X0050319Y0158778D01*
X0050368Y0158694D01*
X0050421Y0158611D01*
X0050477Y0158531D01*
X0050537Y0158452D01*
X0050599Y0158376D01*
X0050664Y0158303D01*
X0050732Y0158232D01*
X0050803Y0158164D01*
X0050876Y0158099D01*
X0050952Y0158037D01*
X0051031Y0157977D01*
X0051111Y0157921D01*
X0051194Y0157868D01*
X0051278Y0157819D01*
X0051365Y0157772D01*
X0051453Y0157730D01*
X0051543Y0157690D01*
X0051635Y0157655D01*
X0051727Y0157622D01*
X0051821Y0157594D01*
X0051916Y0157569D01*
X0052012Y0157548D01*
X0052109Y0157531D01*
X0052206Y0157517D01*
X0052304Y0157508D01*
X0052402Y0157502D01*
X0052500Y0157500D01*
X0084000Y0157500D01*
X0084060Y0157498D01*
X0084121Y0157493D01*
X0084180Y0157484D01*
X0084239Y0157471D01*
X0084298Y0157455D01*
X0084355Y0157435D01*
X0084410Y0157412D01*
X0084465Y0157385D01*
X0084517Y0157356D01*
X0084568Y0157323D01*
X0084617Y0157287D01*
X0084663Y0157249D01*
X0084707Y0157207D01*
X0084749Y0157163D01*
X0084787Y0157117D01*
X0084823Y0157068D01*
X0084856Y0157017D01*
X0084885Y0156965D01*
X0084912Y0156910D01*
X0084935Y0156855D01*
X0084955Y0156798D01*
X0084971Y0156739D01*
X0084984Y0156680D01*
X0084993Y0156621D01*
X0084998Y0156560D01*
X0085000Y0156500D01*
X0085000Y0088500D01*
X0084998Y0088440D01*
X0084993Y0088379D01*
X0084984Y0088320D01*
X0084971Y0088261D01*
X0084955Y0088202D01*
X0084935Y0088145D01*
X0084912Y0088090D01*
X0084885Y0088035D01*
X0084856Y0087983D01*
X0084823Y0087932D01*
X0084787Y0087883D01*
X0084749Y0087837D01*
X0084707Y0087793D01*
X0084663Y0087751D01*
X0084617Y0087713D01*
X0084568Y0087677D01*
X0084517Y0087644D01*
X0084465Y0087615D01*
X0084410Y0087588D01*
X0084355Y0087565D01*
X0084298Y0087545D01*
X0084239Y0087529D01*
X0084180Y0087516D01*
X0084121Y0087507D01*
X0084060Y0087502D01*
X0084000Y0087500D01*
X0052500Y0087500D01*
X0052402Y0087498D01*
X0052304Y0087492D01*
X0052206Y0087483D01*
X0052109Y0087469D01*
X0052012Y0087452D01*
X0051916Y0087431D01*
X0051821Y0087406D01*
X0051727Y0087378D01*
X0051635Y0087345D01*
X0051543Y0087310D01*
X0051453Y0087270D01*
X0051365Y0087228D01*
X0051278Y0087181D01*
X0051194Y0087132D01*
X0051111Y0087079D01*
X0051031Y0087023D01*
X0050952Y0086963D01*
X0050876Y0086901D01*
X0050803Y0086836D01*
X0050732Y0086768D01*
X0050664Y0086697D01*
X0050599Y0086624D01*
X0050537Y0086548D01*
X0050477Y0086469D01*
X0050421Y0086389D01*
X0050368Y0086306D01*
X0050319Y0086222D01*
X0050272Y0086135D01*
X0050230Y0086047D01*
X0050190Y0085957D01*
X0050155Y0085865D01*
X0050122Y0085773D01*
X0050094Y0085679D01*
X0050069Y0085584D01*
X0050048Y0085488D01*
X0050031Y0085391D01*
X0050017Y0085294D01*
X0050008Y0085196D01*
X0050002Y0085098D01*
X0050000Y0085000D01*
X0050000Y0207500D02*
X0050004Y0207802D01*
X0050015Y0208104D01*
X0050033Y0208405D01*
X0050058Y0208706D01*
X0050091Y0209007D01*
X0050131Y0209306D01*
X0050178Y0209604D01*
X0050233Y0209902D01*
X0050294Y0210197D01*
X0050363Y0210491D01*
X0050439Y0210784D01*
X0050522Y0211074D01*
X0050612Y0211363D01*
X0050709Y0211649D01*
X0050812Y0211933D01*
X0050923Y0212214D01*
X0051040Y0212492D01*
X0051164Y0212768D01*
X0051295Y0213040D01*
X0051432Y0213309D01*
X0051575Y0213575D01*
X0051725Y0213837D01*
X0051882Y0214096D01*
X0052044Y0214350D01*
X0052213Y0214601D01*
X0052387Y0214847D01*
X0052568Y0215090D01*
X0052754Y0215327D01*
X0052946Y0215561D01*
X0053144Y0215789D01*
X0053347Y0216013D01*
X0053555Y0216231D01*
X0053769Y0216445D01*
X0053987Y0216653D01*
X0054211Y0216856D01*
X0054439Y0217054D01*
X0054673Y0217246D01*
X0054910Y0217432D01*
X0055153Y0217613D01*
X0055399Y0217787D01*
X0055650Y0217956D01*
X0055904Y0218118D01*
X0056163Y0218275D01*
X0056425Y0218425D01*
X0056691Y0218568D01*
X0056960Y0218705D01*
X0057232Y0218836D01*
X0057508Y0218960D01*
X0057786Y0219077D01*
X0058067Y0219188D01*
X0058351Y0219291D01*
X0058637Y0219388D01*
X0058926Y0219478D01*
X0059216Y0219561D01*
X0059509Y0219637D01*
X0059803Y0219706D01*
X0060098Y0219767D01*
X0060396Y0219822D01*
X0060694Y0219869D01*
X0060993Y0219909D01*
X0061294Y0219942D01*
X0061595Y0219967D01*
X0061896Y0219985D01*
X0062198Y0219996D01*
X0062500Y0220000D01*
D14*
X0230000Y0184500D03*
X0297500Y0172500D03*
D15*
X0307500Y0172500D03*
X0307500Y0162500D03*
X0297500Y0162500D03*
X0297500Y0152500D03*
X0307500Y0152500D03*
X0307500Y0142500D03*
X0297500Y0142500D03*
X0297500Y0132500D03*
X0307500Y0132500D03*
X0307500Y0122500D03*
X0297500Y0122500D03*
X0297500Y0112500D03*
X0307500Y0112500D03*
X0307500Y0102500D03*
X0297500Y0102500D03*
X0297500Y0092500D03*
X0307500Y0092500D03*
X0307500Y0082500D03*
X0297500Y0082500D03*
X0297500Y0072500D03*
X0307500Y0072500D03*
X0307500Y0062500D03*
X0297500Y0062500D03*
X0297500Y0052500D03*
X0307500Y0052500D03*
X0230000Y0174500D03*
X0220000Y0174500D03*
X0210000Y0174500D03*
X0200000Y0174500D03*
X0190000Y0174500D03*
X0180000Y0174500D03*
X0170000Y0174500D03*
X0160000Y0174500D03*
X0150000Y0174500D03*
X0140000Y0174500D03*
X0130000Y0174500D03*
X0120000Y0174500D03*
X0110000Y0174500D03*
X0110000Y0184500D03*
X0120000Y0184500D03*
X0130000Y0184500D03*
X0140000Y0184500D03*
X0150000Y0184500D03*
X0160000Y0184500D03*
X0170000Y0184500D03*
X0180000Y0184500D03*
X0190000Y0184500D03*
X0200000Y0184500D03*
X0210000Y0184500D03*
X0220000Y0184500D03*
D16*
X0170300Y0064000D03*
X0170300Y0059000D03*
X0170300Y0054000D03*
X0170300Y0049000D03*
X0149700Y0049000D03*
X0149700Y0054000D03*
X0149700Y0059000D03*
X0149700Y0064000D03*
X0114300Y0049000D03*
X0114300Y0044000D03*
X0114300Y0039000D03*
X0114300Y0034000D03*
X0093700Y0034000D03*
X0093700Y0039000D03*
X0093700Y0044000D03*
X0093700Y0049000D03*
D17*
X0095957Y0058000D03*
X0103043Y0058000D03*
X0103043Y0067500D03*
X0095957Y0067500D03*
X0145957Y0042000D03*
X0153043Y0042000D03*
X0239457Y0044500D03*
X0246543Y0044500D03*
X0273957Y0122000D03*
X0281043Y0122000D03*
X0281043Y0162000D03*
X0273957Y0162000D03*
X0087543Y0183500D03*
X0080457Y0183500D03*
X0080457Y0191500D03*
X0074543Y0191500D03*
X0067457Y0191500D03*
X0061543Y0191500D03*
X0054457Y0191500D03*
X0087543Y0191500D03*
D18*
X0255000Y0169043D03*
X0255000Y0161957D03*
X0125000Y0052043D03*
X0125000Y0044957D03*
X0132500Y0041043D03*
X0125000Y0037543D03*
X0132500Y0033957D03*
X0125000Y0030457D03*
X0253500Y0030457D03*
X0260500Y0030457D03*
X0267500Y0030457D03*
X0274500Y0030457D03*
X0281500Y0030457D03*
X0281500Y0037543D03*
X0274500Y0037543D03*
X0267500Y0037543D03*
X0260500Y0037543D03*
X0253500Y0037543D03*
D19*
X0277500Y0172500D03*
X0277500Y0182500D03*
X0277500Y0192500D03*
D20*
X0141000Y0065000D03*
X0141000Y0058000D03*
D21*
X0133000Y0046500D03*
D22*
X0064000Y0050610D03*
X0064000Y0036831D03*
X0064000Y0064390D03*
X0064000Y0078169D03*
X0064000Y0166610D03*
X0064000Y0180390D03*
D23*
X0089937Y0063240D03*
X0082063Y0059500D03*
X0089937Y0055760D03*
D24*
X0082000Y0064000D03*
X0090000Y0067500D03*
X0099500Y0062500D03*
X0110000Y0069000D03*
X0101000Y0051000D03*
X0101000Y0046500D03*
X0101000Y0042000D03*
X0090500Y0030000D03*
X0157500Y0043000D03*
X0160500Y0039000D03*
X0165000Y0037000D03*
X0157000Y0049500D03*
X0210000Y0069500D03*
X0226500Y0056000D03*
X0230000Y0052500D03*
X0233500Y0056000D03*
X0237000Y0052500D03*
X0240500Y0056000D03*
X0244000Y0052500D03*
X0235500Y0040000D03*
X0277500Y0043000D03*
X0247500Y0016000D03*
X0262500Y0071000D03*
X0278500Y0078000D03*
X0250500Y0091000D03*
X0244000Y0090500D03*
X0240500Y0094000D03*
X0237000Y0090500D03*
X0233500Y0094000D03*
X0230000Y0090500D03*
X0226500Y0094000D03*
X0223000Y0090500D03*
X0250000Y0114500D03*
X0257000Y0126500D03*
X0274500Y0116500D03*
X0311000Y0117500D03*
X0311000Y0107500D03*
X0274500Y0156500D03*
X0257500Y0157000D03*
X0250000Y0169000D03*
X0255500Y0177000D03*
X0257500Y0181250D03*
X0255500Y0185500D03*
X0257500Y0189500D03*
X0272500Y0186000D03*
X0272500Y0179000D03*
X0277500Y0209000D03*
X0187500Y0199000D03*
D25*
X0189000Y0197500D01*
X0255000Y0197500D01*
X0261000Y0191500D01*
X0261000Y0101000D01*
X0260400Y0100400D01*
X0256300Y0100400D01*
X0256300Y0097900D02*
X0261400Y0097900D01*
X0263000Y0099500D01*
X0263000Y0194500D01*
X0257500Y0200000D01*
X0257500Y0205000D01*
X0255000Y0207500D01*
X0207500Y0207500D01*
X0202500Y0212500D01*
X0177500Y0205000D02*
X0177500Y0200000D01*
X0182000Y0195500D01*
X0251500Y0195500D01*
X0257500Y0189500D01*
X0255500Y0185500D02*
X0254500Y0184500D01*
X0230000Y0184500D01*
X0253000Y0179500D02*
X0255500Y0177000D01*
X0253000Y0179500D02*
X0205000Y0179500D01*
X0200000Y0174500D01*
X0195000Y0172000D02*
X0218600Y0148400D01*
X0256300Y0148400D01*
X0256300Y0145800D02*
X0211200Y0145800D01*
X0185000Y0172000D01*
X0185000Y0187000D01*
X0180500Y0191500D01*
X0175500Y0191500D01*
X0169500Y0197500D01*
X0150000Y0197500D01*
X0147500Y0200000D01*
X0147500Y0205000D01*
X0145000Y0207500D01*
X0137500Y0207500D01*
X0132500Y0212500D01*
X0132500Y0202500D02*
X0141500Y0193500D01*
X0158500Y0193500D01*
X0165000Y0187000D01*
X0165000Y0172000D01*
X0196300Y0140700D01*
X0256300Y0140700D01*
X0256300Y0138200D02*
X0248200Y0138200D01*
X0223000Y0113000D01*
X0223000Y0090500D01*
X0221500Y0087500D02*
X0155000Y0154000D01*
X0155000Y0179500D01*
X0160000Y0184500D01*
X0150000Y0184500D02*
X0145000Y0179500D01*
X0145000Y0157500D01*
X0217000Y0085500D01*
X0263000Y0085500D01*
X0267700Y0090200D01*
X0278700Y0090200D01*
X0278700Y0092700D02*
X0266700Y0092700D01*
X0261500Y0087500D01*
X0221500Y0087500D01*
X0230000Y0090500D02*
X0230000Y0111000D01*
X0252000Y0133000D01*
X0256300Y0133000D01*
X0256300Y0135600D02*
X0250100Y0135600D01*
X0226500Y0112000D01*
X0226500Y0094000D01*
X0233500Y0094000D02*
X0233500Y0099500D01*
X0244700Y0110700D01*
X0256300Y0110700D01*
X0256300Y0108100D02*
X0246600Y0108100D01*
X0237000Y0098500D01*
X0237000Y0090500D01*
X0240500Y0094000D02*
X0240500Y0097500D01*
X0248500Y0105500D01*
X0256300Y0105500D01*
X0256300Y0103000D02*
X0250500Y0103000D01*
X0244000Y0096500D01*
X0244000Y0090500D01*
X0250500Y0091000D02*
X0251300Y0090200D01*
X0256300Y0090200D01*
X0256300Y0092700D02*
X0263200Y0092700D01*
X0267000Y0096500D01*
X0267000Y0189500D01*
X0277500Y0200000D01*
X0277500Y0209000D01*
X0283000Y0208531D02*
X0283000Y0206468D01*
X0283289Y0206468D01*
X0284748Y0205864D01*
X0285864Y0204748D01*
X0286468Y0203289D01*
X0286468Y0201711D01*
X0285864Y0200252D01*
X0284748Y0199136D01*
X0283289Y0198531D01*
X0281711Y0198531D01*
X0281000Y0198826D01*
X0281000Y0194503D01*
X0281500Y0193296D01*
X0281500Y0191704D01*
X0281000Y0190497D01*
X0281000Y0184503D01*
X0281500Y0183296D01*
X0281500Y0181704D01*
X0281000Y0180497D01*
X0281000Y0174503D01*
X0281500Y0173296D01*
X0281500Y0171704D01*
X0281000Y0170497D01*
X0281000Y0162387D01*
X0281431Y0162387D01*
X0284018Y0162387D01*
X0284018Y0164547D01*
X0283923Y0164903D01*
X0283738Y0165222D01*
X0283478Y0165482D01*
X0283158Y0165667D01*
X0282802Y0165762D01*
X0281431Y0165762D01*
X0281431Y0162387D01*
X0281431Y0161613D01*
X0284018Y0161613D01*
X0284018Y0159453D01*
X0283923Y0159097D01*
X0283738Y0158778D01*
X0283478Y0158518D01*
X0283158Y0158333D01*
X0282802Y0158238D01*
X0281431Y0158238D01*
X0281431Y0161613D01*
X0281000Y0161613D01*
X0281000Y0158500D01*
X0278500Y0156000D01*
X0278500Y0155600D01*
X0278700Y0155600D01*
X0278700Y0153500D01*
X0278700Y0153500D01*
X0282900Y0153500D01*
X0282900Y0154384D01*
X0282805Y0154740D01*
X0282620Y0155060D01*
X0282360Y0155320D01*
X0282040Y0155505D01*
X0281684Y0155600D01*
X0278700Y0155600D01*
X0278700Y0153500D01*
X0278700Y0153500D01*
X0285100Y0153500D01*
X0285100Y0162080D01*
X0293600Y0170580D01*
X0293600Y0175814D01*
X0294186Y0176400D01*
X0300814Y0176400D01*
X0301400Y0175814D01*
X0301400Y0173000D01*
X0303600Y0173000D01*
X0303600Y0173276D01*
X0304194Y0174709D01*
X0305291Y0175806D01*
X0306724Y0176400D01*
X0308276Y0176400D01*
X0309709Y0175806D01*
X0310806Y0174709D01*
X0311400Y0173276D01*
X0311400Y0171724D01*
X0310806Y0170291D01*
X0309709Y0169194D01*
X0308276Y0168600D01*
X0308000Y0168600D01*
X0308000Y0166400D01*
X0308276Y0166400D01*
X0309709Y0165806D01*
X0310806Y0164709D01*
X0311400Y0163276D01*
X0311400Y0161724D01*
X0310806Y0160291D01*
X0309709Y0159194D01*
X0308276Y0158600D01*
X0308000Y0158600D01*
X0308000Y0156400D01*
X0308276Y0156400D01*
X0309709Y0155806D01*
X0310806Y0154709D01*
X0311400Y0153276D01*
X0311400Y0151724D01*
X0310806Y0150291D01*
X0309709Y0149194D01*
X0308276Y0148600D01*
X0308000Y0148600D01*
X0308000Y0146400D01*
X0308276Y0146400D01*
X0309709Y0145806D01*
X0310806Y0144709D01*
X0311400Y0143276D01*
X0311400Y0141724D01*
X0310806Y0140291D01*
X0309709Y0139194D01*
X0308276Y0138600D01*
X0306724Y0138600D01*
X0305291Y0139194D01*
X0305242Y0139242D01*
X0300758Y0134758D01*
X0300806Y0134709D01*
X0301400Y0133276D01*
X0301400Y0131724D01*
X0300806Y0130291D01*
X0299709Y0129194D01*
X0298276Y0128600D01*
X0296724Y0128600D01*
X0295517Y0129100D01*
X0295100Y0129100D01*
X0295000Y0129000D01*
X0282114Y0129000D01*
X0281914Y0128800D01*
X0281000Y0128800D01*
X0281000Y0122387D01*
X0281431Y0122387D01*
X0284018Y0122387D01*
X0284018Y0124547D01*
X0283923Y0124903D01*
X0283738Y0125222D01*
X0283478Y0125482D01*
X0283158Y0125667D01*
X0282802Y0125762D01*
X0281431Y0125762D01*
X0281431Y0122387D01*
X0281431Y0121613D01*
X0284018Y0121613D01*
X0284018Y0119453D01*
X0283923Y0119097D01*
X0283738Y0118778D01*
X0283478Y0118518D01*
X0283158Y0118333D01*
X0282802Y0118238D01*
X0281431Y0118238D01*
X0281431Y0121613D01*
X0281000Y0121613D01*
X0281000Y0118500D01*
X0278500Y0116000D01*
X0278500Y0115300D01*
X0278700Y0115300D01*
X0278700Y0113200D01*
X0278700Y0113200D01*
X0282900Y0113200D01*
X0282900Y0114084D01*
X0282805Y0114440D01*
X0282620Y0114760D01*
X0282360Y0115020D01*
X0282040Y0115205D01*
X0281684Y0115300D01*
X0278700Y0115300D01*
X0278700Y0113200D01*
X0278700Y0113200D01*
X0282900Y0113200D01*
X0282900Y0113000D01*
X0286020Y0113000D01*
X0293935Y0120915D01*
X0293600Y0121724D01*
X0293600Y0123276D01*
X0294194Y0124709D01*
X0295291Y0125806D01*
X0296724Y0126400D01*
X0298276Y0126400D01*
X0299709Y0125806D01*
X0300806Y0124709D01*
X0301400Y0123276D01*
X0301400Y0123000D01*
X0303600Y0123000D01*
X0303600Y0123276D01*
X0304194Y0124709D01*
X0305291Y0125806D01*
X0306724Y0126400D01*
X0308276Y0126400D01*
X0309709Y0125806D01*
X0310806Y0124709D01*
X0311400Y0123276D01*
X0311400Y0121724D01*
X0310806Y0120291D01*
X0310797Y0120281D01*
X0311553Y0120281D01*
X0312575Y0119858D01*
X0313358Y0119075D01*
X0313781Y0118053D01*
X0313781Y0116947D01*
X0313358Y0115925D01*
X0312575Y0115142D01*
X0311553Y0114719D01*
X0310797Y0114719D01*
X0310806Y0114709D01*
X0311400Y0113276D01*
X0311400Y0111724D01*
X0310806Y0110291D01*
X0310797Y0110281D01*
X0311553Y0110281D01*
X0312575Y0109858D01*
X0313358Y0109075D01*
X0313781Y0108053D01*
X0313781Y0106947D01*
X0313708Y0106771D01*
X0313900Y0106580D01*
X0313900Y0051580D01*
X0313900Y0050580D01*
X0313900Y0049420D01*
X0297080Y0032600D01*
X0285151Y0032600D01*
X0285167Y0032572D01*
X0285262Y0032216D01*
X0285262Y0030844D01*
X0281887Y0030844D01*
X0281887Y0030069D01*
X0281887Y0027482D01*
X0284047Y0027482D01*
X0284403Y0027577D01*
X0284722Y0027762D01*
X0284982Y0028022D01*
X0285167Y0028341D01*
X0285262Y0028698D01*
X0285262Y0030069D01*
X0281887Y0030069D01*
X0281113Y0030069D01*
X0281113Y0027482D01*
X0278953Y0027482D01*
X0278597Y0027577D01*
X0278278Y0027762D01*
X0278018Y0028022D01*
X0278000Y0028053D01*
X0277982Y0028022D01*
X0277722Y0027762D01*
X0277403Y0027577D01*
X0277047Y0027482D01*
X0274887Y0027482D01*
X0274887Y0030069D01*
X0274113Y0030069D01*
X0274113Y0027482D01*
X0271953Y0027482D01*
X0271597Y0027577D01*
X0271278Y0027762D01*
X0271018Y0028022D01*
X0271000Y0028053D01*
X0270982Y0028022D01*
X0270722Y0027762D01*
X0270403Y0027577D01*
X0270047Y0027482D01*
X0267887Y0027482D01*
X0267887Y0030069D01*
X0267113Y0030069D01*
X0267113Y0027482D01*
X0264953Y0027482D01*
X0264597Y0027577D01*
X0264278Y0027762D01*
X0264018Y0028022D01*
X0264000Y0028053D01*
X0263982Y0028022D01*
X0263722Y0027762D01*
X0263403Y0027577D01*
X0263047Y0027482D01*
X0260887Y0027482D01*
X0260887Y0030069D01*
X0260113Y0030069D01*
X0260113Y0027482D01*
X0257953Y0027482D01*
X0257597Y0027577D01*
X0257278Y0027762D01*
X0257018Y0028022D01*
X0257000Y0028053D01*
X0256982Y0028022D01*
X0256722Y0027762D01*
X0256403Y0027577D01*
X0256047Y0027482D01*
X0253887Y0027482D01*
X0253887Y0030069D01*
X0253113Y0030069D01*
X0253113Y0027482D01*
X0253000Y0027482D01*
X0253000Y0026468D01*
X0253289Y0026468D01*
X0254748Y0025864D01*
X0255864Y0024748D01*
X0256468Y0023289D01*
X0256468Y0021711D01*
X0255864Y0020252D01*
X0254748Y0019136D01*
X0253289Y0018531D01*
X0253000Y0018531D01*
X0253000Y0016468D01*
X0253289Y0016468D01*
X0254748Y0015864D01*
X0255864Y0014748D01*
X0256468Y0013289D01*
X0256468Y0011711D01*
X0255864Y0010252D01*
X0254748Y0009136D01*
X0253289Y0008531D01*
X0251711Y0008531D01*
X0250252Y0009136D01*
X0249136Y0010252D01*
X0248531Y0011711D01*
X0248531Y0012500D01*
X0246468Y0012500D01*
X0246468Y0011711D01*
X0245864Y0010252D01*
X0244748Y0009136D01*
X0243289Y0008531D01*
X0241711Y0008531D01*
X0240252Y0009136D01*
X0239136Y0010252D01*
X0238531Y0011711D01*
X0238531Y0012500D01*
X0236468Y0012500D01*
X0236468Y0011711D01*
X0235864Y0010252D01*
X0234748Y0009136D01*
X0233289Y0008531D01*
X0231711Y0008531D01*
X0230252Y0009136D01*
X0229136Y0010252D01*
X0228531Y0011711D01*
X0228531Y0012500D01*
X0226468Y0012500D01*
X0226468Y0011711D01*
X0225864Y0010252D01*
X0224748Y0009136D01*
X0223289Y0008531D01*
X0221711Y0008531D01*
X0220252Y0009136D01*
X0219136Y0010252D01*
X0218531Y0011711D01*
X0218531Y0012500D01*
X0216468Y0012500D01*
X0216468Y0011711D01*
X0215864Y0010252D01*
X0214748Y0009136D01*
X0213289Y0008531D01*
X0211711Y0008531D01*
X0210252Y0009136D01*
X0209136Y0010252D01*
X0208531Y0011711D01*
X0208531Y0012500D01*
X0206468Y0012500D01*
X0206468Y0011711D01*
X0205864Y0010252D01*
X0204748Y0009136D01*
X0203289Y0008531D01*
X0201711Y0008531D01*
X0200252Y0009136D01*
X0199136Y0010252D01*
X0198531Y0011711D01*
X0198531Y0012500D01*
X0196468Y0012500D01*
X0196468Y0011711D01*
X0195864Y0010252D01*
X0194748Y0009136D01*
X0193289Y0008531D01*
X0191711Y0008531D01*
X0190252Y0009136D01*
X0189136Y0010252D01*
X0188531Y0011711D01*
X0188531Y0012500D01*
X0186468Y0012500D01*
X0186468Y0011711D01*
X0185864Y0010252D01*
X0184748Y0009136D01*
X0183289Y0008531D01*
X0181711Y0008531D01*
X0180252Y0009136D01*
X0179136Y0010252D01*
X0178531Y0011711D01*
X0178531Y0012500D01*
X0176468Y0012500D01*
X0176468Y0011711D01*
X0175864Y0010252D01*
X0174748Y0009136D01*
X0173289Y0008531D01*
X0171711Y0008531D01*
X0170252Y0009136D01*
X0169136Y0010252D01*
X0168531Y0011711D01*
X0168531Y0012500D01*
X0166468Y0012500D01*
X0166468Y0011711D01*
X0165864Y0010252D01*
X0164748Y0009136D01*
X0163289Y0008531D01*
X0161711Y0008531D01*
X0160252Y0009136D01*
X0159136Y0010252D01*
X0158531Y0011711D01*
X0158531Y0012500D01*
X0156468Y0012500D01*
X0156468Y0011711D01*
X0155864Y0010252D01*
X0154748Y0009136D01*
X0153289Y0008531D01*
X0151711Y0008531D01*
X0150252Y0009136D01*
X0149136Y0010252D01*
X0148531Y0011711D01*
X0148531Y0012500D01*
X0146468Y0012500D01*
X0146468Y0011711D01*
X0145864Y0010252D01*
X0144748Y0009136D01*
X0143289Y0008531D01*
X0141711Y0008531D01*
X0140252Y0009136D01*
X0139136Y0010252D01*
X0138531Y0011711D01*
X0138531Y0012500D01*
X0136468Y0012500D01*
X0136468Y0011711D01*
X0135864Y0010252D01*
X0134748Y0009136D01*
X0133289Y0008531D01*
X0131711Y0008531D01*
X0130252Y0009136D01*
X0129136Y0010252D01*
X0128531Y0011711D01*
X0128531Y0013289D01*
X0129136Y0014748D01*
X0130252Y0015864D01*
X0131711Y0016468D01*
X0132500Y0016468D01*
X0132500Y0018531D01*
X0131711Y0018531D01*
X0130252Y0019136D01*
X0129136Y0020252D01*
X0128531Y0021711D01*
X0128531Y0023000D01*
X0126468Y0023000D01*
X0126468Y0021711D01*
X0125864Y0020252D01*
X0124748Y0019136D01*
X0123289Y0018531D01*
X0121711Y0018531D01*
X0120252Y0019136D01*
X0119136Y0020252D01*
X0118531Y0021711D01*
X0118531Y0023000D01*
X0116468Y0023000D01*
X0116468Y0021711D01*
X0115864Y0020252D01*
X0114748Y0019136D01*
X0113289Y0018531D01*
X0111711Y0018531D01*
X0110252Y0019136D01*
X0109136Y0020252D01*
X0108531Y0021711D01*
X0108531Y0023000D01*
X0106844Y0023000D01*
X0106860Y0022900D01*
X0102900Y0022900D01*
X0102900Y0022100D01*
X0106860Y0022100D01*
X0106761Y0021477D01*
X0106548Y0020823D01*
X0106236Y0020210D01*
X0105832Y0019654D01*
X0105346Y0019168D01*
X0104790Y0018764D01*
X0104177Y0018452D01*
X0103523Y0018239D01*
X0102900Y0018140D01*
X0102900Y0022100D01*
X0102100Y0022100D01*
X0102100Y0018140D01*
X0101477Y0018239D01*
X0100823Y0018452D01*
X0100210Y0018764D01*
X0099654Y0019168D01*
X0099168Y0019654D01*
X0098764Y0020210D01*
X0098452Y0020823D01*
X0098239Y0021477D01*
X0098140Y0022100D01*
X0102100Y0022100D01*
X0102100Y0022900D01*
X0098900Y0022900D01*
X0096000Y0020000D01*
X0095612Y0020000D01*
X0094748Y0019136D01*
X0093289Y0018531D01*
X0091711Y0018531D01*
X0090252Y0019136D01*
X0089136Y0020252D01*
X0088531Y0021711D01*
X0088531Y0022968D01*
X0088500Y0023000D01*
X0088500Y0028067D01*
X0088142Y0028425D01*
X0087719Y0029447D01*
X0087719Y0030553D01*
X0088142Y0031575D01*
X0088500Y0031933D01*
X0088500Y0032236D01*
X0088350Y0032386D01*
X0088350Y0035614D01*
X0088500Y0035764D01*
X0088500Y0037236D01*
X0088350Y0037386D01*
X0088350Y0040614D01*
X0088500Y0040764D01*
X0088500Y0042236D01*
X0088350Y0042386D01*
X0088350Y0045614D01*
X0088500Y0045764D01*
X0088500Y0047236D01*
X0088350Y0047386D01*
X0088350Y0050614D01*
X0088500Y0050764D01*
X0088500Y0053185D01*
X0087751Y0053185D01*
X0087165Y0053771D01*
X0087165Y0057749D01*
X0087751Y0058335D01*
X0088500Y0058335D01*
X0088500Y0060665D01*
X0087751Y0060665D01*
X0087165Y0061251D01*
X0087165Y0065229D01*
X0087751Y0065815D01*
X0087752Y0065815D01*
X0087642Y0065925D01*
X0087219Y0066947D01*
X0087219Y0068053D01*
X0087642Y0069075D01*
X0088425Y0069858D01*
X0089447Y0070281D01*
X0090553Y0070281D01*
X0091575Y0069858D01*
X0091717Y0069717D01*
X0093000Y0071000D01*
X0103500Y0071000D01*
X0103500Y0179020D01*
X0100420Y0182100D01*
X0090118Y0182100D01*
X0090118Y0180724D01*
X0089532Y0180138D01*
X0085554Y0180138D01*
X0084969Y0180724D01*
X0084969Y0186276D01*
X0085000Y0186308D01*
X0085000Y0188692D01*
X0084969Y0188724D01*
X0084969Y0192000D01*
X0083431Y0192000D01*
X0083431Y0191887D01*
X0080844Y0191887D01*
X0080844Y0191113D01*
X0083431Y0191113D01*
X0083431Y0188953D01*
X0083336Y0188597D01*
X0083152Y0188278D01*
X0082891Y0188018D01*
X0082572Y0187833D01*
X0082216Y0187738D01*
X0080844Y0187738D01*
X0080844Y0191113D01*
X0080069Y0191113D01*
X0074931Y0191113D01*
X0074931Y0191887D01*
X0077518Y0191887D01*
X0080069Y0191887D01*
X0080069Y0191113D01*
X0080069Y0187738D01*
X0078698Y0187738D01*
X0078341Y0187833D01*
X0078022Y0188018D01*
X0077762Y0188278D01*
X0077577Y0188597D01*
X0077500Y0188886D01*
X0077423Y0188597D01*
X0077238Y0188278D01*
X0076978Y0188018D01*
X0076658Y0187833D01*
X0076302Y0187738D01*
X0074931Y0187738D01*
X0074931Y0191113D01*
X0074156Y0191113D01*
X0074156Y0187738D01*
X0072784Y0187738D01*
X0072428Y0187833D01*
X0072355Y0187875D01*
X0071580Y0187100D01*
X0070580Y0186100D01*
X0064420Y0186100D01*
X0063600Y0186920D01*
X0062382Y0188138D01*
X0059554Y0188138D01*
X0058969Y0188724D01*
X0058969Y0192000D01*
X0057431Y0192000D01*
X0057431Y0191887D01*
X0054844Y0191887D01*
X0054844Y0191113D01*
X0057431Y0191113D01*
X0057431Y0188953D01*
X0057336Y0188597D01*
X0057152Y0188278D01*
X0056891Y0188018D01*
X0056572Y0187833D01*
X0056216Y0187738D01*
X0054844Y0187738D01*
X0054844Y0191113D01*
X0054069Y0191113D01*
X0051482Y0191113D01*
X0051482Y0188953D01*
X0051577Y0188597D01*
X0051762Y0188278D01*
X0052022Y0188018D01*
X0052341Y0187833D01*
X0052698Y0187738D01*
X0054069Y0187738D01*
X0054069Y0191113D01*
X0054069Y0191887D01*
X0051482Y0191887D01*
X0051482Y0192000D01*
X0051400Y0192000D01*
X0051400Y0160000D01*
X0051437Y0159715D01*
X0051722Y0159222D01*
X0052215Y0158937D01*
X0052500Y0158900D01*
X0084643Y0158900D01*
X0085757Y0158257D01*
X0085757Y0158257D01*
X0085757Y0158257D01*
X0086400Y0157143D01*
X0086400Y0087857D01*
X0085757Y0086743D01*
X0085757Y0086743D01*
X0085757Y0086743D01*
X0084643Y0086100D01*
X0052500Y0086100D01*
X0052215Y0086063D01*
X0051722Y0085778D01*
X0051437Y0085285D01*
X0051400Y0085000D01*
X0051400Y0030400D01*
X0062351Y0030400D01*
X0062363Y0030411D01*
X0062514Y0030400D01*
X0062666Y0030400D01*
X0062677Y0030388D01*
X0064175Y0030281D01*
X0064202Y0030299D01*
X0064336Y0030270D01*
X0064473Y0030260D01*
X0064494Y0030235D01*
X0065977Y0029913D01*
X0066006Y0029926D01*
X0066135Y0029878D01*
X0066269Y0029849D01*
X0066286Y0029822D01*
X0067708Y0029292D01*
X0067739Y0029301D01*
X0067859Y0029235D01*
X0067988Y0029187D01*
X0068001Y0029158D01*
X0069333Y0028431D01*
X0069365Y0028435D01*
X0069475Y0028353D01*
X0069595Y0028287D01*
X0069604Y0028256D01*
X0070819Y0027347D01*
X0070851Y0027347D01*
X0070948Y0027250D01*
X0071058Y0027168D01*
X0071063Y0027136D01*
X0072136Y0026063D01*
X0072168Y0026058D01*
X0072250Y0025948D01*
X0072347Y0025851D01*
X0072347Y0025819D01*
X0073256Y0024604D01*
X0073287Y0024595D01*
X0073353Y0024475D01*
X0073435Y0024365D01*
X0073431Y0024333D01*
X0074158Y0023001D01*
X0074187Y0022988D01*
X0074235Y0022859D01*
X0074301Y0022739D01*
X0074292Y0022708D01*
X0074822Y0021286D01*
X0074849Y0021269D01*
X0074878Y0021135D01*
X0074926Y0021006D01*
X0074913Y0020977D01*
X0075235Y0019494D01*
X0075260Y0019473D01*
X0075270Y0019336D01*
X0075299Y0019202D01*
X0075281Y0019175D01*
X0075388Y0017677D01*
X0075400Y0017666D01*
X0075400Y0017514D01*
X0075411Y0017363D01*
X0075400Y0017351D01*
X0075400Y0006400D01*
X0295000Y0006400D01*
X0298813Y0006550D01*
X0306345Y0007743D01*
X0313598Y0010099D01*
X0320393Y0013562D01*
X0326563Y0018044D01*
X0326563Y0018044D01*
X0331956Y0023437D01*
X0336438Y0029607D01*
X0339901Y0036402D01*
X0342257Y0043655D01*
X0343450Y0051187D01*
X0343600Y0055000D01*
X0343600Y0170000D01*
X0343450Y0173813D01*
X0342257Y0181345D01*
X0339901Y0188598D01*
X0336438Y0195393D01*
X0331956Y0201563D01*
X0326563Y0206956D01*
X0320393Y0211438D01*
X0313598Y0214901D01*
X0306345Y0217257D01*
X0298813Y0218450D01*
X0295000Y0218600D01*
X0283000Y0218600D01*
X0283000Y0216468D01*
X0283289Y0216468D01*
X0284748Y0215864D01*
X0285864Y0214748D01*
X0286468Y0213289D01*
X0286468Y0211711D01*
X0285864Y0210252D01*
X0284748Y0209136D01*
X0283289Y0208531D01*
X0283000Y0208531D01*
X0283504Y0208620D02*
X0291496Y0208620D01*
X0291711Y0208531D02*
X0293289Y0208531D01*
X0294748Y0209136D01*
X0295864Y0210252D01*
X0296468Y0211711D01*
X0296468Y0213289D01*
X0295864Y0214748D01*
X0294748Y0215864D01*
X0293289Y0216468D01*
X0291711Y0216468D01*
X0290252Y0215864D01*
X0289136Y0214748D01*
X0288531Y0213289D01*
X0288531Y0211711D01*
X0289136Y0210252D01*
X0290252Y0209136D01*
X0291711Y0208531D01*
X0293504Y0208620D02*
X0301496Y0208620D01*
X0301711Y0208531D02*
X0303289Y0208531D01*
X0304748Y0209136D01*
X0305864Y0210252D01*
X0306468Y0211711D01*
X0306468Y0213289D01*
X0305864Y0214748D01*
X0304748Y0215864D01*
X0303289Y0216468D01*
X0301711Y0216468D01*
X0300252Y0215864D01*
X0299136Y0214748D01*
X0298531Y0213289D01*
X0298531Y0211711D01*
X0299136Y0210252D01*
X0300252Y0209136D01*
X0301711Y0208531D01*
X0303504Y0208620D02*
X0324272Y0208620D01*
X0325371Y0207822D02*
X0283000Y0207822D01*
X0283000Y0207023D02*
X0326470Y0207023D01*
X0327294Y0206225D02*
X0303878Y0206225D01*
X0303289Y0206468D02*
X0301711Y0206468D01*
X0300252Y0205864D01*
X0299136Y0204748D01*
X0298531Y0203289D01*
X0298531Y0201711D01*
X0299136Y0200252D01*
X0300252Y0199136D01*
X0301711Y0198531D01*
X0303289Y0198531D01*
X0304748Y0199136D01*
X0305864Y0200252D01*
X0306468Y0201711D01*
X0306468Y0203289D01*
X0305864Y0204748D01*
X0304748Y0205864D01*
X0303289Y0206468D01*
X0305186Y0205426D02*
X0328093Y0205426D01*
X0328891Y0204628D02*
X0305914Y0204628D01*
X0306245Y0203829D02*
X0329690Y0203829D01*
X0330488Y0203031D02*
X0306468Y0203031D01*
X0306468Y0202232D02*
X0331287Y0202232D01*
X0332050Y0201434D02*
X0306354Y0201434D01*
X0306023Y0200635D02*
X0332630Y0200635D01*
X0333210Y0199837D02*
X0305449Y0199837D01*
X0304513Y0199038D02*
X0333790Y0199038D01*
X0334370Y0198240D02*
X0281000Y0198240D01*
X0281000Y0197441D02*
X0334950Y0197441D01*
X0335531Y0196643D02*
X0281000Y0196643D01*
X0281000Y0195844D02*
X0336111Y0195844D01*
X0336615Y0195046D02*
X0281000Y0195046D01*
X0281106Y0194247D02*
X0337022Y0194247D01*
X0337429Y0193449D02*
X0281437Y0193449D01*
X0281500Y0192650D02*
X0337836Y0192650D01*
X0338243Y0191852D02*
X0281500Y0191852D01*
X0281230Y0191053D02*
X0338650Y0191053D01*
X0339057Y0190255D02*
X0281000Y0190255D01*
X0281000Y0189456D02*
X0339464Y0189456D01*
X0339870Y0188658D02*
X0281000Y0188658D01*
X0281000Y0187859D02*
X0340141Y0187859D01*
X0340400Y0187061D02*
X0281000Y0187061D01*
X0281000Y0186262D02*
X0340660Y0186262D01*
X0340919Y0185464D02*
X0281000Y0185464D01*
X0281000Y0184665D02*
X0341179Y0184665D01*
X0341438Y0183867D02*
X0281264Y0183867D01*
X0281500Y0183068D02*
X0341697Y0183068D01*
X0341957Y0182270D02*
X0281500Y0182270D01*
X0281403Y0181471D02*
X0342216Y0181471D01*
X0342364Y0180672D02*
X0281073Y0180672D01*
X0281000Y0179874D02*
X0342490Y0179874D01*
X0342617Y0179075D02*
X0281000Y0179075D01*
X0281000Y0178277D02*
X0342743Y0178277D01*
X0342870Y0177478D02*
X0281000Y0177478D01*
X0281000Y0176680D02*
X0342996Y0176680D01*
X0343123Y0175881D02*
X0309528Y0175881D01*
X0310433Y0175083D02*
X0343249Y0175083D01*
X0343376Y0174284D02*
X0310982Y0174284D01*
X0311313Y0173486D02*
X0343463Y0173486D01*
X0343494Y0172687D02*
X0311400Y0172687D01*
X0311400Y0171889D02*
X0343526Y0171889D01*
X0343557Y0171090D02*
X0311137Y0171090D01*
X0310807Y0170292D02*
X0343589Y0170292D01*
X0343600Y0169493D02*
X0310009Y0169493D01*
X0308505Y0168695D02*
X0343600Y0168695D01*
X0343600Y0167896D02*
X0308000Y0167896D01*
X0308000Y0167098D02*
X0343600Y0167098D01*
X0343600Y0166299D02*
X0308519Y0166299D01*
X0310015Y0165501D02*
X0343600Y0165501D01*
X0343600Y0164702D02*
X0310809Y0164702D01*
X0311140Y0163904D02*
X0343600Y0163904D01*
X0343600Y0163105D02*
X0311400Y0163105D01*
X0311400Y0162307D02*
X0343600Y0162307D01*
X0343600Y0161508D02*
X0311311Y0161508D01*
X0310980Y0160710D02*
X0343600Y0160710D01*
X0343600Y0159911D02*
X0310427Y0159911D01*
X0309513Y0159113D02*
X0343600Y0159113D01*
X0343600Y0158314D02*
X0308000Y0158314D01*
X0308000Y0157516D02*
X0343600Y0157516D01*
X0343600Y0156717D02*
X0308000Y0156717D01*
X0309438Y0155919D02*
X0343600Y0155919D01*
X0343600Y0155120D02*
X0310395Y0155120D01*
X0310967Y0154322D02*
X0343600Y0154322D01*
X0343600Y0153523D02*
X0311298Y0153523D01*
X0311400Y0152725D02*
X0343600Y0152725D01*
X0343600Y0151926D02*
X0311400Y0151926D01*
X0311153Y0151128D02*
X0343600Y0151128D01*
X0343600Y0150329D02*
X0310822Y0150329D01*
X0310046Y0149531D02*
X0343600Y0149531D01*
X0343600Y0148732D02*
X0308595Y0148732D01*
X0308000Y0147934D02*
X0343600Y0147934D01*
X0343600Y0147135D02*
X0308000Y0147135D01*
X0308429Y0146337D02*
X0343600Y0146337D01*
X0343600Y0145538D02*
X0309977Y0145538D01*
X0310776Y0144739D02*
X0343600Y0144739D01*
X0343600Y0143941D02*
X0311124Y0143941D01*
X0311400Y0143142D02*
X0343600Y0143142D01*
X0343600Y0142344D02*
X0311400Y0142344D01*
X0311326Y0141545D02*
X0343600Y0141545D01*
X0343600Y0140747D02*
X0310995Y0140747D01*
X0310464Y0139948D02*
X0343600Y0139948D01*
X0343600Y0139150D02*
X0309603Y0139150D01*
X0308276Y0136400D02*
X0306724Y0136400D01*
X0305291Y0135806D01*
X0304194Y0134709D01*
X0303600Y0133276D01*
X0303600Y0131724D01*
X0304194Y0130291D01*
X0305291Y0129194D01*
X0306724Y0128600D01*
X0308276Y0128600D01*
X0309709Y0129194D01*
X0310806Y0130291D01*
X0311400Y0131724D01*
X0311400Y0133276D01*
X0310806Y0134709D01*
X0309709Y0135806D01*
X0308276Y0136400D01*
X0309348Y0135956D02*
X0343600Y0135956D01*
X0343600Y0136754D02*
X0302754Y0136754D01*
X0301956Y0135956D02*
X0305652Y0135956D01*
X0304642Y0135157D02*
X0301157Y0135157D01*
X0300951Y0134359D02*
X0304049Y0134359D01*
X0303718Y0133560D02*
X0301282Y0133560D01*
X0301400Y0132762D02*
X0303600Y0132762D01*
X0303600Y0131963D02*
X0301400Y0131963D01*
X0301168Y0131165D02*
X0303832Y0131165D01*
X0304162Y0130366D02*
X0300838Y0130366D01*
X0300083Y0129568D02*
X0304917Y0129568D01*
X0306316Y0128769D02*
X0298684Y0128769D01*
X0296316Y0128769D02*
X0281000Y0128769D01*
X0281000Y0127971D02*
X0343600Y0127971D01*
X0343600Y0128769D02*
X0308684Y0128769D01*
X0310083Y0129568D02*
X0343600Y0129568D01*
X0343600Y0130366D02*
X0310838Y0130366D01*
X0311168Y0131165D02*
X0343600Y0131165D01*
X0343600Y0131963D02*
X0311400Y0131963D01*
X0311400Y0132762D02*
X0343600Y0132762D01*
X0343600Y0133560D02*
X0311282Y0133560D01*
X0310951Y0134359D02*
X0343600Y0134359D01*
X0343600Y0135157D02*
X0310358Y0135157D01*
X0305397Y0139150D02*
X0305150Y0139150D01*
X0304351Y0138351D02*
X0343600Y0138351D01*
X0343600Y0137553D02*
X0303553Y0137553D01*
X0307500Y0142500D02*
X0302500Y0147500D01*
X0295000Y0147500D01*
X0283100Y0135600D01*
X0278700Y0135600D01*
X0278700Y0133000D02*
X0288000Y0133000D01*
X0297500Y0142500D01*
X0292500Y0150000D02*
X0283200Y0140700D01*
X0278700Y0140700D01*
X0278700Y0138200D02*
X0283200Y0138200D01*
X0297500Y0152500D01*
X0292500Y0154500D02*
X0292500Y0150000D01*
X0290500Y0150500D02*
X0290500Y0155500D01*
X0297500Y0162500D01*
X0295500Y0157500D02*
X0292500Y0154500D01*
X0288500Y0151000D02*
X0288500Y0160500D01*
X0295500Y0167500D01*
X0302500Y0167500D01*
X0307500Y0172500D01*
X0304018Y0174284D02*
X0301400Y0174284D01*
X0301400Y0173486D02*
X0303687Y0173486D01*
X0304567Y0175083D02*
X0301400Y0175083D01*
X0301333Y0175881D02*
X0305472Y0175881D01*
X0297500Y0172500D02*
X0286500Y0161500D01*
X0286500Y0151500D01*
X0283400Y0148400D01*
X0278700Y0148400D01*
X0278700Y0145800D02*
X0283300Y0145800D01*
X0288500Y0151000D01*
X0290500Y0150500D02*
X0283300Y0143300D01*
X0278700Y0143300D01*
X0278700Y0151000D02*
X0275000Y0151000D01*
X0274000Y0152000D01*
X0274000Y0156000D01*
X0274500Y0156500D01*
X0273957Y0157043D01*
X0273957Y0162000D01*
X0281000Y0161508D02*
X0281431Y0161508D01*
X0281431Y0160710D02*
X0281000Y0160710D01*
X0281000Y0159911D02*
X0281431Y0159911D01*
X0281431Y0159113D02*
X0281000Y0159113D01*
X0280814Y0158314D02*
X0281431Y0158314D01*
X0280016Y0157516D02*
X0285100Y0157516D01*
X0285100Y0158314D02*
X0283087Y0158314D01*
X0283927Y0159113D02*
X0285100Y0159113D01*
X0285100Y0159911D02*
X0284018Y0159911D01*
X0284018Y0160710D02*
X0285100Y0160710D01*
X0285100Y0161508D02*
X0284018Y0161508D01*
X0285327Y0162307D02*
X0281431Y0162307D01*
X0281431Y0163105D02*
X0281000Y0163105D01*
X0281000Y0163904D02*
X0281431Y0163904D01*
X0281431Y0164702D02*
X0281000Y0164702D01*
X0281000Y0165501D02*
X0281431Y0165501D01*
X0281000Y0166299D02*
X0289319Y0166299D01*
X0288521Y0165501D02*
X0283446Y0165501D01*
X0283976Y0164702D02*
X0287722Y0164702D01*
X0286924Y0163904D02*
X0284018Y0163904D01*
X0284018Y0163105D02*
X0286125Y0163105D01*
X0290118Y0167098D02*
X0281000Y0167098D01*
X0281000Y0167896D02*
X0290916Y0167896D01*
X0291715Y0168695D02*
X0281000Y0168695D01*
X0281000Y0169493D02*
X0292513Y0169493D01*
X0293312Y0170292D02*
X0281000Y0170292D01*
X0281246Y0171090D02*
X0293600Y0171090D01*
X0293600Y0171889D02*
X0281500Y0171889D01*
X0281500Y0172687D02*
X0293600Y0172687D01*
X0293600Y0173486D02*
X0281421Y0173486D01*
X0281090Y0174284D02*
X0293600Y0174284D01*
X0293600Y0175083D02*
X0281000Y0175083D01*
X0281000Y0175881D02*
X0293667Y0175881D01*
X0272500Y0179000D02*
X0271000Y0177500D01*
X0271000Y0099500D01*
X0272600Y0097900D01*
X0278700Y0097900D01*
X0278700Y0100400D02*
X0289600Y0100400D01*
X0297500Y0092500D01*
X0297500Y0082500D02*
X0292500Y0077500D01*
X0292500Y0071000D01*
X0283300Y0061800D01*
X0278700Y0061800D01*
X0273800Y0061800D01*
X0268000Y0056000D01*
X0268000Y0047500D01*
X0261250Y0040750D01*
X0257250Y0040750D01*
X0254043Y0037543D01*
X0253500Y0037543D01*
X0251000Y0041000D02*
X0249500Y0039500D01*
X0249500Y0035000D01*
X0250500Y0034000D01*
X0296500Y0034000D01*
X0312500Y0050000D01*
X0312500Y0051000D01*
X0312500Y0106000D01*
X0311000Y0107500D01*
X0312828Y0109605D02*
X0343600Y0109605D01*
X0343600Y0110403D02*
X0310853Y0110403D01*
X0311184Y0111202D02*
X0343600Y0111202D01*
X0343600Y0112001D02*
X0311400Y0112001D01*
X0311400Y0112799D02*
X0343600Y0112799D01*
X0343600Y0113598D02*
X0311267Y0113598D01*
X0310936Y0114396D02*
X0343600Y0114396D01*
X0343600Y0115195D02*
X0312628Y0115195D01*
X0313386Y0115993D02*
X0343600Y0115993D01*
X0343600Y0116792D02*
X0313717Y0116792D01*
X0313781Y0117590D02*
X0343600Y0117590D01*
X0343600Y0118389D02*
X0313642Y0118389D01*
X0313246Y0119187D02*
X0343600Y0119187D01*
X0343600Y0119986D02*
X0312266Y0119986D01*
X0311011Y0120784D02*
X0343600Y0120784D01*
X0343600Y0121583D02*
X0311341Y0121583D01*
X0311400Y0122381D02*
X0343600Y0122381D01*
X0343600Y0123180D02*
X0311400Y0123180D01*
X0311109Y0123978D02*
X0343600Y0123978D01*
X0343600Y0124777D02*
X0310739Y0124777D01*
X0309940Y0125575D02*
X0343600Y0125575D01*
X0343600Y0126374D02*
X0308339Y0126374D01*
X0306661Y0126374D02*
X0298339Y0126374D01*
X0296661Y0126374D02*
X0281000Y0126374D01*
X0281000Y0127172D02*
X0343600Y0127172D01*
X0343600Y0108806D02*
X0313469Y0108806D01*
X0313781Y0108008D02*
X0343600Y0108008D01*
X0343600Y0107209D02*
X0313781Y0107209D01*
X0313900Y0106411D02*
X0343600Y0106411D01*
X0343600Y0105612D02*
X0313900Y0105612D01*
X0313900Y0104814D02*
X0343600Y0104814D01*
X0343600Y0104015D02*
X0313900Y0104015D01*
X0313900Y0103217D02*
X0343600Y0103217D01*
X0343600Y0102418D02*
X0313900Y0102418D01*
X0313900Y0101620D02*
X0343600Y0101620D01*
X0343600Y0100821D02*
X0313900Y0100821D01*
X0313900Y0100023D02*
X0343600Y0100023D01*
X0343600Y0099224D02*
X0313900Y0099224D01*
X0313900Y0098426D02*
X0343600Y0098426D01*
X0343600Y0097627D02*
X0313900Y0097627D01*
X0313900Y0096829D02*
X0343600Y0096829D01*
X0343600Y0096030D02*
X0313900Y0096030D01*
X0313900Y0095232D02*
X0343600Y0095232D01*
X0343600Y0094433D02*
X0313900Y0094433D01*
X0313900Y0093635D02*
X0343600Y0093635D01*
X0343600Y0092836D02*
X0313900Y0092836D01*
X0313900Y0092038D02*
X0343600Y0092038D01*
X0343600Y0091239D02*
X0313900Y0091239D01*
X0313900Y0090441D02*
X0343600Y0090441D01*
X0343600Y0089642D02*
X0313900Y0089642D01*
X0313900Y0088844D02*
X0343600Y0088844D01*
X0343600Y0088045D02*
X0313900Y0088045D01*
X0313900Y0087247D02*
X0343600Y0087247D01*
X0343600Y0086448D02*
X0313900Y0086448D01*
X0313900Y0085650D02*
X0343600Y0085650D01*
X0343600Y0084851D02*
X0313900Y0084851D01*
X0313900Y0084053D02*
X0343600Y0084053D01*
X0343600Y0083254D02*
X0313900Y0083254D01*
X0313900Y0082456D02*
X0343600Y0082456D01*
X0343600Y0081657D02*
X0313900Y0081657D01*
X0313900Y0080859D02*
X0343600Y0080859D01*
X0343600Y0080060D02*
X0313900Y0080060D01*
X0313900Y0079262D02*
X0343600Y0079262D01*
X0343600Y0078463D02*
X0313900Y0078463D01*
X0313900Y0077665D02*
X0343600Y0077665D01*
X0343600Y0076866D02*
X0313900Y0076866D01*
X0313900Y0076068D02*
X0343600Y0076068D01*
X0343600Y0075269D02*
X0313900Y0075269D01*
X0313900Y0074470D02*
X0343600Y0074470D01*
X0343600Y0073672D02*
X0313900Y0073672D01*
X0313900Y0072873D02*
X0343600Y0072873D01*
X0343600Y0072075D02*
X0313900Y0072075D01*
X0313900Y0071276D02*
X0343600Y0071276D01*
X0343600Y0070478D02*
X0313900Y0070478D01*
X0313900Y0069679D02*
X0343600Y0069679D01*
X0343600Y0068881D02*
X0313900Y0068881D01*
X0313900Y0068082D02*
X0343600Y0068082D01*
X0343600Y0067284D02*
X0313900Y0067284D01*
X0313900Y0066485D02*
X0343600Y0066485D01*
X0343600Y0065687D02*
X0313900Y0065687D01*
X0313900Y0064888D02*
X0343600Y0064888D01*
X0343600Y0064090D02*
X0313900Y0064090D01*
X0313900Y0063291D02*
X0343600Y0063291D01*
X0343600Y0062493D02*
X0313900Y0062493D01*
X0313900Y0061694D02*
X0343600Y0061694D01*
X0343600Y0060896D02*
X0313900Y0060896D01*
X0313900Y0060097D02*
X0343600Y0060097D01*
X0343600Y0059299D02*
X0313900Y0059299D01*
X0313900Y0058500D02*
X0343600Y0058500D01*
X0343600Y0057702D02*
X0313900Y0057702D01*
X0313900Y0056903D02*
X0343600Y0056903D01*
X0343600Y0056105D02*
X0313900Y0056105D01*
X0313900Y0055306D02*
X0343600Y0055306D01*
X0343581Y0054508D02*
X0313900Y0054508D01*
X0313900Y0053709D02*
X0343549Y0053709D01*
X0343518Y0052911D02*
X0313900Y0052911D01*
X0313900Y0052112D02*
X0343487Y0052112D01*
X0343455Y0051314D02*
X0313900Y0051314D01*
X0313900Y0050515D02*
X0343344Y0050515D01*
X0343217Y0049717D02*
X0313900Y0049717D01*
X0313398Y0048918D02*
X0343091Y0048918D01*
X0342964Y0048120D02*
X0312600Y0048120D01*
X0311801Y0047321D02*
X0342838Y0047321D01*
X0342711Y0046523D02*
X0311002Y0046523D01*
X0310204Y0045724D02*
X0342585Y0045724D01*
X0342458Y0044926D02*
X0309405Y0044926D01*
X0308607Y0044127D02*
X0342332Y0044127D01*
X0342151Y0043329D02*
X0307808Y0043329D01*
X0307010Y0042530D02*
X0341892Y0042530D01*
X0341632Y0041732D02*
X0306211Y0041732D01*
X0305413Y0040933D02*
X0341373Y0040933D01*
X0341113Y0040134D02*
X0304614Y0040134D01*
X0303816Y0039336D02*
X0340854Y0039336D01*
X0340595Y0038537D02*
X0303017Y0038537D01*
X0302219Y0037739D02*
X0340335Y0037739D01*
X0340076Y0036940D02*
X0301420Y0036940D01*
X0300622Y0036142D02*
X0339768Y0036142D01*
X0339361Y0035343D02*
X0299823Y0035343D01*
X0299025Y0034545D02*
X0338955Y0034545D01*
X0338548Y0033746D02*
X0298226Y0033746D01*
X0297428Y0032948D02*
X0338141Y0032948D01*
X0337734Y0032149D02*
X0285262Y0032149D01*
X0285262Y0031351D02*
X0337327Y0031351D01*
X0336920Y0030552D02*
X0281887Y0030552D01*
X0281113Y0030552D02*
X0274887Y0030552D01*
X0274887Y0030844D02*
X0278262Y0030844D01*
X0281113Y0030844D01*
X0281113Y0030069D01*
X0274887Y0030069D01*
X0274887Y0030844D01*
X0274113Y0030844D02*
X0274113Y0030069D01*
X0267887Y0030069D01*
X0267887Y0030844D01*
X0271262Y0030844D01*
X0274113Y0030844D01*
X0274113Y0030552D02*
X0267887Y0030552D01*
X0267113Y0030552D02*
X0260887Y0030552D01*
X0260887Y0030844D02*
X0263738Y0030844D01*
X0267113Y0030844D01*
X0267113Y0030069D01*
X0260887Y0030069D01*
X0260887Y0030844D01*
X0260113Y0030844D02*
X0257262Y0030844D01*
X0253887Y0030844D01*
X0253887Y0030069D01*
X0260113Y0030069D01*
X0260113Y0030844D01*
X0260113Y0030552D02*
X0253887Y0030552D01*
X0253887Y0029754D02*
X0253113Y0029754D01*
X0253113Y0028955D02*
X0253887Y0028955D01*
X0253887Y0028157D02*
X0253113Y0028157D01*
X0253000Y0027358D02*
X0334805Y0027358D01*
X0334225Y0026560D02*
X0253000Y0026560D01*
X0251500Y0026560D02*
X0243500Y0026560D01*
X0243500Y0026381D02*
X0243500Y0039520D01*
X0244400Y0040420D01*
X0244400Y0040849D01*
X0244428Y0040833D01*
X0244784Y0040738D01*
X0246156Y0040738D01*
X0246156Y0044113D01*
X0246931Y0044113D01*
X0246931Y0044887D01*
X0249518Y0044887D01*
X0249518Y0046500D01*
X0256300Y0046500D01*
X0256300Y0044400D01*
X0256500Y0044400D01*
X0256500Y0044150D01*
X0255670Y0044150D01*
X0253920Y0042400D01*
X0250420Y0042400D01*
X0248920Y0040900D01*
X0248100Y0040080D01*
X0248100Y0034420D01*
X0248920Y0033600D01*
X0249100Y0033420D01*
X0249920Y0032600D01*
X0250292Y0032600D01*
X0250138Y0032446D01*
X0250138Y0028468D01*
X0250724Y0027882D01*
X0251500Y0027882D01*
X0251500Y0026381D01*
X0250252Y0025864D01*
X0249136Y0024748D01*
X0248531Y0023289D01*
X0248531Y0021711D01*
X0249136Y0020252D01*
X0250252Y0019136D01*
X0251500Y0018619D01*
X0251500Y0016381D01*
X0250252Y0015864D01*
X0249136Y0014748D01*
X0248826Y0014000D01*
X0246174Y0014000D01*
X0245864Y0014748D01*
X0244748Y0015864D01*
X0243500Y0016381D01*
X0243500Y0018619D01*
X0244748Y0019136D01*
X0245864Y0020252D01*
X0246468Y0021711D01*
X0246468Y0023289D01*
X0245864Y0024748D01*
X0244748Y0025864D01*
X0243500Y0026381D01*
X0243500Y0027358D02*
X0251500Y0027358D01*
X0250449Y0028157D02*
X0243500Y0028157D01*
X0243500Y0028955D02*
X0250138Y0028955D01*
X0250138Y0029754D02*
X0243500Y0029754D01*
X0243500Y0030552D02*
X0250138Y0030552D01*
X0250138Y0031351D02*
X0243500Y0031351D01*
X0243500Y0032149D02*
X0250138Y0032149D01*
X0249572Y0032948D02*
X0243500Y0032948D01*
X0243500Y0033746D02*
X0248774Y0033746D01*
X0248100Y0034545D02*
X0243500Y0034545D01*
X0243500Y0035343D02*
X0248100Y0035343D01*
X0248100Y0036142D02*
X0243500Y0036142D01*
X0243500Y0036940D02*
X0248100Y0036940D01*
X0248100Y0037739D02*
X0243500Y0037739D01*
X0243500Y0038537D02*
X0248100Y0038537D01*
X0248100Y0039336D02*
X0243500Y0039336D01*
X0244114Y0040134D02*
X0248155Y0040134D01*
X0248302Y0040738D02*
X0248658Y0040833D01*
X0248978Y0041018D01*
X0249238Y0041278D01*
X0249423Y0041597D01*
X0249518Y0041953D01*
X0249518Y0044113D01*
X0246931Y0044113D01*
X0246931Y0040738D01*
X0248302Y0040738D01*
X0248831Y0040933D02*
X0248953Y0040933D01*
X0249459Y0041732D02*
X0249752Y0041732D01*
X0249518Y0042530D02*
X0254050Y0042530D01*
X0254849Y0043329D02*
X0249518Y0043329D01*
X0249518Y0044926D02*
X0252395Y0044926D01*
X0252380Y0044940D02*
X0252640Y0044680D01*
X0252960Y0044495D01*
X0253316Y0044400D01*
X0256300Y0044400D01*
X0256300Y0046500D01*
X0256300Y0046500D01*
X0256300Y0046500D01*
X0252100Y0046500D01*
X0252100Y0045616D01*
X0252195Y0045260D01*
X0252380Y0044940D01*
X0252100Y0045724D02*
X0249518Y0045724D01*
X0246931Y0044127D02*
X0255647Y0044127D01*
X0256300Y0044926D02*
X0256300Y0044926D01*
X0256300Y0045724D02*
X0256300Y0045724D01*
X0256250Y0042750D02*
X0254500Y0041000D01*
X0251000Y0041000D01*
X0246931Y0040933D02*
X0246156Y0040933D01*
X0246156Y0041732D02*
X0246931Y0041732D01*
X0246931Y0042530D02*
X0246156Y0042530D01*
X0246156Y0043329D02*
X0246931Y0043329D01*
X0243000Y0041000D02*
X0237500Y0035500D01*
X0237500Y0017500D01*
X0232500Y0012500D01*
X0229597Y0009791D02*
X0225403Y0009791D01*
X0226004Y0010590D02*
X0228996Y0010590D01*
X0228665Y0011388D02*
X0226335Y0011388D01*
X0226468Y0012187D02*
X0228531Y0012187D01*
X0230598Y0008993D02*
X0224402Y0008993D01*
X0220598Y0008993D02*
X0214402Y0008993D01*
X0215403Y0009791D02*
X0219597Y0009791D01*
X0218996Y0010590D02*
X0216004Y0010590D01*
X0216335Y0011388D02*
X0218665Y0011388D01*
X0218531Y0012187D02*
X0216468Y0012187D01*
X0212500Y0012500D02*
X0217500Y0017500D01*
X0217500Y0035500D01*
X0233500Y0051500D01*
X0233500Y0056000D01*
X0230000Y0052500D02*
X0212500Y0035000D01*
X0212500Y0022500D01*
X0202500Y0022500D02*
X0202500Y0036500D01*
X0225000Y0059000D01*
X0242000Y0059000D01*
X0252000Y0049000D01*
X0256300Y0049000D01*
X0256300Y0051600D02*
X0260400Y0051600D01*
X0261500Y0050500D01*
X0261500Y0044000D01*
X0260250Y0042750D01*
X0256250Y0042750D01*
X0260500Y0037543D02*
X0261043Y0037543D01*
X0270000Y0046500D01*
X0270000Y0055000D01*
X0274300Y0059300D01*
X0278700Y0059300D01*
X0286800Y0059300D01*
X0297500Y0070000D01*
X0297500Y0072500D01*
X0297500Y0062500D02*
X0291700Y0056700D01*
X0278700Y0056700D01*
X0274700Y0056700D01*
X0272000Y0054000D01*
X0272000Y0041500D01*
X0268043Y0037543D01*
X0267500Y0037543D01*
X0274000Y0038043D02*
X0274500Y0037543D01*
X0274000Y0038043D02*
X0274000Y0053000D01*
X0275200Y0054200D01*
X0278700Y0054200D01*
X0295800Y0054200D01*
X0297500Y0052500D01*
X0302500Y0050000D02*
X0300000Y0047500D01*
X0284000Y0047500D01*
X0284000Y0039500D01*
X0282043Y0037543D01*
X0281500Y0037543D01*
X0277500Y0043000D02*
X0277500Y0046500D01*
X0278700Y0046500D01*
X0282500Y0049000D02*
X0284000Y0047500D01*
X0282500Y0049000D02*
X0278700Y0049000D01*
X0278700Y0051600D01*
X0256300Y0054200D02*
X0249800Y0054200D01*
X0243000Y0061000D01*
X0223500Y0061000D01*
X0197500Y0035000D01*
X0197500Y0017500D01*
X0192500Y0012500D01*
X0189597Y0009791D02*
X0185403Y0009791D01*
X0186004Y0010590D02*
X0188996Y0010590D01*
X0188665Y0011388D02*
X0186335Y0011388D01*
X0186468Y0012187D02*
X0188531Y0012187D01*
X0190598Y0008993D02*
X0184402Y0008993D01*
X0180598Y0008993D02*
X0174402Y0008993D01*
X0175403Y0009791D02*
X0179597Y0009791D01*
X0178996Y0010590D02*
X0176004Y0010590D01*
X0176335Y0011388D02*
X0178665Y0011388D01*
X0178531Y0012187D02*
X0176468Y0012187D01*
X0170598Y0008993D02*
X0164402Y0008993D01*
X0165403Y0009791D02*
X0169597Y0009791D01*
X0168996Y0010590D02*
X0166004Y0010590D01*
X0166335Y0011388D02*
X0168665Y0011388D01*
X0168531Y0012187D02*
X0166468Y0012187D01*
X0160598Y0008993D02*
X0154402Y0008993D01*
X0155403Y0009791D02*
X0159597Y0009791D01*
X0158996Y0010590D02*
X0156004Y0010590D01*
X0156335Y0011388D02*
X0158665Y0011388D01*
X0158531Y0012187D02*
X0156468Y0012187D01*
X0152500Y0012500D02*
X0157500Y0017500D01*
X0175500Y0017500D01*
X0177500Y0019500D01*
X0177500Y0029000D01*
X0217500Y0069000D01*
X0247000Y0069000D01*
X0251600Y0064400D01*
X0256300Y0064400D01*
X0256300Y0067000D02*
X0252000Y0067000D01*
X0248000Y0071000D01*
X0216000Y0071000D01*
X0172500Y0027500D01*
X0150000Y0027500D01*
X0147500Y0025000D01*
X0147500Y0020000D01*
X0142500Y0015000D01*
X0142500Y0012500D01*
X0139597Y0009791D02*
X0135403Y0009791D01*
X0136004Y0010590D02*
X0138996Y0010590D01*
X0138665Y0011388D02*
X0136335Y0011388D01*
X0136468Y0012187D02*
X0138531Y0012187D01*
X0140598Y0008993D02*
X0134402Y0008993D01*
X0130598Y0008993D02*
X0124402Y0008993D01*
X0124748Y0009136D02*
X0125864Y0010252D01*
X0126468Y0011711D01*
X0126468Y0013289D01*
X0125864Y0014748D01*
X0124748Y0015864D01*
X0123289Y0016468D01*
X0121711Y0016468D01*
X0120252Y0015864D01*
X0119136Y0014748D01*
X0118531Y0013289D01*
X0118531Y0011711D01*
X0119136Y0010252D01*
X0120252Y0009136D01*
X0121711Y0008531D01*
X0123289Y0008531D01*
X0124748Y0009136D01*
X0125403Y0009791D02*
X0129597Y0009791D01*
X0128996Y0010590D02*
X0126004Y0010590D01*
X0126335Y0011388D02*
X0128665Y0011388D01*
X0128531Y0012187D02*
X0126468Y0012187D01*
X0126468Y0012985D02*
X0128531Y0012985D01*
X0128736Y0013784D02*
X0126264Y0013784D01*
X0125933Y0014582D02*
X0129067Y0014582D01*
X0129768Y0015381D02*
X0125232Y0015381D01*
X0123988Y0016179D02*
X0131012Y0016179D01*
X0132500Y0016978D02*
X0075400Y0016978D01*
X0075381Y0017776D02*
X0132500Y0017776D01*
X0131606Y0018575D02*
X0123394Y0018575D01*
X0124986Y0019373D02*
X0130014Y0019373D01*
X0129216Y0020172D02*
X0125784Y0020172D01*
X0126162Y0020970D02*
X0128838Y0020970D01*
X0128531Y0021769D02*
X0126468Y0021769D01*
X0126468Y0022567D02*
X0128531Y0022567D01*
X0125500Y0025112D02*
X0124748Y0025864D01*
X0123289Y0026468D01*
X0121711Y0026468D01*
X0120252Y0025864D01*
X0119136Y0024748D01*
X0118992Y0024400D01*
X0116008Y0024400D01*
X0115864Y0024748D01*
X0114748Y0025864D01*
X0113289Y0026468D01*
X0111711Y0026468D01*
X0110252Y0025864D01*
X0109136Y0024748D01*
X0108992Y0024400D01*
X0106008Y0024400D01*
X0105864Y0024748D01*
X0104748Y0025864D01*
X0103289Y0026468D01*
X0101711Y0026468D01*
X0100252Y0025864D01*
X0099136Y0024748D01*
X0098992Y0024400D01*
X0098420Y0024400D01*
X0097600Y0023580D01*
X0096120Y0022100D01*
X0092900Y0022100D01*
X0092900Y0022900D01*
X0092100Y0022900D01*
X0092100Y0026860D01*
X0092000Y0026844D01*
X0092000Y0027611D01*
X0092075Y0027642D01*
X0092858Y0028425D01*
X0093281Y0029447D01*
X0093281Y0030553D01*
X0092858Y0031575D01*
X0092633Y0031800D01*
X0098464Y0031800D01*
X0099050Y0032386D01*
X0099050Y0035614D01*
X0099000Y0035664D01*
X0099000Y0036770D01*
X0099170Y0036940D01*
X0099355Y0037260D01*
X0099450Y0037616D01*
X0099450Y0038800D01*
X0093900Y0038800D01*
X0093900Y0039200D01*
X0099450Y0039200D01*
X0099450Y0039632D01*
X0100447Y0039219D01*
X0101553Y0039219D01*
X0102575Y0039642D01*
X0103358Y0040425D01*
X0103781Y0041447D01*
X0103781Y0042553D01*
X0103358Y0043575D01*
X0102575Y0044358D01*
X0101553Y0044781D01*
X0100447Y0044781D01*
X0100271Y0044708D01*
X0099580Y0045400D01*
X0099050Y0045400D01*
X0099050Y0045614D01*
X0099000Y0045664D01*
X0099000Y0047336D01*
X0099050Y0047386D01*
X0099050Y0047600D01*
X0099580Y0047600D01*
X0100271Y0048292D01*
X0100447Y0048219D01*
X0101553Y0048219D01*
X0102575Y0048642D01*
X0103358Y0049425D01*
X0103781Y0050447D01*
X0103781Y0051553D01*
X0103358Y0052575D01*
X0102575Y0053358D01*
X0101553Y0053781D01*
X0100447Y0053781D01*
X0099425Y0053358D01*
X0098642Y0052575D01*
X0098219Y0051553D01*
X0098219Y0051200D01*
X0090000Y0051200D01*
X0090000Y0055372D01*
X0090324Y0055372D01*
X0090324Y0052785D01*
X0091893Y0052785D01*
X0092249Y0052880D01*
X0092568Y0053065D01*
X0092829Y0053325D01*
X0093013Y0053645D01*
X0093109Y0054001D01*
X0093109Y0055372D01*
X0090324Y0055372D01*
X0090324Y0056000D01*
X0093382Y0056000D01*
X0093382Y0055224D01*
X0093968Y0054638D01*
X0097946Y0054638D01*
X0098531Y0055224D01*
X0098531Y0058000D01*
X0102500Y0058000D01*
X0102500Y0058387D01*
X0102656Y0058387D01*
X0102656Y0057613D01*
X0100069Y0057613D01*
X0100069Y0055453D01*
X0100164Y0055097D01*
X0100348Y0054778D01*
X0100609Y0054518D01*
X0100928Y0054333D01*
X0101284Y0054238D01*
X0102656Y0054238D01*
X0102656Y0057613D01*
X0103431Y0057613D01*
X0103431Y0058387D01*
X0106018Y0058387D01*
X0106018Y0060547D01*
X0105923Y0060903D01*
X0105738Y0061222D01*
X0105478Y0061482D01*
X0105158Y0061667D01*
X0104802Y0061762D01*
X0103431Y0061762D01*
X0103431Y0058387D01*
X0102656Y0058387D01*
X0102656Y0061762D01*
X0102500Y0061762D01*
X0102500Y0063738D01*
X0102656Y0063738D01*
X0102656Y0067113D01*
X0103431Y0067113D01*
X0103431Y0067500D01*
X0106600Y0067500D01*
X0106600Y0055420D01*
X0107420Y0054600D01*
X0108420Y0053600D01*
X0121238Y0053600D01*
X0121238Y0052431D01*
X0124613Y0052431D01*
X0124613Y0051656D01*
X0125387Y0051656D01*
X0125387Y0049069D01*
X0127547Y0049069D01*
X0127903Y0049164D01*
X0128222Y0049348D01*
X0128482Y0049609D01*
X0128667Y0049928D01*
X0128762Y0050284D01*
X0128762Y0051656D01*
X0125387Y0051656D01*
X0125387Y0052431D01*
X0128762Y0052431D01*
X0128762Y0053600D01*
X0135420Y0053600D01*
X0137920Y0051100D01*
X0144300Y0051100D01*
X0144300Y0050710D01*
X0144373Y0050637D01*
X0144350Y0050614D01*
X0144350Y0047386D01*
X0144936Y0046800D01*
X0154464Y0046800D01*
X0154764Y0047100D01*
X0155527Y0047100D01*
X0156447Y0046719D01*
X0157553Y0046719D01*
X0158473Y0047100D01*
X0158580Y0047100D01*
X0159080Y0047600D01*
X0159900Y0048420D01*
X0159900Y0050580D01*
X0157400Y0053080D01*
X0157400Y0064500D01*
X0164550Y0064500D01*
X0164550Y0064200D01*
X0170100Y0064200D01*
X0170100Y0063800D01*
X0170500Y0063800D01*
X0170500Y0061200D01*
X0165536Y0061200D01*
X0165336Y0061000D01*
X0165000Y0061000D01*
X0165000Y0060664D01*
X0164950Y0060614D01*
X0164950Y0057386D01*
X0165000Y0057336D01*
X0165000Y0055664D01*
X0164950Y0055614D01*
X0164950Y0055400D01*
X0164420Y0055400D01*
X0162920Y0053900D01*
X0162100Y0053080D01*
X0162100Y0045500D01*
X0158732Y0045500D01*
X0158053Y0045781D01*
X0156947Y0045781D01*
X0156268Y0045500D01*
X0148361Y0045500D01*
X0148072Y0045667D01*
X0147716Y0045762D01*
X0146344Y0045762D01*
X0146344Y0042387D01*
X0145569Y0042387D01*
X0145569Y0041613D01*
X0142982Y0041613D01*
X0142982Y0040500D01*
X0136262Y0040500D01*
X0136262Y0040656D01*
X0132887Y0040656D01*
X0132887Y0041431D01*
X0136262Y0041431D01*
X0136262Y0042802D01*
X0136167Y0043158D01*
X0135982Y0043478D01*
X0135722Y0043738D01*
X0135403Y0043923D01*
X0135379Y0043929D01*
X0135967Y0044517D01*
X0136500Y0045804D01*
X0136500Y0047196D01*
X0135967Y0048483D01*
X0134983Y0049467D01*
X0133696Y0050000D01*
X0132304Y0050000D01*
X0131017Y0049467D01*
X0130033Y0048483D01*
X0129500Y0047196D01*
X0129500Y0046357D01*
X0128362Y0046357D01*
X0128362Y0046946D01*
X0127776Y0047531D01*
X0122224Y0047531D01*
X0121638Y0046946D01*
X0121638Y0046000D01*
X0119264Y0046000D01*
X0119064Y0046200D01*
X0109536Y0046200D01*
X0109336Y0046000D01*
X0109000Y0046000D01*
X0109000Y0045664D01*
X0108950Y0045614D01*
X0108950Y0042386D01*
X0109000Y0042336D01*
X0109000Y0040664D01*
X0108950Y0040614D01*
X0108950Y0037386D01*
X0109000Y0037336D01*
X0109000Y0035664D01*
X0108950Y0035614D01*
X0108950Y0032386D01*
X0109000Y0032336D01*
X0109000Y0032000D01*
X0109336Y0032000D01*
X0109536Y0031800D01*
X0119064Y0031800D01*
X0119264Y0032000D01*
X0121238Y0032000D01*
X0121238Y0030844D01*
X0124613Y0030844D01*
X0124613Y0030069D01*
X0125387Y0030069D01*
X0125387Y0027482D01*
X0125500Y0027482D01*
X0125500Y0025112D01*
X0125500Y0025761D02*
X0124851Y0025761D01*
X0125500Y0026560D02*
X0094142Y0026560D01*
X0094177Y0026548D02*
X0093523Y0026761D01*
X0092900Y0026860D01*
X0092900Y0022900D01*
X0096860Y0022900D01*
X0096761Y0023523D01*
X0096548Y0024177D01*
X0096236Y0024790D01*
X0095832Y0025346D01*
X0095346Y0025832D01*
X0094790Y0026236D01*
X0094177Y0026548D01*
X0092900Y0026560D02*
X0092100Y0026560D01*
X0092100Y0025761D02*
X0092900Y0025761D01*
X0092900Y0024963D02*
X0092100Y0024963D01*
X0092100Y0024164D02*
X0092900Y0024164D01*
X0092900Y0023366D02*
X0092100Y0023366D01*
X0092900Y0022567D02*
X0096587Y0022567D01*
X0096786Y0023366D02*
X0097386Y0023366D01*
X0098184Y0024164D02*
X0096553Y0024164D01*
X0096110Y0024963D02*
X0099350Y0024963D01*
X0100149Y0025761D02*
X0095417Y0025761D01*
X0092590Y0028157D02*
X0121440Y0028157D01*
X0121518Y0028022D02*
X0121778Y0027762D01*
X0122097Y0027577D01*
X0122453Y0027482D01*
X0124613Y0027482D01*
X0124613Y0030069D01*
X0121238Y0030069D01*
X0121238Y0028698D01*
X0121333Y0028341D01*
X0121518Y0028022D01*
X0121238Y0028955D02*
X0093078Y0028955D01*
X0093281Y0029754D02*
X0121238Y0029754D01*
X0121238Y0031351D02*
X0092951Y0031351D01*
X0093281Y0030552D02*
X0124613Y0030552D01*
X0124613Y0029754D02*
X0125387Y0029754D01*
X0125387Y0028955D02*
X0124613Y0028955D01*
X0124613Y0028157D02*
X0125387Y0028157D01*
X0125500Y0027358D02*
X0092000Y0027358D01*
X0090500Y0030000D02*
X0090500Y0034000D01*
X0093700Y0034000D01*
X0099050Y0033746D02*
X0108950Y0033746D01*
X0108950Y0032948D02*
X0099050Y0032948D01*
X0098814Y0032149D02*
X0109000Y0032149D01*
X0108950Y0034545D02*
X0099050Y0034545D01*
X0099050Y0035343D02*
X0108950Y0035343D01*
X0109000Y0036142D02*
X0099000Y0036142D01*
X0099170Y0036940D02*
X0109000Y0036940D01*
X0108950Y0037739D02*
X0099450Y0037739D01*
X0099450Y0038537D02*
X0108950Y0038537D01*
X0108950Y0039336D02*
X0101836Y0039336D01*
X0103068Y0040134D02*
X0108950Y0040134D01*
X0109000Y0040933D02*
X0103568Y0040933D01*
X0103781Y0041732D02*
X0109000Y0041732D01*
X0108950Y0042530D02*
X0103781Y0042530D01*
X0103460Y0043329D02*
X0108950Y0043329D01*
X0108950Y0044127D02*
X0102806Y0044127D01*
X0101000Y0042000D02*
X0099000Y0044000D01*
X0093700Y0044000D01*
X0088350Y0044127D02*
X0051400Y0044127D01*
X0051400Y0043329D02*
X0088350Y0043329D01*
X0088350Y0042530D02*
X0051400Y0042530D01*
X0051400Y0041732D02*
X0088500Y0041732D01*
X0088500Y0040933D02*
X0065197Y0040933D01*
X0064845Y0041079D02*
X0063155Y0041079D01*
X0061594Y0040432D01*
X0060399Y0039237D01*
X0059752Y0037676D01*
X0059752Y0035986D01*
X0060399Y0034424D01*
X0061594Y0033229D01*
X0063155Y0032583D01*
X0064845Y0032583D01*
X0066406Y0033229D01*
X0067601Y0034424D01*
X0068248Y0035986D01*
X0068248Y0037676D01*
X0067601Y0039237D01*
X0066406Y0040432D01*
X0064845Y0041079D01*
X0062803Y0040933D02*
X0051400Y0040933D01*
X0051400Y0040134D02*
X0061296Y0040134D01*
X0060498Y0039336D02*
X0051400Y0039336D01*
X0051400Y0038537D02*
X0060109Y0038537D01*
X0059778Y0037739D02*
X0051400Y0037739D01*
X0051400Y0036940D02*
X0059752Y0036940D01*
X0059752Y0036142D02*
X0051400Y0036142D01*
X0051400Y0035343D02*
X0060018Y0035343D01*
X0060349Y0034545D02*
X0051400Y0034545D01*
X0051400Y0033746D02*
X0061077Y0033746D01*
X0062273Y0032948D02*
X0051400Y0032948D01*
X0051400Y0032149D02*
X0088500Y0032149D01*
X0088350Y0032948D02*
X0065727Y0032948D01*
X0066923Y0033746D02*
X0088350Y0033746D01*
X0088350Y0034545D02*
X0067651Y0034545D01*
X0067982Y0035343D02*
X0088350Y0035343D01*
X0088500Y0036142D02*
X0068248Y0036142D01*
X0068248Y0036940D02*
X0088500Y0036940D01*
X0088350Y0037739D02*
X0068222Y0037739D01*
X0067891Y0038537D02*
X0088350Y0038537D01*
X0088350Y0039336D02*
X0067502Y0039336D01*
X0066704Y0040134D02*
X0088350Y0040134D01*
X0088350Y0044926D02*
X0051400Y0044926D01*
X0051400Y0045724D02*
X0088460Y0045724D01*
X0088500Y0046523D02*
X0065232Y0046523D01*
X0064845Y0046362D02*
X0066406Y0047009D01*
X0067601Y0048204D01*
X0068248Y0049765D01*
X0068248Y0051455D01*
X0067601Y0053017D01*
X0066406Y0054212D01*
X0064845Y0054858D01*
X0063155Y0054858D01*
X0061594Y0054212D01*
X0060399Y0053017D01*
X0059752Y0051455D01*
X0059752Y0049765D01*
X0060399Y0048204D01*
X0061594Y0047009D01*
X0063155Y0046362D01*
X0064845Y0046362D01*
X0062768Y0046523D02*
X0051400Y0046523D01*
X0051400Y0047321D02*
X0061282Y0047321D01*
X0060483Y0048120D02*
X0051400Y0048120D01*
X0051400Y0048918D02*
X0060103Y0048918D01*
X0059772Y0049717D02*
X0051400Y0049717D01*
X0051400Y0050515D02*
X0059752Y0050515D01*
X0059752Y0051314D02*
X0051400Y0051314D01*
X0051400Y0052112D02*
X0060024Y0052112D01*
X0060355Y0052911D02*
X0051400Y0052911D01*
X0051400Y0053709D02*
X0061091Y0053709D01*
X0062309Y0054508D02*
X0051400Y0054508D01*
X0051400Y0055306D02*
X0087165Y0055306D01*
X0087165Y0054508D02*
X0065691Y0054508D01*
X0066909Y0053709D02*
X0087227Y0053709D01*
X0088500Y0052911D02*
X0067645Y0052911D01*
X0067976Y0052112D02*
X0088500Y0052112D01*
X0088500Y0051314D02*
X0068248Y0051314D01*
X0068248Y0050515D02*
X0088350Y0050515D01*
X0088350Y0049717D02*
X0068228Y0049717D01*
X0067897Y0048918D02*
X0088350Y0048918D01*
X0088350Y0048120D02*
X0067517Y0048120D01*
X0066718Y0047321D02*
X0088415Y0047321D01*
X0093700Y0049000D02*
X0099000Y0049000D01*
X0101000Y0051000D01*
X0098450Y0052112D02*
X0090000Y0052112D01*
X0090000Y0051314D02*
X0098219Y0051314D01*
X0098978Y0052911D02*
X0092301Y0052911D01*
X0093031Y0053709D02*
X0100273Y0053709D01*
X0100626Y0054508D02*
X0093109Y0054508D01*
X0093109Y0055306D02*
X0093382Y0055306D01*
X0090324Y0055306D02*
X0090000Y0055306D01*
X0090000Y0054508D02*
X0090324Y0054508D01*
X0090324Y0053709D02*
X0090000Y0053709D01*
X0090000Y0052911D02*
X0090324Y0052911D01*
X0087165Y0056105D02*
X0051400Y0056105D01*
X0051400Y0056903D02*
X0087165Y0056903D01*
X0087165Y0057702D02*
X0084835Y0057702D01*
X0084835Y0057511D02*
X0084835Y0061489D01*
X0084249Y0062075D01*
X0084008Y0062075D01*
X0084358Y0062425D01*
X0084781Y0063447D01*
X0084781Y0064553D01*
X0084358Y0065575D01*
X0083575Y0066358D01*
X0082553Y0066781D01*
X0081447Y0066781D01*
X0080425Y0066358D01*
X0079642Y0065575D01*
X0079219Y0064553D01*
X0079219Y0063447D01*
X0079642Y0062425D01*
X0079992Y0062075D01*
X0079877Y0062075D01*
X0079291Y0061489D01*
X0079291Y0057511D01*
X0079877Y0056925D01*
X0084249Y0056925D01*
X0084835Y0057511D01*
X0084835Y0058500D02*
X0088500Y0058500D01*
X0088500Y0059299D02*
X0084835Y0059299D01*
X0084835Y0060097D02*
X0088500Y0060097D01*
X0087521Y0060896D02*
X0084835Y0060896D01*
X0084629Y0061694D02*
X0087165Y0061694D01*
X0087165Y0062493D02*
X0084386Y0062493D01*
X0084717Y0063291D02*
X0087165Y0063291D01*
X0087165Y0064090D02*
X0084781Y0064090D01*
X0084642Y0064888D02*
X0087165Y0064888D01*
X0087623Y0065687D02*
X0084246Y0065687D01*
X0083267Y0066485D02*
X0087410Y0066485D01*
X0087219Y0067284D02*
X0067113Y0067284D01*
X0067601Y0066796D02*
X0066406Y0067991D01*
X0064845Y0068638D01*
X0063155Y0068638D01*
X0061594Y0067991D01*
X0060399Y0066796D01*
X0059752Y0065235D01*
X0059752Y0063545D01*
X0060399Y0061983D01*
X0061594Y0060788D01*
X0063155Y0060142D01*
X0064845Y0060142D01*
X0066406Y0060788D01*
X0067601Y0061983D01*
X0068248Y0063545D01*
X0068248Y0065235D01*
X0067601Y0066796D01*
X0067730Y0066485D02*
X0080733Y0066485D01*
X0079754Y0065687D02*
X0068061Y0065687D01*
X0068248Y0064888D02*
X0079358Y0064888D01*
X0079219Y0064090D02*
X0068248Y0064090D01*
X0068143Y0063291D02*
X0079283Y0063291D01*
X0079614Y0062493D02*
X0067812Y0062493D01*
X0067312Y0061694D02*
X0079497Y0061694D01*
X0079291Y0060896D02*
X0066514Y0060896D01*
X0061486Y0060896D02*
X0051400Y0060896D01*
X0051400Y0061694D02*
X0060688Y0061694D01*
X0060188Y0062493D02*
X0051400Y0062493D01*
X0051400Y0063291D02*
X0059857Y0063291D01*
X0059752Y0064090D02*
X0051400Y0064090D01*
X0051400Y0064888D02*
X0059752Y0064888D01*
X0059939Y0065687D02*
X0051400Y0065687D01*
X0051400Y0066485D02*
X0060270Y0066485D01*
X0060887Y0067284D02*
X0051400Y0067284D01*
X0051400Y0068082D02*
X0061814Y0068082D01*
X0066186Y0068082D02*
X0087231Y0068082D01*
X0087562Y0068881D02*
X0051400Y0068881D01*
X0051400Y0069679D02*
X0088246Y0069679D01*
X0090000Y0067500D02*
X0095957Y0067500D01*
X0092478Y0070478D02*
X0051400Y0070478D01*
X0051400Y0071276D02*
X0103500Y0071276D01*
X0103500Y0072075D02*
X0051400Y0072075D01*
X0051400Y0072873D02*
X0103500Y0072873D01*
X0103500Y0073672D02*
X0065200Y0073672D01*
X0065088Y0073636D02*
X0065784Y0073862D01*
X0066436Y0074194D01*
X0067028Y0074624D01*
X0067545Y0075141D01*
X0067975Y0075733D01*
X0068307Y0076385D01*
X0068534Y0077081D01*
X0068643Y0077769D01*
X0064400Y0077769D01*
X0064400Y0073527D01*
X0065088Y0073636D01*
X0064400Y0073672D02*
X0063600Y0073672D01*
X0063600Y0073527D02*
X0063600Y0077769D01*
X0064400Y0077769D01*
X0064400Y0078569D01*
X0068643Y0078569D01*
X0068534Y0079258D01*
X0068307Y0079954D01*
X0067975Y0080605D01*
X0067545Y0081197D01*
X0067028Y0081715D01*
X0066436Y0082145D01*
X0065784Y0082477D01*
X0065088Y0082703D01*
X0064400Y0082812D01*
X0064400Y0078569D01*
X0063600Y0078569D01*
X0063600Y0077769D01*
X0059357Y0077769D01*
X0059466Y0077081D01*
X0059692Y0076385D01*
X0060025Y0075733D01*
X0060455Y0075141D01*
X0060972Y0074624D01*
X0061564Y0074194D01*
X0062216Y0073862D01*
X0062912Y0073636D01*
X0063600Y0073527D01*
X0062800Y0073672D02*
X0051400Y0073672D01*
X0051400Y0074470D02*
X0061183Y0074470D01*
X0060362Y0075269D02*
X0051400Y0075269D01*
X0051400Y0076068D02*
X0059854Y0076068D01*
X0059536Y0076866D02*
X0051400Y0076866D01*
X0051400Y0077665D02*
X0059374Y0077665D01*
X0059357Y0078569D02*
X0063600Y0078569D01*
X0063600Y0082812D01*
X0062912Y0082703D01*
X0062216Y0082477D01*
X0061564Y0082145D01*
X0060972Y0081715D01*
X0060455Y0081197D01*
X0060025Y0080605D01*
X0059692Y0079954D01*
X0059466Y0079258D01*
X0059357Y0078569D01*
X0059468Y0079262D02*
X0051400Y0079262D01*
X0051400Y0080060D02*
X0059747Y0080060D01*
X0060209Y0080859D02*
X0051400Y0080859D01*
X0051400Y0081657D02*
X0060914Y0081657D01*
X0062174Y0082456D02*
X0051400Y0082456D01*
X0051400Y0083254D02*
X0103500Y0083254D01*
X0103500Y0082456D02*
X0065826Y0082456D01*
X0064400Y0082456D02*
X0063600Y0082456D01*
X0063600Y0081657D02*
X0064400Y0081657D01*
X0064400Y0080859D02*
X0063600Y0080859D01*
X0063600Y0080060D02*
X0064400Y0080060D01*
X0064400Y0079262D02*
X0063600Y0079262D01*
X0063600Y0078463D02*
X0051400Y0078463D01*
X0051400Y0084053D02*
X0103500Y0084053D01*
X0103500Y0084851D02*
X0051400Y0084851D01*
X0051648Y0085650D02*
X0103500Y0085650D01*
X0103500Y0086448D02*
X0085246Y0086448D01*
X0086048Y0087247D02*
X0103500Y0087247D01*
X0103500Y0088045D02*
X0086400Y0088045D01*
X0086400Y0088844D02*
X0103500Y0088844D01*
X0103500Y0089642D02*
X0086400Y0089642D01*
X0086400Y0090441D02*
X0103500Y0090441D01*
X0103500Y0091239D02*
X0086400Y0091239D01*
X0086400Y0092038D02*
X0103500Y0092038D01*
X0103500Y0092836D02*
X0086400Y0092836D01*
X0086400Y0093635D02*
X0103500Y0093635D01*
X0103500Y0094433D02*
X0086400Y0094433D01*
X0086400Y0095232D02*
X0103500Y0095232D01*
X0103500Y0096030D02*
X0086400Y0096030D01*
X0086400Y0096829D02*
X0103500Y0096829D01*
X0103500Y0097627D02*
X0086400Y0097627D01*
X0086400Y0098426D02*
X0103500Y0098426D01*
X0103500Y0099224D02*
X0086400Y0099224D01*
X0086400Y0100023D02*
X0103500Y0100023D01*
X0103500Y0100821D02*
X0086400Y0100821D01*
X0086400Y0101620D02*
X0103500Y0101620D01*
X0103500Y0102418D02*
X0086400Y0102418D01*
X0086400Y0103217D02*
X0103500Y0103217D01*
X0103500Y0104015D02*
X0086400Y0104015D01*
X0086400Y0104814D02*
X0103500Y0104814D01*
X0103500Y0105612D02*
X0086400Y0105612D01*
X0086400Y0106411D02*
X0103500Y0106411D01*
X0103500Y0107209D02*
X0086400Y0107209D01*
X0086400Y0108008D02*
X0103500Y0108008D01*
X0103500Y0108806D02*
X0086400Y0108806D01*
X0086400Y0109605D02*
X0103500Y0109605D01*
X0103500Y0110403D02*
X0086400Y0110403D01*
X0086400Y0111202D02*
X0103500Y0111202D01*
X0103500Y0112001D02*
X0086400Y0112001D01*
X0086400Y0112799D02*
X0103500Y0112799D01*
X0103500Y0113598D02*
X0086400Y0113598D01*
X0086400Y0114396D02*
X0103500Y0114396D01*
X0103500Y0115195D02*
X0086400Y0115195D01*
X0086400Y0115993D02*
X0103500Y0115993D01*
X0103500Y0116792D02*
X0086400Y0116792D01*
X0086400Y0117590D02*
X0103500Y0117590D01*
X0103500Y0118389D02*
X0086400Y0118389D01*
X0086400Y0119187D02*
X0103500Y0119187D01*
X0103500Y0119986D02*
X0086400Y0119986D01*
X0086400Y0120784D02*
X0103500Y0120784D01*
X0103500Y0121583D02*
X0086400Y0121583D01*
X0086400Y0122381D02*
X0103500Y0122381D01*
X0103500Y0123180D02*
X0086400Y0123180D01*
X0086400Y0123978D02*
X0103500Y0123978D01*
X0103500Y0124777D02*
X0086400Y0124777D01*
X0086400Y0125575D02*
X0103500Y0125575D01*
X0103500Y0126374D02*
X0086400Y0126374D01*
X0086400Y0127172D02*
X0103500Y0127172D01*
X0103500Y0127971D02*
X0086400Y0127971D01*
X0086400Y0128769D02*
X0103500Y0128769D01*
X0103500Y0129568D02*
X0086400Y0129568D01*
X0086400Y0130366D02*
X0103500Y0130366D01*
X0103500Y0131165D02*
X0086400Y0131165D01*
X0086400Y0131963D02*
X0103500Y0131963D01*
X0103500Y0132762D02*
X0086400Y0132762D01*
X0086400Y0133560D02*
X0103500Y0133560D01*
X0103500Y0134359D02*
X0086400Y0134359D01*
X0086400Y0135157D02*
X0103500Y0135157D01*
X0103500Y0135956D02*
X0086400Y0135956D01*
X0086400Y0136754D02*
X0103500Y0136754D01*
X0103500Y0137553D02*
X0086400Y0137553D01*
X0086400Y0138351D02*
X0103500Y0138351D01*
X0103500Y0139150D02*
X0086400Y0139150D01*
X0086400Y0139948D02*
X0103500Y0139948D01*
X0103500Y0140747D02*
X0086400Y0140747D01*
X0086400Y0141545D02*
X0103500Y0141545D01*
X0103500Y0142344D02*
X0086400Y0142344D01*
X0086400Y0143142D02*
X0103500Y0143142D01*
X0103500Y0143941D02*
X0086400Y0143941D01*
X0086400Y0144739D02*
X0103500Y0144739D01*
X0103500Y0145538D02*
X0086400Y0145538D01*
X0086400Y0146337D02*
X0103500Y0146337D01*
X0103500Y0147135D02*
X0086400Y0147135D01*
X0086400Y0147934D02*
X0103500Y0147934D01*
X0103500Y0148732D02*
X0086400Y0148732D01*
X0086400Y0149531D02*
X0103500Y0149531D01*
X0103500Y0150329D02*
X0086400Y0150329D01*
X0086400Y0151128D02*
X0103500Y0151128D01*
X0103500Y0151926D02*
X0086400Y0151926D01*
X0086400Y0152725D02*
X0103500Y0152725D01*
X0103500Y0153523D02*
X0086400Y0153523D01*
X0086400Y0154322D02*
X0103500Y0154322D01*
X0103500Y0155120D02*
X0086400Y0155120D01*
X0086400Y0155919D02*
X0103500Y0155919D01*
X0103500Y0156717D02*
X0086400Y0156717D01*
X0086185Y0157516D02*
X0103500Y0157516D01*
X0103500Y0158314D02*
X0085658Y0158314D01*
X0103500Y0163105D02*
X0067068Y0163105D01*
X0067028Y0163065D02*
X0067545Y0163582D01*
X0067975Y0164174D01*
X0068307Y0164826D01*
X0068534Y0165522D01*
X0068643Y0166210D01*
X0064400Y0166210D01*
X0064400Y0161968D01*
X0065088Y0162077D01*
X0065784Y0162303D01*
X0066436Y0162635D01*
X0067028Y0163065D01*
X0067779Y0163904D02*
X0103500Y0163904D01*
X0103500Y0164702D02*
X0068244Y0164702D01*
X0068527Y0165501D02*
X0103500Y0165501D01*
X0103500Y0166299D02*
X0064400Y0166299D01*
X0064400Y0166210D02*
X0064400Y0167010D01*
X0068643Y0167010D01*
X0068534Y0167699D01*
X0068307Y0168394D01*
X0067975Y0169046D01*
X0067545Y0169638D01*
X0067028Y0170156D01*
X0066436Y0170586D01*
X0065784Y0170918D01*
X0065088Y0171144D01*
X0064400Y0171253D01*
X0064400Y0167010D01*
X0063600Y0167010D01*
X0063600Y0166210D01*
X0064400Y0166210D01*
X0064400Y0165501D02*
X0063600Y0165501D01*
X0063600Y0166210D02*
X0063600Y0161968D01*
X0062912Y0162077D01*
X0062216Y0162303D01*
X0061564Y0162635D01*
X0060972Y0163065D01*
X0060455Y0163582D01*
X0060025Y0164174D01*
X0059692Y0164826D01*
X0059466Y0165522D01*
X0059357Y0166210D01*
X0063600Y0166210D01*
X0063600Y0166299D02*
X0051400Y0166299D01*
X0051400Y0165501D02*
X0059473Y0165501D01*
X0059756Y0164702D02*
X0051400Y0164702D01*
X0051400Y0163904D02*
X0060221Y0163904D01*
X0060932Y0163105D02*
X0051400Y0163105D01*
X0051400Y0162307D02*
X0062208Y0162307D01*
X0063600Y0162307D02*
X0064400Y0162307D01*
X0064400Y0163105D02*
X0063600Y0163105D01*
X0063600Y0163904D02*
X0064400Y0163904D01*
X0064400Y0164702D02*
X0063600Y0164702D01*
X0063600Y0167010D02*
X0059357Y0167010D01*
X0059466Y0167699D01*
X0059692Y0168394D01*
X0060025Y0169046D01*
X0060455Y0169638D01*
X0060972Y0170156D01*
X0061564Y0170586D01*
X0062216Y0170918D01*
X0062912Y0171144D01*
X0063600Y0171253D01*
X0063600Y0167010D01*
X0063600Y0167098D02*
X0064400Y0167098D01*
X0064400Y0167896D02*
X0063600Y0167896D01*
X0063600Y0168695D02*
X0064400Y0168695D01*
X0064400Y0169493D02*
X0063600Y0169493D01*
X0063600Y0170292D02*
X0064400Y0170292D01*
X0064400Y0171090D02*
X0063600Y0171090D01*
X0062747Y0171090D02*
X0051400Y0171090D01*
X0051400Y0170292D02*
X0061160Y0170292D01*
X0060349Y0169493D02*
X0051400Y0169493D01*
X0051400Y0168695D02*
X0059846Y0168695D01*
X0059531Y0167896D02*
X0051400Y0167896D01*
X0051400Y0167098D02*
X0059371Y0167098D01*
X0065253Y0171090D02*
X0103500Y0171090D01*
X0103500Y0170292D02*
X0066840Y0170292D01*
X0067651Y0169493D02*
X0103500Y0169493D01*
X0103500Y0168695D02*
X0068154Y0168695D01*
X0068469Y0167896D02*
X0103500Y0167896D01*
X0103500Y0167098D02*
X0068629Y0167098D01*
X0065792Y0162307D02*
X0103500Y0162307D01*
X0103500Y0161508D02*
X0051400Y0161508D01*
X0051400Y0160710D02*
X0103500Y0160710D01*
X0103500Y0159911D02*
X0051412Y0159911D01*
X0051912Y0159113D02*
X0103500Y0159113D01*
X0115000Y0168000D02*
X0115000Y0179500D01*
X0120000Y0184500D01*
X0113000Y0191500D01*
X0087543Y0191500D01*
X0084969Y0191852D02*
X0080844Y0191852D01*
X0080069Y0191852D02*
X0074931Y0191852D01*
X0074931Y0191053D02*
X0074156Y0191053D01*
X0074156Y0190255D02*
X0074931Y0190255D01*
X0074931Y0189456D02*
X0074156Y0189456D01*
X0074156Y0188658D02*
X0074931Y0188658D01*
X0074931Y0187859D02*
X0074156Y0187859D01*
X0072383Y0187859D02*
X0072339Y0187859D01*
X0071540Y0187061D02*
X0078158Y0187061D01*
X0078022Y0186982D02*
X0077762Y0186722D01*
X0077577Y0186403D01*
X0077482Y0186047D01*
X0077482Y0183887D01*
X0080069Y0183887D01*
X0080069Y0183113D01*
X0077482Y0183113D01*
X0077482Y0180953D01*
X0077577Y0180597D01*
X0077762Y0180278D01*
X0078022Y0180018D01*
X0078341Y0179833D01*
X0078698Y0179738D01*
X0080069Y0179738D01*
X0080069Y0183113D01*
X0080844Y0183113D01*
X0080844Y0183887D01*
X0083431Y0183887D01*
X0083431Y0186047D01*
X0083336Y0186403D01*
X0083152Y0186722D01*
X0082891Y0186982D01*
X0082572Y0187167D01*
X0082216Y0187262D01*
X0080844Y0187262D01*
X0080844Y0183887D01*
X0080069Y0183887D01*
X0080069Y0187262D01*
X0078698Y0187262D01*
X0078341Y0187167D01*
X0078022Y0186982D01*
X0077540Y0186262D02*
X0070742Y0186262D01*
X0070000Y0187500D02*
X0071000Y0188500D01*
X0071000Y0194500D01*
X0072000Y0195500D01*
X0119000Y0195500D01*
X0130000Y0184500D01*
X0125000Y0179500D01*
X0125000Y0164500D01*
X0208000Y0081500D01*
X0263000Y0081500D01*
X0275000Y0069500D01*
X0278700Y0069500D01*
X0278700Y0067000D02*
X0274500Y0067000D01*
X0262000Y0079500D01*
X0203500Y0079500D01*
X0115000Y0168000D01*
X0105000Y0172000D02*
X0105000Y0179500D01*
X0101000Y0183500D01*
X0087543Y0183500D01*
X0084969Y0183867D02*
X0080844Y0183867D01*
X0080844Y0183113D02*
X0083431Y0183113D01*
X0083431Y0180953D01*
X0083336Y0180597D01*
X0083152Y0180278D01*
X0082891Y0180018D01*
X0082572Y0179833D01*
X0082216Y0179738D01*
X0080844Y0179738D01*
X0080844Y0183113D01*
X0080844Y0183068D02*
X0080069Y0183068D01*
X0080069Y0182270D02*
X0080844Y0182270D01*
X0080844Y0181471D02*
X0080069Y0181471D01*
X0080069Y0180672D02*
X0080844Y0180672D01*
X0080844Y0179874D02*
X0080069Y0179874D01*
X0078271Y0179874D02*
X0068248Y0179874D01*
X0068248Y0179545D02*
X0067601Y0177983D01*
X0066406Y0176788D01*
X0064845Y0176142D01*
X0063155Y0176142D01*
X0061594Y0176788D01*
X0060399Y0177983D01*
X0059752Y0179545D01*
X0059752Y0181235D01*
X0060399Y0182796D01*
X0061594Y0183991D01*
X0063155Y0184638D01*
X0064845Y0184638D01*
X0066406Y0183991D01*
X0067601Y0182796D01*
X0068248Y0181235D01*
X0068248Y0179545D01*
X0068054Y0179075D02*
X0103445Y0179075D01*
X0103500Y0178277D02*
X0067723Y0178277D01*
X0067096Y0177478D02*
X0103500Y0177478D01*
X0103500Y0176680D02*
X0066144Y0176680D01*
X0061856Y0176680D02*
X0051400Y0176680D01*
X0051400Y0177478D02*
X0060904Y0177478D01*
X0060277Y0178277D02*
X0051400Y0178277D01*
X0051400Y0179075D02*
X0059946Y0179075D01*
X0059752Y0179874D02*
X0051400Y0179874D01*
X0051400Y0180672D02*
X0059752Y0180672D01*
X0059850Y0181471D02*
X0051400Y0181471D01*
X0051400Y0182270D02*
X0060181Y0182270D01*
X0060671Y0183068D02*
X0051400Y0183068D01*
X0051400Y0183867D02*
X0061469Y0183867D01*
X0064258Y0186262D02*
X0051400Y0186262D01*
X0051400Y0185464D02*
X0077482Y0185464D01*
X0077482Y0184665D02*
X0051400Y0184665D01*
X0051400Y0187061D02*
X0063460Y0187061D01*
X0062661Y0187859D02*
X0056617Y0187859D01*
X0057352Y0188658D02*
X0059034Y0188658D01*
X0058969Y0189456D02*
X0057431Y0189456D01*
X0057431Y0190255D02*
X0058969Y0190255D01*
X0058969Y0191053D02*
X0057431Y0191053D01*
X0058969Y0191852D02*
X0054844Y0191852D01*
X0054069Y0191852D02*
X0051400Y0191852D01*
X0051400Y0191053D02*
X0051482Y0191053D01*
X0051482Y0190255D02*
X0051400Y0190255D01*
X0051400Y0189456D02*
X0051482Y0189456D01*
X0051561Y0188658D02*
X0051400Y0188658D01*
X0051400Y0187859D02*
X0052297Y0187859D01*
X0054069Y0187859D02*
X0054844Y0187859D01*
X0054844Y0188658D02*
X0054069Y0188658D01*
X0054069Y0189456D02*
X0054844Y0189456D01*
X0054844Y0190255D02*
X0054069Y0190255D01*
X0054069Y0191053D02*
X0054844Y0191053D01*
X0061543Y0190957D02*
X0065000Y0187500D01*
X0070000Y0187500D01*
X0067457Y0191500D02*
X0067457Y0194457D01*
X0070500Y0197500D01*
X0127000Y0197500D01*
X0128250Y0196250D01*
X0127000Y0197500D01*
X0128250Y0196250D02*
X0140000Y0184500D01*
X0135000Y0179500D01*
X0135000Y0161000D01*
X0212500Y0083500D01*
X0264000Y0083500D01*
X0275441Y0072059D01*
X0278700Y0072059D01*
X0278700Y0074618D02*
X0278700Y0077800D01*
X0278500Y0078000D01*
X0274100Y0064400D02*
X0261000Y0077500D01*
X0199500Y0077500D01*
X0105000Y0172000D01*
X0103500Y0171889D02*
X0051400Y0171889D01*
X0051400Y0172687D02*
X0103500Y0172687D01*
X0103500Y0173486D02*
X0051400Y0173486D01*
X0051400Y0174284D02*
X0103500Y0174284D01*
X0103500Y0175083D02*
X0051400Y0175083D01*
X0051400Y0175881D02*
X0103500Y0175881D01*
X0105000Y0179500D02*
X0110000Y0184500D01*
X0102646Y0179874D02*
X0082642Y0179874D01*
X0083356Y0180672D02*
X0085020Y0180672D01*
X0084969Y0181471D02*
X0083431Y0181471D01*
X0083431Y0182270D02*
X0084969Y0182270D01*
X0084969Y0183068D02*
X0083431Y0183068D01*
X0083431Y0184665D02*
X0084969Y0184665D01*
X0084969Y0185464D02*
X0083431Y0185464D01*
X0083374Y0186262D02*
X0084969Y0186262D01*
X0085000Y0187061D02*
X0082756Y0187061D01*
X0082617Y0187859D02*
X0085000Y0187859D01*
X0085000Y0188658D02*
X0083352Y0188658D01*
X0083431Y0189456D02*
X0084969Y0189456D01*
X0084969Y0190255D02*
X0083431Y0190255D01*
X0083431Y0191053D02*
X0084969Y0191053D01*
X0080844Y0191053D02*
X0080069Y0191053D01*
X0080069Y0190255D02*
X0080844Y0190255D01*
X0080844Y0189456D02*
X0080069Y0189456D01*
X0080069Y0188658D02*
X0080844Y0188658D01*
X0080844Y0187859D02*
X0080069Y0187859D01*
X0080069Y0187061D02*
X0080844Y0187061D01*
X0080844Y0186262D02*
X0080069Y0186262D01*
X0080069Y0185464D02*
X0080844Y0185464D01*
X0080844Y0184665D02*
X0080069Y0184665D01*
X0080069Y0183867D02*
X0066531Y0183867D01*
X0067329Y0183068D02*
X0077482Y0183068D01*
X0077482Y0182270D02*
X0067819Y0182270D01*
X0068150Y0181471D02*
X0077482Y0181471D01*
X0077557Y0180672D02*
X0068248Y0180672D01*
X0076703Y0187859D02*
X0078297Y0187859D01*
X0077561Y0188658D02*
X0077439Y0188658D01*
X0090118Y0181471D02*
X0101049Y0181471D01*
X0101848Y0180672D02*
X0090067Y0180672D01*
X0061543Y0190957D02*
X0061543Y0191500D01*
X0142500Y0200000D02*
X0142500Y0202500D01*
X0142500Y0200000D02*
X0147000Y0195500D01*
X0166500Y0195500D01*
X0175000Y0187000D01*
X0175000Y0172000D01*
X0203700Y0143300D01*
X0256300Y0143300D01*
X0256300Y0151000D02*
X0253000Y0151000D01*
X0251500Y0152500D01*
X0251500Y0159500D01*
X0253957Y0161957D01*
X0255000Y0161957D01*
X0255957Y0161957D01*
X0259000Y0165000D01*
X0259000Y0179750D01*
X0257500Y0181250D01*
X0269000Y0182500D02*
X0272500Y0186000D01*
X0269000Y0182500D02*
X0269000Y0098000D01*
X0271700Y0095300D01*
X0278700Y0095300D01*
X0278700Y0103000D02*
X0297000Y0103000D01*
X0297500Y0102500D01*
X0290500Y0105500D02*
X0297500Y0112500D01*
X0302500Y0115000D02*
X0302500Y0050000D01*
X0312500Y0050000D02*
X0312500Y0051000D01*
X0278700Y0064400D02*
X0274100Y0064400D01*
X0262500Y0071000D02*
X0262500Y0072500D01*
X0260382Y0074618D01*
X0256300Y0074618D01*
X0256300Y0072059D02*
X0252941Y0072059D01*
X0250000Y0075000D01*
X0207500Y0075000D01*
X0166000Y0033500D01*
X0141000Y0033500D01*
X0132500Y0025000D01*
X0132500Y0022500D01*
X0137500Y0025000D02*
X0144000Y0031500D01*
X0167500Y0031500D01*
X0209000Y0073000D01*
X0249000Y0073000D01*
X0252500Y0069500D01*
X0256300Y0069500D01*
X0251200Y0061800D02*
X0246000Y0067000D01*
X0219000Y0067000D01*
X0182500Y0030500D01*
X0182500Y0022500D01*
X0192500Y0022500D02*
X0192500Y0033500D01*
X0222000Y0063000D01*
X0244000Y0063000D01*
X0250300Y0056700D01*
X0256300Y0056700D01*
X0256300Y0059300D02*
X0250700Y0059300D01*
X0245000Y0065000D01*
X0220500Y0065000D01*
X0187500Y0032000D01*
X0187500Y0017500D01*
X0182500Y0012500D01*
X0194402Y0008993D02*
X0200598Y0008993D01*
X0199597Y0009791D02*
X0195403Y0009791D01*
X0196004Y0010590D02*
X0198996Y0010590D01*
X0198665Y0011388D02*
X0196335Y0011388D01*
X0196468Y0012187D02*
X0198531Y0012187D01*
X0202500Y0012500D02*
X0207500Y0017500D01*
X0207500Y0037000D01*
X0226500Y0056000D01*
X0237000Y0052500D02*
X0237000Y0051500D01*
X0222500Y0037000D01*
X0222500Y0022500D01*
X0227500Y0017500D02*
X0227500Y0038500D01*
X0240500Y0051500D01*
X0240500Y0056000D01*
X0244000Y0052500D02*
X0243000Y0051500D01*
X0243000Y0041000D01*
X0239457Y0043957D02*
X0235500Y0040000D01*
X0239457Y0043957D02*
X0239457Y0044500D01*
X0251200Y0061800D02*
X0256300Y0061800D01*
X0210000Y0069500D02*
X0170000Y0029500D01*
X0147000Y0029500D01*
X0142500Y0025000D01*
X0142500Y0022500D01*
X0137500Y0025000D02*
X0137500Y0017500D01*
X0132500Y0012500D01*
X0144402Y0008993D02*
X0150598Y0008993D01*
X0149597Y0009791D02*
X0145403Y0009791D01*
X0146004Y0010590D02*
X0148996Y0010590D01*
X0148665Y0011388D02*
X0146335Y0011388D01*
X0146468Y0012187D02*
X0148531Y0012187D01*
X0121606Y0018575D02*
X0113394Y0018575D01*
X0114986Y0019373D02*
X0120014Y0019373D01*
X0119216Y0020172D02*
X0115784Y0020172D01*
X0116162Y0020970D02*
X0118838Y0020970D01*
X0118531Y0021769D02*
X0116468Y0021769D01*
X0116468Y0022567D02*
X0118531Y0022567D01*
X0119350Y0024963D02*
X0115650Y0024963D01*
X0114851Y0025761D02*
X0120149Y0025761D01*
X0110149Y0025761D02*
X0104851Y0025761D01*
X0105650Y0024963D02*
X0109350Y0024963D01*
X0108531Y0022567D02*
X0102900Y0022567D01*
X0102900Y0021769D02*
X0102100Y0021769D01*
X0102100Y0022567D02*
X0098567Y0022567D01*
X0098193Y0021769D02*
X0097769Y0021769D01*
X0098404Y0020970D02*
X0096970Y0020970D01*
X0096172Y0020172D02*
X0098792Y0020172D01*
X0099449Y0019373D02*
X0094985Y0019373D01*
X0093394Y0018575D02*
X0100581Y0018575D01*
X0102100Y0018575D02*
X0102900Y0018575D01*
X0102900Y0019373D02*
X0102100Y0019373D01*
X0102100Y0020172D02*
X0102900Y0020172D01*
X0102900Y0020970D02*
X0102100Y0020970D01*
X0104419Y0018575D02*
X0111606Y0018575D01*
X0110014Y0019373D02*
X0105551Y0019373D01*
X0106208Y0020172D02*
X0109216Y0020172D01*
X0108838Y0020970D02*
X0106596Y0020970D01*
X0106807Y0021769D02*
X0108531Y0021769D01*
X0111012Y0016179D02*
X0104868Y0016179D01*
X0104790Y0016236D02*
X0104177Y0016548D01*
X0103523Y0016761D01*
X0102900Y0016860D01*
X0102900Y0012900D01*
X0106860Y0012900D01*
X0106761Y0013523D01*
X0106548Y0014177D01*
X0106236Y0014790D01*
X0105832Y0015346D01*
X0105346Y0015832D01*
X0104790Y0016236D01*
X0105797Y0015381D02*
X0109768Y0015381D01*
X0110252Y0015864D02*
X0109136Y0014748D01*
X0108531Y0013289D01*
X0108531Y0011711D01*
X0109136Y0010252D01*
X0110252Y0009136D01*
X0111711Y0008531D01*
X0113289Y0008531D01*
X0114748Y0009136D01*
X0115864Y0010252D01*
X0116468Y0011711D01*
X0116468Y0013289D01*
X0115864Y0014748D01*
X0114748Y0015864D01*
X0113289Y0016468D01*
X0111711Y0016468D01*
X0110252Y0015864D01*
X0109067Y0014582D02*
X0106342Y0014582D01*
X0106676Y0013784D02*
X0108736Y0013784D01*
X0108531Y0012985D02*
X0106846Y0012985D01*
X0106860Y0012100D02*
X0102900Y0012100D01*
X0102900Y0012900D01*
X0102100Y0012900D01*
X0102100Y0016860D01*
X0101477Y0016761D01*
X0100823Y0016548D01*
X0100210Y0016236D01*
X0099654Y0015832D01*
X0099168Y0015346D01*
X0098764Y0014790D01*
X0098452Y0014177D01*
X0098239Y0013523D01*
X0098140Y0012900D01*
X0102100Y0012900D01*
X0102100Y0012100D01*
X0102900Y0012100D01*
X0102900Y0008140D01*
X0103523Y0008239D01*
X0104177Y0008452D01*
X0104790Y0008764D01*
X0105346Y0009168D01*
X0105832Y0009654D01*
X0106236Y0010210D01*
X0106548Y0010823D01*
X0106761Y0011477D01*
X0106860Y0012100D01*
X0106732Y0011388D02*
X0108665Y0011388D01*
X0108531Y0012187D02*
X0102900Y0012187D01*
X0102900Y0012985D02*
X0102100Y0012985D01*
X0102100Y0012187D02*
X0096468Y0012187D01*
X0096468Y0011711D02*
X0095864Y0010252D01*
X0094748Y0009136D01*
X0093289Y0008531D01*
X0091711Y0008531D01*
X0090252Y0009136D01*
X0089136Y0010252D01*
X0088531Y0011711D01*
X0088531Y0013289D01*
X0089136Y0014748D01*
X0090252Y0015864D01*
X0091711Y0016468D01*
X0093289Y0016468D01*
X0094748Y0015864D01*
X0095864Y0014748D01*
X0096468Y0013289D01*
X0096468Y0011711D01*
X0096335Y0011388D02*
X0098268Y0011388D01*
X0098239Y0011477D02*
X0098452Y0010823D01*
X0098764Y0010210D01*
X0099168Y0009654D01*
X0099654Y0009168D01*
X0100210Y0008764D01*
X0100823Y0008452D01*
X0101477Y0008239D01*
X0102100Y0008140D01*
X0102100Y0012100D01*
X0098140Y0012100D01*
X0098239Y0011477D01*
X0098571Y0010590D02*
X0096004Y0010590D01*
X0095403Y0009791D02*
X0099068Y0009791D01*
X0099895Y0008993D02*
X0094402Y0008993D01*
X0090598Y0008993D02*
X0086344Y0008993D01*
X0086468Y0009117D02*
X0085883Y0008531D01*
X0079117Y0008531D01*
X0078531Y0009117D01*
X0078531Y0015883D01*
X0079117Y0016468D01*
X0085883Y0016468D01*
X0086468Y0015883D01*
X0086468Y0009117D01*
X0086468Y0009791D02*
X0089597Y0009791D01*
X0088996Y0010590D02*
X0086468Y0010590D01*
X0086468Y0011388D02*
X0088665Y0011388D01*
X0088531Y0012187D02*
X0086468Y0012187D01*
X0086468Y0012985D02*
X0088531Y0012985D01*
X0088736Y0013784D02*
X0086468Y0013784D01*
X0086468Y0014582D02*
X0089067Y0014582D01*
X0089768Y0015381D02*
X0086468Y0015381D01*
X0086172Y0016179D02*
X0091012Y0016179D01*
X0091606Y0018575D02*
X0083394Y0018575D01*
X0083289Y0018531D02*
X0084748Y0019136D01*
X0085864Y0020252D01*
X0086468Y0021711D01*
X0086468Y0023289D01*
X0085864Y0024748D01*
X0084748Y0025864D01*
X0083289Y0026468D01*
X0081711Y0026468D01*
X0080252Y0025864D01*
X0079136Y0024748D01*
X0078531Y0023289D01*
X0078531Y0021711D01*
X0079136Y0020252D01*
X0080252Y0019136D01*
X0081711Y0018531D01*
X0083289Y0018531D01*
X0081606Y0018575D02*
X0075324Y0018575D01*
X0075267Y0019373D02*
X0080014Y0019373D01*
X0079216Y0020172D02*
X0075088Y0020172D01*
X0074914Y0020970D02*
X0078838Y0020970D01*
X0078531Y0021769D02*
X0074642Y0021769D01*
X0074344Y0022567D02*
X0078531Y0022567D01*
X0078563Y0023366D02*
X0073959Y0023366D01*
X0073523Y0024164D02*
X0078894Y0024164D01*
X0079350Y0024963D02*
X0072988Y0024963D01*
X0072390Y0025761D02*
X0080149Y0025761D01*
X0084851Y0025761D02*
X0088500Y0025761D01*
X0088500Y0024963D02*
X0085650Y0024963D01*
X0086106Y0024164D02*
X0088500Y0024164D01*
X0088500Y0023366D02*
X0086437Y0023366D01*
X0086468Y0022567D02*
X0088531Y0022567D01*
X0088531Y0021769D02*
X0086468Y0021769D01*
X0086162Y0020970D02*
X0088838Y0020970D01*
X0089216Y0020172D02*
X0085784Y0020172D01*
X0084986Y0019373D02*
X0090014Y0019373D01*
X0093988Y0016179D02*
X0100132Y0016179D01*
X0099203Y0015381D02*
X0095232Y0015381D01*
X0095933Y0014582D02*
X0098658Y0014582D01*
X0098324Y0013784D02*
X0096264Y0013784D01*
X0096468Y0012985D02*
X0098154Y0012985D01*
X0102100Y0013784D02*
X0102900Y0013784D01*
X0102900Y0014582D02*
X0102100Y0014582D01*
X0102100Y0015381D02*
X0102900Y0015381D01*
X0102900Y0016179D02*
X0102100Y0016179D01*
X0102100Y0011388D02*
X0102900Y0011388D01*
X0102900Y0010590D02*
X0102100Y0010590D01*
X0102100Y0009791D02*
X0102900Y0009791D01*
X0102900Y0008993D02*
X0102100Y0008993D01*
X0102100Y0008194D02*
X0102900Y0008194D01*
X0103239Y0008194D02*
X0307734Y0008194D01*
X0310192Y0008993D02*
X0304402Y0008993D01*
X0304748Y0009136D02*
X0305864Y0010252D01*
X0306468Y0011711D01*
X0306468Y0013289D01*
X0305864Y0014748D01*
X0304748Y0015864D01*
X0303289Y0016468D01*
X0301711Y0016468D01*
X0300252Y0015864D01*
X0299136Y0014748D01*
X0298531Y0013289D01*
X0298531Y0011711D01*
X0299136Y0010252D01*
X0300252Y0009136D01*
X0301711Y0008531D01*
X0303289Y0008531D01*
X0304748Y0009136D01*
X0305403Y0009791D02*
X0312649Y0009791D01*
X0314560Y0010590D02*
X0306004Y0010590D01*
X0306335Y0011388D02*
X0316128Y0011388D01*
X0317695Y0012187D02*
X0306468Y0012187D01*
X0306468Y0012985D02*
X0319262Y0012985D01*
X0320699Y0013784D02*
X0306264Y0013784D01*
X0305933Y0014582D02*
X0321798Y0014582D01*
X0322897Y0015381D02*
X0305232Y0015381D01*
X0303988Y0016179D02*
X0323996Y0016179D01*
X0325095Y0016978D02*
X0253000Y0016978D01*
X0253000Y0017776D02*
X0326194Y0017776D01*
X0327094Y0018575D02*
X0303394Y0018575D01*
X0303289Y0018531D02*
X0304748Y0019136D01*
X0305864Y0020252D01*
X0306468Y0021711D01*
X0306468Y0023289D01*
X0305864Y0024748D01*
X0304748Y0025864D01*
X0303289Y0026468D01*
X0301711Y0026468D01*
X0300252Y0025864D01*
X0299136Y0024748D01*
X0298531Y0023289D01*
X0298531Y0021711D01*
X0299136Y0020252D01*
X0300252Y0019136D01*
X0301711Y0018531D01*
X0303289Y0018531D01*
X0301606Y0018575D02*
X0293394Y0018575D01*
X0293289Y0018531D02*
X0294748Y0019136D01*
X0295864Y0020252D01*
X0296468Y0021711D01*
X0296468Y0023289D01*
X0295864Y0024748D01*
X0294748Y0025864D01*
X0293289Y0026468D01*
X0291711Y0026468D01*
X0290252Y0025864D01*
X0289136Y0024748D01*
X0288531Y0023289D01*
X0288531Y0021711D01*
X0289136Y0020252D01*
X0290252Y0019136D01*
X0291711Y0018531D01*
X0293289Y0018531D01*
X0291606Y0018575D02*
X0283394Y0018575D01*
X0283289Y0018531D02*
X0284748Y0019136D01*
X0285864Y0020252D01*
X0286468Y0021711D01*
X0286468Y0023289D01*
X0285864Y0024748D01*
X0284748Y0025864D01*
X0283289Y0026468D01*
X0281711Y0026468D01*
X0280252Y0025864D01*
X0279136Y0024748D01*
X0278531Y0023289D01*
X0278531Y0021711D01*
X0279136Y0020252D01*
X0280252Y0019136D01*
X0281711Y0018531D01*
X0283289Y0018531D01*
X0281606Y0018575D02*
X0273394Y0018575D01*
X0273289Y0018531D02*
X0274748Y0019136D01*
X0275864Y0020252D01*
X0276468Y0021711D01*
X0276468Y0023289D01*
X0275864Y0024748D01*
X0274748Y0025864D01*
X0273289Y0026468D01*
X0271711Y0026468D01*
X0270252Y0025864D01*
X0269136Y0024748D01*
X0268531Y0023289D01*
X0268531Y0021711D01*
X0269136Y0020252D01*
X0270252Y0019136D01*
X0271711Y0018531D01*
X0273289Y0018531D01*
X0271606Y0018575D02*
X0263394Y0018575D01*
X0263289Y0018531D02*
X0264748Y0019136D01*
X0265864Y0020252D01*
X0266468Y0021711D01*
X0266468Y0023289D01*
X0265864Y0024748D01*
X0264748Y0025864D01*
X0263289Y0026468D01*
X0261711Y0026468D01*
X0260252Y0025864D01*
X0259136Y0024748D01*
X0258531Y0023289D01*
X0258531Y0021711D01*
X0259136Y0020252D01*
X0260252Y0019136D01*
X0261711Y0018531D01*
X0263289Y0018531D01*
X0261606Y0018575D02*
X0253394Y0018575D01*
X0254986Y0019373D02*
X0260014Y0019373D01*
X0259216Y0020172D02*
X0255784Y0020172D01*
X0256162Y0020970D02*
X0258838Y0020970D01*
X0258531Y0021769D02*
X0256468Y0021769D01*
X0256468Y0022567D02*
X0258531Y0022567D01*
X0258563Y0023366D02*
X0256437Y0023366D01*
X0256106Y0024164D02*
X0258894Y0024164D01*
X0259350Y0024963D02*
X0255650Y0024963D01*
X0254851Y0025761D02*
X0260149Y0025761D01*
X0260113Y0028157D02*
X0260887Y0028157D01*
X0260887Y0028955D02*
X0260113Y0028955D01*
X0260113Y0029754D02*
X0260887Y0029754D01*
X0267113Y0029754D02*
X0267887Y0029754D01*
X0267887Y0028955D02*
X0267113Y0028955D01*
X0267113Y0028157D02*
X0267887Y0028157D01*
X0270149Y0025761D02*
X0264851Y0025761D01*
X0265650Y0024963D02*
X0269350Y0024963D01*
X0268894Y0024164D02*
X0266106Y0024164D01*
X0266437Y0023366D02*
X0268563Y0023366D01*
X0268531Y0022567D02*
X0266468Y0022567D01*
X0266468Y0021769D02*
X0268531Y0021769D01*
X0268838Y0020970D02*
X0266162Y0020970D01*
X0265784Y0020172D02*
X0269216Y0020172D01*
X0270014Y0019373D02*
X0264986Y0019373D01*
X0263988Y0016179D02*
X0271012Y0016179D01*
X0271711Y0016468D02*
X0270252Y0015864D01*
X0269136Y0014748D01*
X0268531Y0013289D01*
X0268531Y0011711D01*
X0269136Y0010252D01*
X0270252Y0009136D01*
X0271711Y0008531D01*
X0273289Y0008531D01*
X0274748Y0009136D01*
X0275864Y0010252D01*
X0276468Y0011711D01*
X0276468Y0013289D01*
X0275864Y0014748D01*
X0274748Y0015864D01*
X0273289Y0016468D01*
X0271711Y0016468D01*
X0269768Y0015381D02*
X0265232Y0015381D01*
X0264748Y0015864D02*
X0265864Y0014748D01*
X0266468Y0013289D01*
X0266468Y0011711D01*
X0265864Y0010252D01*
X0264748Y0009136D01*
X0263289Y0008531D01*
X0261711Y0008531D01*
X0260252Y0009136D01*
X0259136Y0010252D01*
X0258531Y0011711D01*
X0258531Y0013289D01*
X0259136Y0014748D01*
X0260252Y0015864D01*
X0261711Y0016468D01*
X0263289Y0016468D01*
X0264748Y0015864D01*
X0265933Y0014582D02*
X0269067Y0014582D01*
X0268736Y0013784D02*
X0266264Y0013784D01*
X0266468Y0012985D02*
X0268531Y0012985D01*
X0268531Y0012187D02*
X0266468Y0012187D01*
X0266335Y0011388D02*
X0268665Y0011388D01*
X0268996Y0010590D02*
X0266004Y0010590D01*
X0265403Y0009791D02*
X0269597Y0009791D01*
X0270598Y0008993D02*
X0264402Y0008993D01*
X0260598Y0008993D02*
X0254402Y0008993D01*
X0255403Y0009791D02*
X0259597Y0009791D01*
X0258996Y0010590D02*
X0256004Y0010590D01*
X0256335Y0011388D02*
X0258665Y0011388D01*
X0258531Y0012187D02*
X0256468Y0012187D01*
X0256468Y0012985D02*
X0258531Y0012985D01*
X0258736Y0013784D02*
X0256264Y0013784D01*
X0255933Y0014582D02*
X0259067Y0014582D01*
X0259768Y0015381D02*
X0255232Y0015381D01*
X0253988Y0016179D02*
X0261012Y0016179D01*
X0251500Y0016978D02*
X0243500Y0016978D01*
X0243500Y0017776D02*
X0251500Y0017776D01*
X0251500Y0018575D02*
X0243500Y0018575D01*
X0244986Y0019373D02*
X0250014Y0019373D01*
X0249216Y0020172D02*
X0245784Y0020172D01*
X0246162Y0020970D02*
X0248838Y0020970D01*
X0248531Y0021769D02*
X0246468Y0021769D01*
X0246468Y0022567D02*
X0248531Y0022567D01*
X0248563Y0023366D02*
X0246437Y0023366D01*
X0246106Y0024164D02*
X0248894Y0024164D01*
X0249350Y0024963D02*
X0245650Y0024963D01*
X0244851Y0025761D02*
X0250149Y0025761D01*
X0251012Y0016179D02*
X0243988Y0016179D01*
X0245232Y0015381D02*
X0249768Y0015381D01*
X0249067Y0014582D02*
X0245933Y0014582D01*
X0246468Y0012187D02*
X0248531Y0012187D01*
X0248665Y0011388D02*
X0246335Y0011388D01*
X0246004Y0010590D02*
X0248996Y0010590D01*
X0249597Y0009791D02*
X0245403Y0009791D01*
X0244402Y0008993D02*
X0250598Y0008993D01*
X0240598Y0008993D02*
X0234402Y0008993D01*
X0235403Y0009791D02*
X0239597Y0009791D01*
X0238996Y0010590D02*
X0236004Y0010590D01*
X0236335Y0011388D02*
X0238665Y0011388D01*
X0238531Y0012187D02*
X0236468Y0012187D01*
X0227500Y0017500D02*
X0222500Y0012500D01*
X0210598Y0008993D02*
X0204402Y0008993D01*
X0205403Y0009791D02*
X0209597Y0009791D01*
X0208996Y0010590D02*
X0206004Y0010590D01*
X0206335Y0011388D02*
X0208665Y0011388D01*
X0208531Y0012187D02*
X0206468Y0012187D01*
X0165500Y0037500D02*
X0165000Y0037000D01*
X0163500Y0035500D01*
X0135000Y0035500D01*
X0133457Y0033957D01*
X0132500Y0033957D01*
X0132457Y0034000D01*
X0114300Y0034000D01*
X0114300Y0039000D02*
X0122500Y0039000D01*
X0123957Y0037543D01*
X0125000Y0037543D01*
X0159043Y0037543D01*
X0160500Y0039000D01*
X0163500Y0042000D01*
X0163500Y0052500D01*
X0165000Y0054000D01*
X0170300Y0054000D01*
X0170300Y0049000D02*
X0167000Y0049000D01*
X0165500Y0047500D01*
X0165500Y0037500D01*
X0157500Y0043000D02*
X0156500Y0042000D01*
X0153043Y0042000D01*
X0156809Y0045724D02*
X0147858Y0045724D01*
X0146344Y0045724D02*
X0145569Y0045724D01*
X0145569Y0045762D02*
X0144198Y0045762D01*
X0143841Y0045667D01*
X0143522Y0045482D01*
X0143262Y0045222D01*
X0143077Y0044903D01*
X0142982Y0044547D01*
X0142982Y0042387D01*
X0145569Y0042387D01*
X0145569Y0045762D01*
X0145569Y0044926D02*
X0146344Y0044926D01*
X0146344Y0044127D02*
X0145569Y0044127D01*
X0145569Y0043329D02*
X0146344Y0043329D01*
X0146344Y0042530D02*
X0145569Y0042530D01*
X0145569Y0041732D02*
X0136262Y0041732D01*
X0136262Y0042530D02*
X0142982Y0042530D01*
X0142982Y0043329D02*
X0136069Y0043329D01*
X0135577Y0044127D02*
X0142982Y0044127D01*
X0143091Y0044926D02*
X0136136Y0044926D01*
X0136467Y0045724D02*
X0144055Y0045724D01*
X0144415Y0047321D02*
X0136448Y0047321D01*
X0136500Y0046523D02*
X0162100Y0046523D01*
X0162100Y0047321D02*
X0158801Y0047321D01*
X0159600Y0048120D02*
X0162100Y0048120D01*
X0162100Y0048918D02*
X0159900Y0048918D01*
X0159900Y0049717D02*
X0162100Y0049717D01*
X0162100Y0050515D02*
X0159900Y0050515D01*
X0159166Y0051314D02*
X0162100Y0051314D01*
X0162100Y0052112D02*
X0158368Y0052112D01*
X0157569Y0052911D02*
X0162100Y0052911D01*
X0162729Y0053709D02*
X0157400Y0053709D01*
X0157400Y0054508D02*
X0163528Y0054508D01*
X0164326Y0055306D02*
X0157400Y0055306D01*
X0157400Y0056105D02*
X0165000Y0056105D01*
X0165000Y0056903D02*
X0157400Y0056903D01*
X0157400Y0057702D02*
X0164950Y0057702D01*
X0164950Y0058500D02*
X0157400Y0058500D01*
X0157400Y0059299D02*
X0164950Y0059299D01*
X0164950Y0060097D02*
X0157400Y0060097D01*
X0157400Y0060896D02*
X0165000Y0060896D01*
X0165410Y0061495D02*
X0165090Y0061680D01*
X0164830Y0061940D01*
X0164645Y0062260D01*
X0164550Y0062616D01*
X0164550Y0063800D01*
X0170100Y0063800D01*
X0170100Y0061400D01*
X0165766Y0061400D01*
X0165410Y0061495D01*
X0165076Y0061694D02*
X0157400Y0061694D01*
X0157400Y0062493D02*
X0164583Y0062493D01*
X0164550Y0063291D02*
X0157400Y0063291D01*
X0157400Y0064090D02*
X0170100Y0064090D01*
X0170100Y0063291D02*
X0170500Y0063291D01*
X0170500Y0062493D02*
X0170100Y0062493D01*
X0170100Y0061694D02*
X0170500Y0061694D01*
X0156000Y0061694D02*
X0142427Y0061694D01*
X0141957Y0061500D02*
X0143039Y0061948D01*
X0143691Y0062600D01*
X0144350Y0062600D01*
X0144350Y0062386D01*
X0144936Y0061800D01*
X0154464Y0061800D01*
X0155050Y0062386D01*
X0155050Y0065614D01*
X0154464Y0066200D01*
X0144936Y0066200D01*
X0144557Y0065821D01*
X0144052Y0067039D01*
X0143039Y0068052D01*
X0141716Y0068600D01*
X0140284Y0068600D01*
X0138961Y0068052D01*
X0137948Y0067039D01*
X0137400Y0065716D01*
X0137400Y0064284D01*
X0137948Y0062961D01*
X0138961Y0061948D01*
X0140043Y0061500D01*
X0138961Y0061052D01*
X0137948Y0060039D01*
X0137400Y0058716D01*
X0137400Y0057284D01*
X0137948Y0055961D01*
X0138961Y0054948D01*
X0140284Y0054400D01*
X0141716Y0054400D01*
X0143039Y0054948D01*
X0144052Y0055961D01*
X0144557Y0057179D01*
X0144936Y0056800D01*
X0154464Y0056800D01*
X0155050Y0057386D01*
X0155050Y0060614D01*
X0154464Y0061200D01*
X0144936Y0061200D01*
X0144350Y0060614D01*
X0144350Y0060400D01*
X0143691Y0060400D01*
X0143039Y0061052D01*
X0141957Y0061500D01*
X0143195Y0060896D02*
X0144632Y0060896D01*
X0144350Y0062493D02*
X0143584Y0062493D01*
X0142000Y0064000D02*
X0141000Y0065000D01*
X0142000Y0064000D02*
X0149700Y0064000D01*
X0155050Y0064090D02*
X0156000Y0064090D01*
X0156000Y0064888D02*
X0155050Y0064888D01*
X0154977Y0065687D02*
X0156000Y0065687D01*
X0156000Y0066485D02*
X0144281Y0066485D01*
X0143807Y0067284D02*
X0156000Y0067284D01*
X0156000Y0068082D02*
X0142966Y0068082D01*
X0139034Y0068082D02*
X0112630Y0068082D01*
X0112781Y0068447D02*
X0112781Y0069500D01*
X0156000Y0069500D01*
X0156000Y0052500D01*
X0158500Y0050000D01*
X0158500Y0049000D01*
X0158000Y0048500D01*
X0155450Y0048500D01*
X0155450Y0048800D01*
X0149900Y0048800D01*
X0149900Y0049200D01*
X0149500Y0049200D01*
X0149500Y0051800D01*
X0154464Y0051800D01*
X0155050Y0052386D01*
X0155050Y0055614D01*
X0154464Y0056200D01*
X0144936Y0056200D01*
X0144350Y0055614D01*
X0144350Y0053900D01*
X0139080Y0053900D01*
X0137400Y0055580D01*
X0136580Y0056400D01*
X0109580Y0056400D01*
X0109500Y0056480D01*
X0109500Y0066219D01*
X0110553Y0066219D01*
X0111575Y0066642D01*
X0112358Y0067425D01*
X0112781Y0068447D01*
X0112781Y0068881D02*
X0156000Y0068881D01*
X0156000Y0063291D02*
X0155050Y0063291D01*
X0155050Y0062493D02*
X0156000Y0062493D01*
X0156000Y0060896D02*
X0154768Y0060896D01*
X0155050Y0060097D02*
X0156000Y0060097D01*
X0156000Y0059299D02*
X0155050Y0059299D01*
X0155050Y0058500D02*
X0156000Y0058500D01*
X0156000Y0057702D02*
X0155050Y0057702D01*
X0154567Y0056903D02*
X0156000Y0056903D01*
X0156000Y0056105D02*
X0154559Y0056105D01*
X0155050Y0055306D02*
X0156000Y0055306D01*
X0156000Y0054508D02*
X0155050Y0054508D01*
X0155050Y0053709D02*
X0156000Y0053709D01*
X0156000Y0052911D02*
X0155050Y0052911D01*
X0154776Y0052112D02*
X0156388Y0052112D01*
X0157186Y0051314D02*
X0154916Y0051314D01*
X0154910Y0051320D02*
X0154590Y0051505D01*
X0154234Y0051600D01*
X0149900Y0051600D01*
X0149900Y0049200D01*
X0155450Y0049200D01*
X0155450Y0050384D01*
X0155355Y0050740D01*
X0155170Y0051060D01*
X0154910Y0051320D01*
X0155415Y0050515D02*
X0157985Y0050515D01*
X0158500Y0049717D02*
X0155450Y0049717D01*
X0158418Y0048918D02*
X0149900Y0048918D01*
X0149900Y0049717D02*
X0149500Y0049717D01*
X0149500Y0050515D02*
X0149900Y0050515D01*
X0149900Y0051314D02*
X0149500Y0051314D01*
X0149700Y0054000D02*
X0146500Y0054000D01*
X0145000Y0052500D01*
X0138500Y0052500D01*
X0136000Y0055000D01*
X0109000Y0055000D01*
X0108000Y0056000D01*
X0108000Y0067000D01*
X0110000Y0069000D01*
X0111197Y0066485D02*
X0137719Y0066485D01*
X0137400Y0065687D02*
X0109500Y0065687D01*
X0109500Y0064888D02*
X0137400Y0064888D01*
X0137480Y0064090D02*
X0109500Y0064090D01*
X0109500Y0063291D02*
X0137811Y0063291D01*
X0138416Y0062493D02*
X0109500Y0062493D01*
X0109500Y0061694D02*
X0139573Y0061694D01*
X0138805Y0060896D02*
X0109500Y0060896D01*
X0109500Y0060097D02*
X0138006Y0060097D01*
X0137641Y0059299D02*
X0109500Y0059299D01*
X0109500Y0058500D02*
X0137400Y0058500D01*
X0137400Y0057702D02*
X0109500Y0057702D01*
X0109500Y0056903D02*
X0137558Y0056903D01*
X0137888Y0056105D02*
X0136875Y0056105D01*
X0137400Y0055580D02*
X0137400Y0055580D01*
X0137674Y0055306D02*
X0138603Y0055306D01*
X0138472Y0054508D02*
X0140024Y0054508D01*
X0141976Y0054508D02*
X0144350Y0054508D01*
X0144350Y0055306D02*
X0143397Y0055306D01*
X0144112Y0056105D02*
X0144841Y0056105D01*
X0144833Y0056903D02*
X0144442Y0056903D01*
X0142000Y0059000D02*
X0141000Y0058000D01*
X0142000Y0059000D02*
X0149700Y0059000D01*
X0137706Y0051314D02*
X0128762Y0051314D01*
X0128762Y0050515D02*
X0144350Y0050515D01*
X0144350Y0049717D02*
X0134380Y0049717D01*
X0135532Y0048918D02*
X0144350Y0048918D01*
X0144350Y0048120D02*
X0136118Y0048120D01*
X0133000Y0046500D02*
X0131457Y0044957D01*
X0125000Y0044957D01*
X0124043Y0044000D01*
X0114300Y0044000D01*
X0114100Y0046400D02*
X0109766Y0046400D01*
X0109410Y0046495D01*
X0109090Y0046680D01*
X0108830Y0046940D01*
X0108645Y0047260D01*
X0108550Y0047616D01*
X0108550Y0048800D01*
X0114100Y0048800D01*
X0114500Y0048800D01*
X0114500Y0049200D01*
X0114100Y0049200D01*
X0114100Y0051600D01*
X0109766Y0051600D01*
X0109410Y0051505D01*
X0109090Y0051320D01*
X0108830Y0051060D01*
X0108645Y0050740D01*
X0108550Y0050384D01*
X0108550Y0049200D01*
X0114100Y0049200D01*
X0114100Y0048800D01*
X0114100Y0046400D01*
X0114100Y0046523D02*
X0114500Y0046523D01*
X0114500Y0046400D02*
X0118834Y0046400D01*
X0119190Y0046495D01*
X0119510Y0046680D01*
X0119770Y0046940D01*
X0119955Y0047260D01*
X0120050Y0047616D01*
X0120050Y0048800D01*
X0114500Y0048800D01*
X0114500Y0046400D01*
X0114500Y0047321D02*
X0114100Y0047321D01*
X0114100Y0048120D02*
X0114500Y0048120D01*
X0114500Y0048918D02*
X0130468Y0048918D01*
X0129882Y0048120D02*
X0120050Y0048120D01*
X0119971Y0047321D02*
X0122013Y0047321D01*
X0121638Y0046523D02*
X0119237Y0046523D01*
X0120050Y0049200D02*
X0114500Y0049200D01*
X0114500Y0051600D01*
X0118834Y0051600D01*
X0119190Y0051505D01*
X0119510Y0051320D01*
X0119770Y0051060D01*
X0119955Y0050740D01*
X0120050Y0050384D01*
X0120050Y0049200D01*
X0120050Y0049717D02*
X0121455Y0049717D01*
X0121518Y0049609D02*
X0121778Y0049348D01*
X0122097Y0049164D01*
X0122453Y0049069D01*
X0124613Y0049068D01*
X0124613Y0051656D01*
X0121238Y0051656D01*
X0121238Y0050284D01*
X0121333Y0049928D01*
X0121518Y0049609D01*
X0121238Y0050515D02*
X0120015Y0050515D01*
X0119516Y0051314D02*
X0121238Y0051314D01*
X0121238Y0052911D02*
X0103022Y0052911D01*
X0103550Y0052112D02*
X0124613Y0052112D01*
X0125387Y0052112D02*
X0136908Y0052112D01*
X0136109Y0052911D02*
X0128762Y0052911D01*
X0128545Y0049717D02*
X0131620Y0049717D01*
X0129552Y0047321D02*
X0127987Y0047321D01*
X0128362Y0046523D02*
X0129500Y0046523D01*
X0125387Y0049717D02*
X0124613Y0049717D01*
X0124613Y0050515D02*
X0125387Y0050515D01*
X0125387Y0051314D02*
X0124613Y0051314D01*
X0114500Y0051314D02*
X0114100Y0051314D01*
X0114100Y0050515D02*
X0114500Y0050515D01*
X0114500Y0049717D02*
X0114100Y0049717D01*
X0114100Y0048918D02*
X0102851Y0048918D01*
X0103479Y0049717D02*
X0108550Y0049717D01*
X0108585Y0050515D02*
X0103781Y0050515D01*
X0103781Y0051314D02*
X0109084Y0051314D01*
X0108311Y0053709D02*
X0101727Y0053709D01*
X0102656Y0054508D02*
X0103431Y0054508D01*
X0103431Y0054238D02*
X0104802Y0054238D01*
X0105158Y0054333D01*
X0105478Y0054518D01*
X0105738Y0054778D01*
X0105923Y0055097D01*
X0106018Y0055453D01*
X0106018Y0057613D01*
X0103431Y0057613D01*
X0103431Y0054238D01*
X0103431Y0055306D02*
X0102656Y0055306D01*
X0102656Y0056105D02*
X0103431Y0056105D01*
X0103431Y0056903D02*
X0102656Y0056903D01*
X0102656Y0057702D02*
X0098531Y0057702D01*
X0098531Y0056903D02*
X0100069Y0056903D01*
X0100069Y0056105D02*
X0098531Y0056105D01*
X0098531Y0055306D02*
X0100108Y0055306D01*
X0105461Y0054508D02*
X0107512Y0054508D01*
X0106714Y0055306D02*
X0105979Y0055306D01*
X0106018Y0056105D02*
X0106600Y0056105D01*
X0106600Y0056903D02*
X0106018Y0056903D01*
X0106600Y0057702D02*
X0103431Y0057702D01*
X0103431Y0058500D02*
X0102656Y0058500D01*
X0102656Y0059299D02*
X0103431Y0059299D01*
X0103431Y0060097D02*
X0102656Y0060097D01*
X0102656Y0060896D02*
X0103431Y0060896D01*
X0103431Y0061694D02*
X0102656Y0061694D01*
X0102500Y0062493D02*
X0106600Y0062493D01*
X0106600Y0063291D02*
X0102500Y0063291D01*
X0102656Y0064090D02*
X0103431Y0064090D01*
X0103431Y0063738D02*
X0104802Y0063738D01*
X0105158Y0063833D01*
X0105478Y0064018D01*
X0105738Y0064278D01*
X0105923Y0064597D01*
X0106018Y0064953D01*
X0106018Y0067113D01*
X0103431Y0067113D01*
X0103431Y0063738D01*
X0103431Y0064888D02*
X0102656Y0064888D01*
X0102656Y0065687D02*
X0103431Y0065687D01*
X0103431Y0066485D02*
X0102656Y0066485D01*
X0103431Y0067284D02*
X0106600Y0067284D01*
X0106600Y0066485D02*
X0106018Y0066485D01*
X0106018Y0065687D02*
X0106600Y0065687D01*
X0106600Y0064888D02*
X0106001Y0064888D01*
X0105550Y0064090D02*
X0106600Y0064090D01*
X0106600Y0061694D02*
X0105056Y0061694D01*
X0105925Y0060896D02*
X0106600Y0060896D01*
X0106600Y0060097D02*
X0106018Y0060097D01*
X0106018Y0059299D02*
X0106600Y0059299D01*
X0106600Y0058500D02*
X0106018Y0058500D01*
X0099500Y0062500D02*
X0095957Y0058957D01*
X0095957Y0058000D01*
X0079291Y0057702D02*
X0051400Y0057702D01*
X0051400Y0058500D02*
X0079291Y0058500D01*
X0079291Y0059299D02*
X0051400Y0059299D01*
X0051400Y0060097D02*
X0079291Y0060097D01*
X0066817Y0074470D02*
X0103500Y0074470D01*
X0103500Y0075269D02*
X0067638Y0075269D01*
X0068146Y0076068D02*
X0103500Y0076068D01*
X0103500Y0076866D02*
X0068464Y0076866D01*
X0068626Y0077665D02*
X0103500Y0077665D01*
X0103500Y0078463D02*
X0064400Y0078463D01*
X0064400Y0077665D02*
X0063600Y0077665D01*
X0063600Y0076866D02*
X0064400Y0076866D01*
X0064400Y0076068D02*
X0063600Y0076068D01*
X0063600Y0075269D02*
X0064400Y0075269D01*
X0064400Y0074470D02*
X0063600Y0074470D01*
X0068532Y0079262D02*
X0103500Y0079262D01*
X0103500Y0080060D02*
X0068253Y0080060D01*
X0067791Y0080859D02*
X0103500Y0080859D01*
X0103500Y0081657D02*
X0067085Y0081657D01*
X0112217Y0067284D02*
X0138193Y0067284D01*
X0108550Y0048120D02*
X0100099Y0048120D01*
X0099000Y0047321D02*
X0108629Y0047321D01*
X0109363Y0046523D02*
X0099000Y0046523D01*
X0099000Y0045724D02*
X0109000Y0045724D01*
X0108950Y0044926D02*
X0100054Y0044926D01*
X0100164Y0039336D02*
X0099450Y0039336D01*
X0088049Y0031351D02*
X0051400Y0031351D01*
X0051400Y0030552D02*
X0087719Y0030552D01*
X0087719Y0029754D02*
X0066469Y0029754D01*
X0068372Y0028955D02*
X0087922Y0028955D01*
X0088410Y0028157D02*
X0069737Y0028157D01*
X0070804Y0027358D02*
X0088500Y0027358D01*
X0088500Y0026560D02*
X0071638Y0026560D01*
X0075400Y0016179D02*
X0078828Y0016179D01*
X0078531Y0015381D02*
X0075400Y0015381D01*
X0075400Y0014582D02*
X0078531Y0014582D01*
X0078531Y0013784D02*
X0075400Y0013784D01*
X0075400Y0012985D02*
X0078531Y0012985D01*
X0078531Y0012187D02*
X0075400Y0012187D01*
X0075400Y0011388D02*
X0078531Y0011388D01*
X0078531Y0010590D02*
X0075400Y0010590D01*
X0075400Y0009791D02*
X0078531Y0009791D01*
X0078656Y0008993D02*
X0075400Y0008993D01*
X0075400Y0008194D02*
X0101761Y0008194D01*
X0105105Y0008993D02*
X0110598Y0008993D01*
X0109597Y0009791D02*
X0105932Y0009791D01*
X0106429Y0010590D02*
X0108996Y0010590D01*
X0114402Y0008993D02*
X0120598Y0008993D01*
X0119597Y0009791D02*
X0115403Y0009791D01*
X0116004Y0010590D02*
X0118996Y0010590D01*
X0118665Y0011388D02*
X0116335Y0011388D01*
X0116468Y0012187D02*
X0118531Y0012187D01*
X0118531Y0012985D02*
X0116468Y0012985D01*
X0116264Y0013784D02*
X0118736Y0013784D01*
X0119067Y0014582D02*
X0115933Y0014582D01*
X0115232Y0015381D02*
X0119768Y0015381D01*
X0121012Y0016179D02*
X0113988Y0016179D01*
X0075400Y0007396D02*
X0304153Y0007396D01*
X0300598Y0008993D02*
X0294402Y0008993D01*
X0294748Y0009136D02*
X0295864Y0010252D01*
X0296468Y0011711D01*
X0296468Y0013289D01*
X0295864Y0014748D01*
X0294748Y0015864D01*
X0293289Y0016468D01*
X0291711Y0016468D01*
X0290252Y0015864D01*
X0289136Y0014748D01*
X0288531Y0013289D01*
X0288531Y0011711D01*
X0289136Y0010252D01*
X0290252Y0009136D01*
X0291711Y0008531D01*
X0293289Y0008531D01*
X0294748Y0009136D01*
X0295403Y0009791D02*
X0299597Y0009791D01*
X0298996Y0010590D02*
X0296004Y0010590D01*
X0296335Y0011388D02*
X0298665Y0011388D01*
X0298531Y0012187D02*
X0296468Y0012187D01*
X0296468Y0012985D02*
X0298531Y0012985D01*
X0298736Y0013784D02*
X0296264Y0013784D01*
X0295933Y0014582D02*
X0299067Y0014582D01*
X0299768Y0015381D02*
X0295232Y0015381D01*
X0293988Y0016179D02*
X0301012Y0016179D01*
X0300014Y0019373D02*
X0294986Y0019373D01*
X0295784Y0020172D02*
X0299216Y0020172D01*
X0298838Y0020970D02*
X0296162Y0020970D01*
X0296468Y0021769D02*
X0298531Y0021769D01*
X0298531Y0022567D02*
X0296468Y0022567D01*
X0296437Y0023366D02*
X0298563Y0023366D01*
X0298894Y0024164D02*
X0296106Y0024164D01*
X0295650Y0024963D02*
X0299350Y0024963D01*
X0300149Y0025761D02*
X0294851Y0025761D01*
X0290149Y0025761D02*
X0284851Y0025761D01*
X0285650Y0024963D02*
X0289350Y0024963D01*
X0288894Y0024164D02*
X0286106Y0024164D01*
X0286437Y0023366D02*
X0288563Y0023366D01*
X0288531Y0022567D02*
X0286468Y0022567D01*
X0286468Y0021769D02*
X0288531Y0021769D01*
X0288838Y0020970D02*
X0286162Y0020970D01*
X0285784Y0020172D02*
X0289216Y0020172D01*
X0290014Y0019373D02*
X0284986Y0019373D01*
X0283988Y0016179D02*
X0291012Y0016179D01*
X0289768Y0015381D02*
X0285232Y0015381D01*
X0284748Y0015864D02*
X0285864Y0014748D01*
X0286468Y0013289D01*
X0286468Y0011711D01*
X0285864Y0010252D01*
X0284748Y0009136D01*
X0283289Y0008531D01*
X0281711Y0008531D01*
X0280252Y0009136D01*
X0279136Y0010252D01*
X0278531Y0011711D01*
X0278531Y0013289D01*
X0279136Y0014748D01*
X0280252Y0015864D01*
X0281711Y0016468D01*
X0283289Y0016468D01*
X0284748Y0015864D01*
X0285933Y0014582D02*
X0289067Y0014582D01*
X0288736Y0013784D02*
X0286264Y0013784D01*
X0286468Y0012985D02*
X0288531Y0012985D01*
X0288531Y0012187D02*
X0286468Y0012187D01*
X0286335Y0011388D02*
X0288665Y0011388D01*
X0288996Y0010590D02*
X0286004Y0010590D01*
X0285403Y0009791D02*
X0289597Y0009791D01*
X0290598Y0008993D02*
X0284402Y0008993D01*
X0280598Y0008993D02*
X0274402Y0008993D01*
X0275403Y0009791D02*
X0279597Y0009791D01*
X0278996Y0010590D02*
X0276004Y0010590D01*
X0276335Y0011388D02*
X0278665Y0011388D01*
X0278531Y0012187D02*
X0276468Y0012187D01*
X0276468Y0012985D02*
X0278531Y0012985D01*
X0278736Y0013784D02*
X0276264Y0013784D01*
X0275933Y0014582D02*
X0279067Y0014582D01*
X0279768Y0015381D02*
X0275232Y0015381D01*
X0273988Y0016179D02*
X0281012Y0016179D01*
X0280014Y0019373D02*
X0274986Y0019373D01*
X0275784Y0020172D02*
X0279216Y0020172D01*
X0278838Y0020970D02*
X0276162Y0020970D01*
X0276468Y0021769D02*
X0278531Y0021769D01*
X0278531Y0022567D02*
X0276468Y0022567D01*
X0276437Y0023366D02*
X0278563Y0023366D01*
X0278894Y0024164D02*
X0276106Y0024164D01*
X0275650Y0024963D02*
X0279350Y0024963D01*
X0280149Y0025761D02*
X0274851Y0025761D01*
X0274887Y0028157D02*
X0274113Y0028157D01*
X0274113Y0028955D02*
X0274887Y0028955D01*
X0274887Y0029754D02*
X0274113Y0029754D01*
X0281113Y0029754D02*
X0281887Y0029754D01*
X0281887Y0028955D02*
X0281113Y0028955D01*
X0281113Y0028157D02*
X0281887Y0028157D01*
X0285060Y0028157D02*
X0335385Y0028157D01*
X0335965Y0028955D02*
X0285262Y0028955D01*
X0285262Y0029754D02*
X0336513Y0029754D01*
X0333645Y0025761D02*
X0304851Y0025761D01*
X0305650Y0024963D02*
X0333064Y0024963D01*
X0332484Y0024164D02*
X0306106Y0024164D01*
X0306437Y0023366D02*
X0331885Y0023366D01*
X0331086Y0022567D02*
X0306468Y0022567D01*
X0306468Y0021769D02*
X0330288Y0021769D01*
X0329489Y0020970D02*
X0306162Y0020970D01*
X0305784Y0020172D02*
X0328691Y0020172D01*
X0327892Y0019373D02*
X0304986Y0019373D01*
X0299111Y0006597D02*
X0075400Y0006597D01*
X0132887Y0040933D02*
X0142982Y0040933D01*
X0158191Y0045724D02*
X0162100Y0045724D01*
X0256300Y0095300D02*
X0262300Y0095300D01*
X0265000Y0098000D01*
X0265000Y0197500D01*
X0267500Y0200000D01*
X0267500Y0215000D01*
X0265000Y0217500D01*
X0157500Y0217500D01*
X0152500Y0212500D01*
X0162500Y0212500D02*
X0167500Y0207500D01*
X0175000Y0207500D01*
X0177500Y0205000D01*
X0172500Y0202500D02*
X0172500Y0200000D01*
X0179000Y0193500D01*
X0188500Y0193500D01*
X0195000Y0187000D01*
X0195000Y0172000D01*
X0250000Y0169000D02*
X0254957Y0169000D01*
X0255000Y0169043D01*
X0257500Y0157000D02*
X0256300Y0155800D01*
X0256300Y0153500D01*
X0278500Y0155919D02*
X0285100Y0155919D01*
X0285100Y0156717D02*
X0279217Y0156717D01*
X0278700Y0155120D02*
X0278700Y0155120D01*
X0278700Y0154322D02*
X0278700Y0154322D01*
X0278700Y0153523D02*
X0278700Y0153523D01*
X0282560Y0155120D02*
X0285100Y0155120D01*
X0285100Y0154322D02*
X0282900Y0154322D01*
X0282900Y0153523D02*
X0285100Y0153523D01*
X0295500Y0157500D02*
X0302500Y0157500D01*
X0307500Y0152500D01*
X0297500Y0132500D02*
X0295500Y0130500D01*
X0278700Y0130500D01*
X0281000Y0125575D02*
X0281431Y0125575D01*
X0281431Y0124777D02*
X0281000Y0124777D01*
X0281000Y0123978D02*
X0281431Y0123978D01*
X0281431Y0123180D02*
X0281000Y0123180D01*
X0281431Y0122381D02*
X0293600Y0122381D01*
X0293600Y0123180D02*
X0284018Y0123180D01*
X0284018Y0123978D02*
X0293891Y0123978D01*
X0294261Y0124777D02*
X0283956Y0124777D01*
X0283317Y0125575D02*
X0295060Y0125575D01*
X0297500Y0122500D02*
X0283100Y0108100D01*
X0278700Y0108100D01*
X0278700Y0110700D02*
X0274800Y0110700D01*
X0274000Y0111500D01*
X0274000Y0116000D01*
X0274500Y0116500D01*
X0273957Y0117043D01*
X0273957Y0122000D01*
X0281000Y0121583D02*
X0281431Y0121583D01*
X0281431Y0120784D02*
X0281000Y0120784D01*
X0281000Y0119986D02*
X0281431Y0119986D01*
X0281431Y0119187D02*
X0281000Y0119187D01*
X0280889Y0118389D02*
X0281431Y0118389D01*
X0280090Y0117590D02*
X0290610Y0117590D01*
X0289812Y0116792D02*
X0279292Y0116792D01*
X0278500Y0115993D02*
X0289013Y0115993D01*
X0288215Y0115195D02*
X0282058Y0115195D01*
X0282816Y0114396D02*
X0287416Y0114396D01*
X0286618Y0113598D02*
X0282900Y0113598D01*
X0278700Y0113598D02*
X0278700Y0113598D01*
X0278700Y0114396D02*
X0278700Y0114396D01*
X0278700Y0115195D02*
X0278700Y0115195D01*
X0283254Y0118389D02*
X0291409Y0118389D01*
X0292207Y0119187D02*
X0283947Y0119187D01*
X0284018Y0119986D02*
X0293006Y0119986D01*
X0293804Y0120784D02*
X0284018Y0120784D01*
X0284018Y0121583D02*
X0293659Y0121583D01*
X0301109Y0123978D02*
X0303891Y0123978D01*
X0303600Y0123180D02*
X0301400Y0123180D01*
X0300739Y0124777D02*
X0304261Y0124777D01*
X0305060Y0125575D02*
X0299940Y0125575D01*
X0305000Y0117500D02*
X0311000Y0117500D01*
X0305000Y0117500D02*
X0302500Y0115000D01*
X0290500Y0105500D02*
X0278700Y0105500D01*
X0256300Y0113200D02*
X0251300Y0113200D01*
X0250000Y0114500D01*
X0257000Y0126500D02*
X0256300Y0127200D01*
X0256300Y0130500D01*
X0284513Y0199038D02*
X0290487Y0199038D01*
X0290252Y0199136D02*
X0291711Y0198531D01*
X0293289Y0198531D01*
X0294748Y0199136D01*
X0295864Y0200252D01*
X0296468Y0201711D01*
X0296468Y0203289D01*
X0295864Y0204748D01*
X0294748Y0205864D01*
X0293289Y0206468D01*
X0291711Y0206468D01*
X0290252Y0205864D01*
X0289136Y0204748D01*
X0288531Y0203289D01*
X0288531Y0201711D01*
X0289136Y0200252D01*
X0290252Y0199136D01*
X0289551Y0199837D02*
X0285449Y0199837D01*
X0286023Y0200635D02*
X0288977Y0200635D01*
X0288646Y0201434D02*
X0286354Y0201434D01*
X0286468Y0202232D02*
X0288531Y0202232D01*
X0288531Y0203031D02*
X0286468Y0203031D01*
X0286245Y0203829D02*
X0288755Y0203829D01*
X0289086Y0204628D02*
X0285914Y0204628D01*
X0285186Y0205426D02*
X0289814Y0205426D01*
X0291122Y0206225D02*
X0283878Y0206225D01*
X0285031Y0209419D02*
X0289969Y0209419D01*
X0289170Y0210217D02*
X0285830Y0210217D01*
X0286181Y0211016D02*
X0288819Y0211016D01*
X0288531Y0211814D02*
X0286468Y0211814D01*
X0286468Y0212613D02*
X0288531Y0212613D01*
X0288582Y0213411D02*
X0286418Y0213411D01*
X0286087Y0214210D02*
X0288913Y0214210D01*
X0289396Y0215008D02*
X0285604Y0215008D01*
X0284805Y0215807D02*
X0290195Y0215807D01*
X0294805Y0215807D02*
X0300195Y0215807D01*
X0299396Y0215008D02*
X0295604Y0215008D01*
X0296087Y0214210D02*
X0298913Y0214210D01*
X0298582Y0213411D02*
X0296418Y0213411D01*
X0296468Y0212613D02*
X0298531Y0212613D01*
X0298531Y0211814D02*
X0296468Y0211814D01*
X0296181Y0211016D02*
X0298819Y0211016D01*
X0299170Y0210217D02*
X0295830Y0210217D01*
X0295031Y0209419D02*
X0299969Y0209419D01*
X0301122Y0206225D02*
X0293878Y0206225D01*
X0295186Y0205426D02*
X0299814Y0205426D01*
X0299086Y0204628D02*
X0295914Y0204628D01*
X0296245Y0203829D02*
X0298755Y0203829D01*
X0298531Y0203031D02*
X0296468Y0203031D01*
X0296468Y0202232D02*
X0298531Y0202232D01*
X0298646Y0201434D02*
X0296354Y0201434D01*
X0296023Y0200635D02*
X0298977Y0200635D01*
X0299551Y0199837D02*
X0295449Y0199837D01*
X0294513Y0199038D02*
X0300487Y0199038D01*
X0305031Y0209419D02*
X0323173Y0209419D01*
X0322074Y0210217D02*
X0305830Y0210217D01*
X0306181Y0211016D02*
X0320975Y0211016D01*
X0319655Y0211814D02*
X0306468Y0211814D01*
X0306468Y0212613D02*
X0318088Y0212613D01*
X0316521Y0213411D02*
X0306418Y0213411D01*
X0306087Y0214210D02*
X0314954Y0214210D01*
X0313266Y0215008D02*
X0305604Y0215008D01*
X0304805Y0215807D02*
X0310809Y0215807D01*
X0308351Y0216605D02*
X0283000Y0216605D01*
X0283000Y0217404D02*
X0305418Y0217404D01*
X0300377Y0218203D02*
X0283000Y0218203D01*
D26*
X0090000Y0067500D02*
X0089937Y0067437D01*
X0089937Y0063240D01*
X0082063Y0063937D02*
X0082063Y0059500D01*
X0082063Y0063937D02*
X0082000Y0064000D01*
M02*
